<mxfile host="app.diagrams.net" modified="2021-04-06T11:15:01.010Z" agent="5.0 (Macintosh; Intel Mac OS X 10_15_3) AppleWebKit/605.1.15 (KHTML, like Gecko) Version/13.0.5 Safari/605.1.15" etag="vBg8WOIi3RGt09dVNNQo" version="14.4.9" type="github" pages="2">
  <diagram id="kgpKYQtTHZ0yAKxKKP6v" name="Page-1">
    <mxGraphModel dx="3670" dy="3480" grid="1" gridSize="12" guides="1" tooltips="1" connect="1" arrows="1" fold="1" page="1" pageScale="1" pageWidth="850" pageHeight="1100" math="0" shadow="0">
      <root>
        <mxCell id="0" />
        <mxCell id="1" parent="0" />
        <mxCell id="tsBlAUJXxBQKcdKZZ9ZE-37" value="" style="edgeStyle=orthogonalEdgeStyle;rounded=0;orthogonalLoop=1;jettySize=auto;html=1;" parent="1" source="tsBlAUJXxBQKcdKZZ9ZE-1" target="tsBlAUJXxBQKcdKZZ9ZE-10" edge="1">
          <mxGeometry relative="1" as="geometry" />
        </mxCell>
        <mxCell id="tsBlAUJXxBQKcdKZZ9ZE-1" value="Instanciate &#xa;SpringApplication" style="shape=umlLifeline;perimeter=lifelinePerimeter;container=1;collapsible=0;recursiveResize=0;rounded=0;shadow=0;strokeWidth=1;" parent="1" vertex="1">
          <mxGeometry x="460" y="60" width="140" height="30" as="geometry" />
        </mxCell>
        <mxCell id="tsBlAUJXxBQKcdKZZ9ZE-54" value="" style="edgeStyle=orthogonalEdgeStyle;rounded=0;orthogonalLoop=1;jettySize=auto;html=1;" parent="1" source="tsBlAUJXxBQKcdKZZ9ZE-10" target="tsBlAUJXxBQKcdKZZ9ZE-14" edge="1">
          <mxGeometry relative="1" as="geometry" />
        </mxCell>
        <mxCell id="tsBlAUJXxBQKcdKZZ9ZE-10" value="Deduce  &#xa;WebApplication Type" style="shape=umlLifeline;perimeter=lifelinePerimeter;container=1;collapsible=0;recursiveResize=0;rounded=0;shadow=0;strokeWidth=1;" parent="1" vertex="1">
          <mxGeometry x="460" y="200" width="140" height="40" as="geometry" />
        </mxCell>
        <mxCell id="tsBlAUJXxBQKcdKZZ9ZE-55" value="" style="edgeStyle=orthogonalEdgeStyle;rounded=0;orthogonalLoop=1;jettySize=auto;html=1;" parent="1" source="tsBlAUJXxBQKcdKZZ9ZE-14" target="tsBlAUJXxBQKcdKZZ9ZE-16" edge="1">
          <mxGeometry relative="1" as="geometry" />
        </mxCell>
        <mxCell id="tsBlAUJXxBQKcdKZZ9ZE-14" value="setInitializers" style="shape=umlLifeline;perimeter=lifelinePerimeter;container=1;collapsible=0;recursiveResize=0;rounded=0;shadow=0;strokeWidth=1;" parent="1" vertex="1">
          <mxGeometry x="460" y="340" width="140" height="40" as="geometry" />
        </mxCell>
        <mxCell id="tsBlAUJXxBQKcdKZZ9ZE-56" value="" style="edgeStyle=orthogonalEdgeStyle;rounded=0;orthogonalLoop=1;jettySize=auto;html=1;" parent="1" source="tsBlAUJXxBQKcdKZZ9ZE-16" target="tsBlAUJXxBQKcdKZZ9ZE-18" edge="1">
          <mxGeometry relative="1" as="geometry" />
        </mxCell>
        <mxCell id="tsBlAUJXxBQKcdKZZ9ZE-16" value=" setListeners" style="shape=umlLifeline;perimeter=lifelinePerimeter;container=1;collapsible=0;recursiveResize=0;rounded=0;shadow=0;strokeWidth=1;" parent="1" vertex="1">
          <mxGeometry x="460" y="480" width="140" height="40" as="geometry" />
        </mxCell>
        <mxCell id="tsBlAUJXxBQKcdKZZ9ZE-18" value="deduceMainApplication&#xa;Class" style="shape=umlLifeline;perimeter=lifelinePerimeter;container=1;collapsible=0;recursiveResize=0;rounded=0;shadow=0;strokeWidth=1;" parent="1" vertex="1">
          <mxGeometry x="460" y="620" width="140" height="40" as="geometry" />
        </mxCell>
        <mxCell id="tsBlAUJXxBQKcdKZZ9ZE-28" value="run" style="shape=umlLifeline;perimeter=lifelinePerimeter;container=1;collapsible=0;recursiveResize=0;rounded=0;shadow=0;strokeWidth=1;" parent="1" vertex="1">
          <mxGeometry x="270" y="60" width="70" height="30" as="geometry" />
        </mxCell>
        <mxCell id="tsBlAUJXxBQKcdKZZ9ZE-32" value="" style="edgeStyle=orthogonalEdgeStyle;rounded=0;orthogonalLoop=1;jettySize=auto;html=1;" parent="1" edge="1">
          <mxGeometry relative="1" as="geometry">
            <mxPoint x="340" y="74.47" as="sourcePoint" />
            <mxPoint x="450" y="74.88" as="targetPoint" />
            <Array as="points">
              <mxPoint x="420" y="74.88" />
              <mxPoint x="420" y="74.88" />
            </Array>
          </mxGeometry>
        </mxCell>
        <mxCell id="tsBlAUJXxBQKcdKZZ9ZE-33" value="main" style="shape=umlLifeline;perimeter=lifelinePerimeter;container=1;collapsible=0;recursiveResize=0;rounded=0;shadow=0;strokeWidth=1;" parent="1" vertex="1">
          <mxGeometry x="110" y="60" width="80" height="30" as="geometry" />
        </mxCell>
        <mxCell id="tsBlAUJXxBQKcdKZZ9ZE-36" value="" style="edgeStyle=orthogonalEdgeStyle;rounded=0;orthogonalLoop=1;jettySize=auto;html=1;" parent="1" edge="1">
          <mxGeometry relative="1" as="geometry">
            <mxPoint x="190" y="74.59" as="sourcePoint" />
            <mxPoint x="260" y="74.40999999999997" as="targetPoint" />
            <Array as="points">
              <mxPoint x="230" y="74.41" />
              <mxPoint x="230" y="74.41" />
            </Array>
          </mxGeometry>
        </mxCell>
        <mxCell id="tsBlAUJXxBQKcdKZZ9ZE-47" value="" style="edgeStyle=orthogonalEdgeStyle;rounded=0;orthogonalLoop=1;jettySize=auto;html=1;" parent="1" source="tsBlAUJXxBQKcdKZZ9ZE-38" target="tsBlAUJXxBQKcdKZZ9ZE-46" edge="1">
          <mxGeometry relative="1" as="geometry" />
        </mxCell>
        <mxCell id="tsBlAUJXxBQKcdKZZ9ZE-38" value="run" style="shape=umlLifeline;perimeter=lifelinePerimeter;container=1;collapsible=0;recursiveResize=0;rounded=0;shadow=0;strokeWidth=1;" parent="1" vertex="1">
          <mxGeometry x="700" y="60" width="140" height="30" as="geometry" />
        </mxCell>
        <mxCell id="tsBlAUJXxBQKcdKZZ9ZE-40" value="" style="edgeStyle=orthogonalEdgeStyle;rounded=0;orthogonalLoop=1;jettySize=auto;html=1;" parent="1" edge="1">
          <mxGeometry relative="1" as="geometry">
            <mxPoint x="600" y="75" as="sourcePoint" />
            <mxPoint x="690" y="74.82" as="targetPoint" />
            <Array as="points">
              <mxPoint x="660" y="74.82" />
              <mxPoint x="660" y="74.82" />
            </Array>
          </mxGeometry>
        </mxCell>
        <mxCell id="tsBlAUJXxBQKcdKZZ9ZE-69" value="" style="edgeStyle=orthogonalEdgeStyle;rounded=0;orthogonalLoop=1;jettySize=auto;html=1;fontSize=10;" parent="1" source="tsBlAUJXxBQKcdKZZ9ZE-44" target="tsBlAUJXxBQKcdKZZ9ZE-68" edge="1">
          <mxGeometry relative="1" as="geometry" />
        </mxCell>
        <mxCell id="tsBlAUJXxBQKcdKZZ9ZE-44" value="environmentPrepared" style="shape=umlLifeline;perimeter=lifelinePerimeter;container=1;collapsible=0;recursiveResize=0;rounded=0;shadow=0;strokeWidth=1;" parent="1" vertex="1">
          <mxGeometry x="920" y="60" width="140" height="30" as="geometry" />
        </mxCell>
        <mxCell id="tsBlAUJXxBQKcdKZZ9ZE-49" value="" style="edgeStyle=orthogonalEdgeStyle;rounded=0;orthogonalLoop=1;jettySize=auto;html=1;" parent="1" source="tsBlAUJXxBQKcdKZZ9ZE-46" target="tsBlAUJXxBQKcdKZZ9ZE-48" edge="1">
          <mxGeometry relative="1" as="geometry" />
        </mxCell>
        <mxCell id="tsBlAUJXxBQKcdKZZ9ZE-46" value="StopWatch.start" style="shape=umlLifeline;perimeter=lifelinePerimeter;container=1;collapsible=0;recursiveResize=0;rounded=0;shadow=0;strokeWidth=1;" parent="1" vertex="1">
          <mxGeometry x="700" y="170" width="140" height="30" as="geometry" />
        </mxCell>
        <mxCell id="tsBlAUJXxBQKcdKZZ9ZE-51" value="" style="edgeStyle=orthogonalEdgeStyle;rounded=0;orthogonalLoop=1;jettySize=auto;html=1;" parent="1" source="tsBlAUJXxBQKcdKZZ9ZE-48" target="tsBlAUJXxBQKcdKZZ9ZE-50" edge="1">
          <mxGeometry relative="1" as="geometry" />
        </mxCell>
        <mxCell id="tsBlAUJXxBQKcdKZZ9ZE-48" value="configureHeadlessProperty" style="shape=umlLifeline;perimeter=lifelinePerimeter;container=1;collapsible=0;recursiveResize=0;rounded=0;shadow=0;strokeWidth=1;textOpacity=90;fontSize=11;" parent="1" vertex="1">
          <mxGeometry x="700" y="280" width="140" height="30" as="geometry" />
        </mxCell>
        <mxCell id="tsBlAUJXxBQKcdKZZ9ZE-53" value="" style="edgeStyle=orthogonalEdgeStyle;rounded=0;orthogonalLoop=1;jettySize=auto;html=1;" parent="1" source="tsBlAUJXxBQKcdKZZ9ZE-50" target="tsBlAUJXxBQKcdKZZ9ZE-52" edge="1">
          <mxGeometry relative="1" as="geometry" />
        </mxCell>
        <mxCell id="tsBlAUJXxBQKcdKZZ9ZE-50" value="getRunListeners" style="shape=umlLifeline;perimeter=lifelinePerimeter;container=1;collapsible=0;recursiveResize=0;rounded=0;shadow=0;strokeWidth=1;" parent="1" vertex="1">
          <mxGeometry x="700" y="390" width="140" height="30" as="geometry" />
        </mxCell>
        <mxCell id="tsBlAUJXxBQKcdKZZ9ZE-58" value="" style="edgeStyle=orthogonalEdgeStyle;rounded=0;orthogonalLoop=1;jettySize=auto;html=1;fontSize=11;" parent="1" source="tsBlAUJXxBQKcdKZZ9ZE-52" target="tsBlAUJXxBQKcdKZZ9ZE-57" edge="1">
          <mxGeometry relative="1" as="geometry" />
        </mxCell>
        <mxCell id="tsBlAUJXxBQKcdKZZ9ZE-52" value="listeners.starting" style="shape=umlLifeline;perimeter=lifelinePerimeter;container=1;collapsible=0;recursiveResize=0;rounded=0;shadow=0;strokeWidth=1;" parent="1" vertex="1">
          <mxGeometry x="700" y="500" width="140" height="30" as="geometry" />
        </mxCell>
        <mxCell id="tsBlAUJXxBQKcdKZZ9ZE-60" value="" style="edgeStyle=orthogonalEdgeStyle;rounded=0;orthogonalLoop=1;jettySize=auto;html=1;fontSize=10;" parent="1" source="tsBlAUJXxBQKcdKZZ9ZE-57" target="tsBlAUJXxBQKcdKZZ9ZE-59" edge="1">
          <mxGeometry relative="1" as="geometry" />
        </mxCell>
        <mxCell id="tsBlAUJXxBQKcdKZZ9ZE-57" value="DefaultApplicationArguments" style="shape=umlLifeline;perimeter=lifelinePerimeter;container=1;collapsible=0;recursiveResize=0;rounded=0;shadow=0;strokeWidth=1;fontSize=10;" parent="1" vertex="1">
          <mxGeometry x="700" y="610" width="140" height="30" as="geometry" />
        </mxCell>
        <mxCell id="tsBlAUJXxBQKcdKZZ9ZE-62" value="" style="edgeStyle=orthogonalEdgeStyle;rounded=0;orthogonalLoop=1;jettySize=auto;html=1;fontSize=10;" parent="1" source="tsBlAUJXxBQKcdKZZ9ZE-59" target="tsBlAUJXxBQKcdKZZ9ZE-61" edge="1">
          <mxGeometry relative="1" as="geometry" />
        </mxCell>
        <mxCell id="tsBlAUJXxBQKcdKZZ9ZE-59" value="prepareEnvironment" style="shape=umlLifeline;perimeter=lifelinePerimeter;container=1;collapsible=0;recursiveResize=0;rounded=0;shadow=0;strokeWidth=1;fontSize=10;" parent="1" vertex="1">
          <mxGeometry x="700" y="720" width="140" height="30" as="geometry" />
        </mxCell>
        <mxCell id="tsBlAUJXxBQKcdKZZ9ZE-64" value="" style="edgeStyle=orthogonalEdgeStyle;rounded=0;orthogonalLoop=1;jettySize=auto;html=1;fontSize=10;" parent="1" source="tsBlAUJXxBQKcdKZZ9ZE-61" target="tsBlAUJXxBQKcdKZZ9ZE-63" edge="1">
          <mxGeometry relative="1" as="geometry" />
        </mxCell>
        <mxCell id="tsBlAUJXxBQKcdKZZ9ZE-61" value="getOrCreateEnvironment" style="shape=umlLifeline;perimeter=lifelinePerimeter;container=1;collapsible=0;recursiveResize=0;rounded=0;shadow=0;strokeWidth=1;fontSize=10;" parent="1" vertex="1">
          <mxGeometry x="700" y="830" width="140" height="30" as="geometry" />
        </mxCell>
        <mxCell id="tsBlAUJXxBQKcdKZZ9ZE-63" value="configureEnvironment" style="shape=umlLifeline;perimeter=lifelinePerimeter;container=1;collapsible=0;recursiveResize=0;rounded=0;shadow=0;strokeWidth=1;fontSize=10;size=20;" parent="1" vertex="1">
          <mxGeometry x="700" y="940" width="140" height="80" as="geometry" />
        </mxCell>
        <mxCell id="tsBlAUJXxBQKcdKZZ9ZE-65" value="bindToSpringApplication" style="shape=umlLifeline;perimeter=lifelinePerimeter;container=1;collapsible=0;recursiveResize=0;rounded=0;shadow=0;strokeWidth=1;fontSize=10;" parent="1" vertex="1">
          <mxGeometry x="700" y="1270" width="140" height="30" as="geometry" />
        </mxCell>
        <mxCell id="tsBlAUJXxBQKcdKZZ9ZE-67" value="" style="edgeStyle=elbowEdgeStyle;elbow=horizontal;endArrow=classic;html=1;fontSize=10;exitX=1.039;exitY=0.476;exitDx=0;exitDy=0;exitPerimeter=0;" parent="1" source="tsBlAUJXxBQKcdKZZ9ZE-159" edge="1">
          <mxGeometry width="50" height="50" relative="1" as="geometry">
            <mxPoint x="850" y="950" as="sourcePoint" />
            <mxPoint x="910" y="80" as="targetPoint" />
            <Array as="points">
              <mxPoint x="895" y="940" />
            </Array>
          </mxGeometry>
        </mxCell>
        <mxCell id="tsBlAUJXxBQKcdKZZ9ZE-71" value="" style="edgeStyle=orthogonalEdgeStyle;rounded=0;orthogonalLoop=1;jettySize=auto;html=1;fontSize=10;" parent="1" source="tsBlAUJXxBQKcdKZZ9ZE-68" target="tsBlAUJXxBQKcdKZZ9ZE-70" edge="1">
          <mxGeometry relative="1" as="geometry" />
        </mxCell>
        <mxCell id="tsBlAUJXxBQKcdKZZ9ZE-68" value="MulticastEvents" style="shape=umlLifeline;perimeter=lifelinePerimeter;container=1;collapsible=0;recursiveResize=0;rounded=0;shadow=0;strokeWidth=1;" parent="1" vertex="1">
          <mxGeometry x="920" y="170" width="140" height="30" as="geometry" />
        </mxCell>
        <mxCell id="tsBlAUJXxBQKcdKZZ9ZE-73" value="" style="edgeStyle=orthogonalEdgeStyle;rounded=0;orthogonalLoop=1;jettySize=auto;html=1;fontSize=10;" parent="1" source="tsBlAUJXxBQKcdKZZ9ZE-70" target="tsBlAUJXxBQKcdKZZ9ZE-72" edge="1">
          <mxGeometry relative="1" as="geometry" />
        </mxCell>
        <mxCell id="tsBlAUJXxBQKcdKZZ9ZE-70" value="invokeListener" style="shape=umlLifeline;perimeter=lifelinePerimeter;container=1;collapsible=0;recursiveResize=0;rounded=0;shadow=0;strokeWidth=1;" parent="1" vertex="1">
          <mxGeometry x="920" y="280" width="140" height="30" as="geometry" />
        </mxCell>
        <mxCell id="tsBlAUJXxBQKcdKZZ9ZE-75" value="" style="edgeStyle=orthogonalEdgeStyle;rounded=0;orthogonalLoop=1;jettySize=auto;html=1;fontSize=10;" parent="1" source="tsBlAUJXxBQKcdKZZ9ZE-72" target="tsBlAUJXxBQKcdKZZ9ZE-74" edge="1">
          <mxGeometry relative="1" as="geometry" />
        </mxCell>
        <mxCell id="tsBlAUJXxBQKcdKZZ9ZE-72" value="doInvokeListener" style="shape=umlLifeline;perimeter=lifelinePerimeter;container=1;collapsible=0;recursiveResize=0;rounded=0;shadow=0;strokeWidth=1;" parent="1" vertex="1">
          <mxGeometry x="920" y="390" width="140" height="30" as="geometry" />
        </mxCell>
        <mxCell id="tsBlAUJXxBQKcdKZZ9ZE-74" value="listener.onApplicationEvent" style="shape=umlLifeline;perimeter=lifelinePerimeter;container=1;collapsible=0;recursiveResize=0;rounded=0;shadow=0;strokeWidth=1;fontSize=11;" parent="1" vertex="1">
          <mxGeometry x="920" y="500" width="140" height="30" as="geometry" />
        </mxCell>
        <mxCell id="tsBlAUJXxBQKcdKZZ9ZE-80" value="" style="edgeStyle=orthogonalEdgeStyle;rounded=0;orthogonalLoop=1;jettySize=auto;html=1;fontSize=7;" parent="1" source="tsBlAUJXxBQKcdKZZ9ZE-76" target="tsBlAUJXxBQKcdKZZ9ZE-79" edge="1">
          <mxGeometry relative="1" as="geometry" />
        </mxCell>
        <mxCell id="tsBlAUJXxBQKcdKZZ9ZE-76" value="onApplicationEnvironmen&#xa;PreparedEvent" style="shape=umlLifeline;perimeter=lifelinePerimeter;container=1;collapsible=0;recursiveResize=0;rounded=0;shadow=0;strokeWidth=1;fontSize=10;" parent="1" vertex="1">
          <mxGeometry x="1140" y="60" width="140" height="30" as="geometry" />
        </mxCell>
        <mxCell id="tsBlAUJXxBQKcdKZZ9ZE-78" value="" style="edgeStyle=elbowEdgeStyle;elbow=horizontal;endArrow=classic;html=1;fontSize=7;" parent="1" edge="1">
          <mxGeometry width="50" height="50" relative="1" as="geometry">
            <mxPoint x="1060" y="510" as="sourcePoint" />
            <mxPoint x="1130" y="80" as="targetPoint" />
            <Array as="points">
              <mxPoint x="1070" y="300" />
            </Array>
          </mxGeometry>
        </mxCell>
        <mxCell id="tsBlAUJXxBQKcdKZZ9ZE-82" value="" style="edgeStyle=orthogonalEdgeStyle;rounded=0;orthogonalLoop=1;jettySize=auto;html=1;fontSize=7;" parent="1" source="tsBlAUJXxBQKcdKZZ9ZE-79" target="tsBlAUJXxBQKcdKZZ9ZE-81" edge="1">
          <mxGeometry relative="1" as="geometry" />
        </mxCell>
        <mxCell id="tsBlAUJXxBQKcdKZZ9ZE-79" value="postProcessEnvironment" style="shape=umlLifeline;perimeter=lifelinePerimeter;container=1;collapsible=0;recursiveResize=0;rounded=0;shadow=0;strokeWidth=1;fontSize=11;" parent="1" vertex="1" treatAsSingle="0">
          <mxGeometry x="1140" y="170" width="175" height="30" as="geometry" />
        </mxCell>
        <mxCell id="kll7W4Ml-uQDBgVJ0LRq-44" value="&lt;p style=&quot;margin: 0px ; font-style: normal ; font-weight: normal ; font-stretch: normal ; line-height: normal ; font-family: &amp;#34;helvetica neue&amp;#34; ; color: rgb(62 , 62 , 62) ; font-size: 8px&quot;&gt;&lt;font style=&quot;font-size: 8px&quot;&gt;loadPostProcessors is an implementation that loads all the EnvironmentPostProcessor classes in the spring.factories file. The main concern here is that the ConfigFileApplicationListener class is not only a listener, but also a postprocessor.&lt;/font&gt;&lt;/p&gt;&lt;font style=&quot;font-size: 8px&quot;&gt;&lt;br&gt;&lt;/font&gt;" style="text;html=1;strokeColor=none;fillColor=none;align=center;verticalAlign=middle;whiteSpace=wrap;rounded=0;dashed=1;dashPattern=1 2;fontSize=9;fontColor=#000000;" vertex="1" parent="tsBlAUJXxBQKcdKZZ9ZE-79">
          <mxGeometry x="-25" y="5" width="200" height="20" as="geometry" />
        </mxCell>
        <mxCell id="tsBlAUJXxBQKcdKZZ9ZE-84" value="" style="edgeStyle=orthogonalEdgeStyle;rounded=0;orthogonalLoop=1;jettySize=auto;html=1;fontSize=7;" parent="1" source="tsBlAUJXxBQKcdKZZ9ZE-81" target="tsBlAUJXxBQKcdKZZ9ZE-83" edge="1">
          <mxGeometry relative="1" as="geometry" />
        </mxCell>
        <mxCell id="tsBlAUJXxBQKcdKZZ9ZE-81" value="addPropertySources" style="shape=umlLifeline;perimeter=lifelinePerimeter;container=1;collapsible=0;recursiveResize=0;rounded=0;shadow=0;strokeWidth=1;fontSize=11;" parent="1" vertex="1">
          <mxGeometry x="1140" y="280" width="140" height="30" as="geometry" />
        </mxCell>
        <mxCell id="tsBlAUJXxBQKcdKZZ9ZE-86" value="" style="edgeStyle=orthogonalEdgeStyle;rounded=0;orthogonalLoop=1;jettySize=auto;html=1;fontSize=11;" parent="1" source="tsBlAUJXxBQKcdKZZ9ZE-83" target="tsBlAUJXxBQKcdKZZ9ZE-85" edge="1">
          <mxGeometry relative="1" as="geometry" />
        </mxCell>
        <mxCell id="tsBlAUJXxBQKcdKZZ9ZE-83" value="Loader(..).load()" style="shape=umlLifeline;perimeter=lifelinePerimeter;container=1;collapsible=0;recursiveResize=0;rounded=0;shadow=0;strokeWidth=1;fontSize=11;" parent="1" vertex="1">
          <mxGeometry x="1140" y="390" width="140" height="30" as="geometry" />
        </mxCell>
        <mxCell id="tsBlAUJXxBQKcdKZZ9ZE-88" value="" style="edgeStyle=orthogonalEdgeStyle;rounded=0;orthogonalLoop=1;jettySize=auto;html=1;fontSize=11;" parent="1" source="tsBlAUJXxBQKcdKZZ9ZE-85" target="tsBlAUJXxBQKcdKZZ9ZE-87" edge="1">
          <mxGeometry relative="1" as="geometry" />
        </mxCell>
        <mxCell id="tsBlAUJXxBQKcdKZZ9ZE-85" value="initializeProfiles" style="shape=umlLifeline;perimeter=lifelinePerimeter;container=1;collapsible=0;recursiveResize=0;rounded=0;shadow=0;strokeWidth=1;fontSize=11;" parent="1" vertex="1">
          <mxGeometry x="1140" y="500" width="140" height="30" as="geometry" />
        </mxCell>
        <mxCell id="tsBlAUJXxBQKcdKZZ9ZE-90" value="" style="edgeStyle=orthogonalEdgeStyle;rounded=0;orthogonalLoop=1;jettySize=auto;html=1;fontSize=11;" parent="1" source="tsBlAUJXxBQKcdKZZ9ZE-87" target="tsBlAUJXxBQKcdKZZ9ZE-89" edge="1">
          <mxGeometry relative="1" as="geometry" />
        </mxCell>
        <mxCell id="tsBlAUJXxBQKcdKZZ9ZE-87" value="loadProfile" style="shape=umlLifeline;perimeter=lifelinePerimeter;container=1;collapsible=0;recursiveResize=0;rounded=0;shadow=0;strokeWidth=1;fontSize=11;" parent="1" vertex="1">
          <mxGeometry x="1140" y="610" width="140" height="30" as="geometry" />
        </mxCell>
        <mxCell id="tsBlAUJXxBQKcdKZZ9ZE-158" value="" style="edgeStyle=orthogonalEdgeStyle;rounded=0;orthogonalLoop=1;jettySize=auto;html=1;fontFamily=Times New Roman;fontSize=11;entryX=0.498;entryY=-0.095;entryDx=0;entryDy=0;entryPerimeter=0;" parent="1" source="tsBlAUJXxBQKcdKZZ9ZE-89" target="tsBlAUJXxBQKcdKZZ9ZE-93" edge="1">
          <mxGeometry relative="1" as="geometry">
            <mxPoint x="1209.0714285714282" y="860" as="targetPoint" />
          </mxGeometry>
        </mxCell>
        <mxCell id="tsBlAUJXxBQKcdKZZ9ZE-89" value="getSearchLocations&#xa; getSearchNames" style="shape=umlLifeline;perimeter=lifelinePerimeter;container=1;collapsible=0;recursiveResize=0;rounded=0;shadow=0;strokeWidth=1;fontSize=11;" parent="1" vertex="1">
          <mxGeometry x="1140" y="720" width="140" height="30" as="geometry" />
        </mxCell>
        <mxCell id="tsBlAUJXxBQKcdKZZ9ZE-96" value="" style="edgeStyle=orthogonalEdgeStyle;rounded=0;orthogonalLoop=1;jettySize=auto;html=1;fontSize=11;" parent="1" source="tsBlAUJXxBQKcdKZZ9ZE-93" target="tsBlAUJXxBQKcdKZZ9ZE-95" edge="1">
          <mxGeometry relative="1" as="geometry" />
        </mxCell>
        <mxCell id="tsBlAUJXxBQKcdKZZ9ZE-93" value="loadLocation" style="shape=umlLifeline;perimeter=lifelinePerimeter;container=1;collapsible=0;recursiveResize=0;rounded=0;shadow=0;strokeWidth=1;fontSize=11;" parent="1" vertex="1">
          <mxGeometry x="1140" y="940" width="140" height="30" as="geometry" />
        </mxCell>
        <mxCell id="tsBlAUJXxBQKcdKZZ9ZE-98" value="" style="edgeStyle=orthogonalEdgeStyle;rounded=0;orthogonalLoop=1;jettySize=auto;html=1;fontSize=11;" parent="1" source="tsBlAUJXxBQKcdKZZ9ZE-95" target="tsBlAUJXxBQKcdKZZ9ZE-97" edge="1">
          <mxGeometry relative="1" as="geometry" />
        </mxCell>
        <mxCell id="tsBlAUJXxBQKcdKZZ9ZE-95" value="loadWithLoader" style="shape=umlLifeline;perimeter=lifelinePerimeter;container=1;collapsible=0;recursiveResize=0;rounded=0;shadow=0;strokeWidth=1;fontSize=11;" parent="1" vertex="1">
          <mxGeometry x="1140" y="1050" width="140" height="30" as="geometry" />
        </mxCell>
        <mxCell id="tsBlAUJXxBQKcdKZZ9ZE-100" value="" style="edgeStyle=orthogonalEdgeStyle;rounded=0;orthogonalLoop=1;jettySize=auto;html=1;fontSize=10;" parent="1" source="tsBlAUJXxBQKcdKZZ9ZE-97" target="tsBlAUJXxBQKcdKZZ9ZE-99" edge="1">
          <mxGeometry relative="1" as="geometry" />
        </mxCell>
        <mxCell id="tsBlAUJXxBQKcdKZZ9ZE-97" value="loadWithLoaderAndExtension" style="shape=umlLifeline;perimeter=lifelinePerimeter;container=1;collapsible=0;recursiveResize=0;rounded=0;shadow=0;strokeWidth=1;fontSize=10;" parent="1" vertex="1">
          <mxGeometry x="1140" y="1160" width="140" height="30" as="geometry" />
        </mxCell>
        <mxCell id="tsBlAUJXxBQKcdKZZ9ZE-144" value="" style="edgeStyle=orthogonalEdgeStyle;rounded=0;orthogonalLoop=1;jettySize=auto;html=1;fontFamily=Times New Roman;fontSize=11;" parent="1" source="tsBlAUJXxBQKcdKZZ9ZE-99" target="tsBlAUJXxBQKcdKZZ9ZE-103" edge="1">
          <mxGeometry relative="1" as="geometry" />
        </mxCell>
        <mxCell id="tsBlAUJXxBQKcdKZZ9ZE-99" value="loadDocuments" style="shape=umlLifeline;perimeter=lifelinePerimeter;container=1;collapsible=0;recursiveResize=0;rounded=0;shadow=0;strokeWidth=1;fontSize=10;" parent="1" vertex="1">
          <mxGeometry x="1140" y="1270" width="140" height="30" as="geometry" />
        </mxCell>
        <mxCell id="tsBlAUJXxBQKcdKZZ9ZE-104" value="" style="edgeStyle=orthogonalEdgeStyle;rounded=0;orthogonalLoop=1;jettySize=auto;html=1;fontSize=10;" parent="1" target="tsBlAUJXxBQKcdKZZ9ZE-103" edge="1">
          <mxGeometry relative="1" as="geometry">
            <mxPoint x="1209.5" y="1410" as="sourcePoint" />
          </mxGeometry>
        </mxCell>
        <mxCell id="tsBlAUJXxBQKcdKZZ9ZE-103" value="addLoadedPropertySources" style="shape=umlLifeline;perimeter=lifelinePerimeter;container=1;collapsible=0;recursiveResize=0;rounded=0;shadow=0;strokeWidth=1;fontSize=10;" parent="1" vertex="1">
          <mxGeometry x="1140" y="1380" width="140" height="30" as="geometry" />
        </mxCell>
        <mxCell id="tsBlAUJXxBQKcdKZZ9ZE-108" value="" style="edgeStyle=orthogonalEdgeStyle;rounded=0;orthogonalLoop=1;jettySize=auto;html=1;fontSize=9;" parent="1" source="tsBlAUJXxBQKcdKZZ9ZE-105" target="tsBlAUJXxBQKcdKZZ9ZE-107" edge="1">
          <mxGeometry relative="1" as="geometry" />
        </mxCell>
        <mxCell id="tsBlAUJXxBQKcdKZZ9ZE-105" value="PropertiesPropertySource&#xa;Loader" style="shape=umlLifeline;perimeter=lifelinePerimeter;container=1;collapsible=0;recursiveResize=0;rounded=0;shadow=0;strokeWidth=1;fontSize=11;" parent="1" vertex="1">
          <mxGeometry x="1360" y="60" width="140" height="30" as="geometry" />
        </mxCell>
        <mxCell id="tsBlAUJXxBQKcdKZZ9ZE-110" value="" style="edgeStyle=orthogonalEdgeStyle;rounded=0;orthogonalLoop=1;jettySize=auto;html=1;fontSize=9;" parent="1" source="tsBlAUJXxBQKcdKZZ9ZE-107" target="tsBlAUJXxBQKcdKZZ9ZE-109" edge="1">
          <mxGeometry relative="1" as="geometry" />
        </mxCell>
        <mxCell id="tsBlAUJXxBQKcdKZZ9ZE-107" value="load" style="shape=umlLifeline;perimeter=lifelinePerimeter;container=1;collapsible=0;recursiveResize=0;rounded=0;shadow=0;strokeWidth=1;fontSize=9;" parent="1" vertex="1">
          <mxGeometry x="1360" y="170" width="140" height="30" as="geometry" />
        </mxCell>
        <mxCell id="tsBlAUJXxBQKcdKZZ9ZE-112" value="" style="edgeStyle=orthogonalEdgeStyle;rounded=0;orthogonalLoop=1;jettySize=auto;html=1;fontSize=9;" parent="1" source="tsBlAUJXxBQKcdKZZ9ZE-109" target="tsBlAUJXxBQKcdKZZ9ZE-111" edge="1">
          <mxGeometry relative="1" as="geometry" />
        </mxCell>
        <mxCell id="tsBlAUJXxBQKcdKZZ9ZE-109" value="loadProperties" style="shape=umlLifeline;perimeter=lifelinePerimeter;container=1;collapsible=0;recursiveResize=0;rounded=0;shadow=0;strokeWidth=1;fontSize=9;" parent="1" vertex="1">
          <mxGeometry x="1360" y="280" width="140" height="30" as="geometry" />
        </mxCell>
        <mxCell id="tsBlAUJXxBQKcdKZZ9ZE-114" value="" style="edgeStyle=orthogonalEdgeStyle;rounded=0;orthogonalLoop=1;jettySize=auto;html=1;fontSize=9;" parent="1" source="tsBlAUJXxBQKcdKZZ9ZE-111" target="tsBlAUJXxBQKcdKZZ9ZE-113" edge="1">
          <mxGeometry relative="1" as="geometry" />
        </mxCell>
        <mxCell id="tsBlAUJXxBQKcdKZZ9ZE-111" value="OriginTrackedProperties&#xa;Loader.load" style="shape=umlLifeline;perimeter=lifelinePerimeter;container=1;collapsible=0;recursiveResize=0;rounded=0;shadow=0;strokeWidth=1;fontSize=11;" parent="1" vertex="1">
          <mxGeometry x="1360" y="390" width="140" height="30" as="geometry" />
        </mxCell>
        <mxCell id="tsBlAUJXxBQKcdKZZ9ZE-113" value="loadKey" style="shape=umlLifeline;perimeter=lifelinePerimeter;container=1;collapsible=0;recursiveResize=0;rounded=0;shadow=0;strokeWidth=1;fontSize=9;" parent="1" vertex="1">
          <mxGeometry x="1360" y="500" width="140" height="30" as="geometry" />
        </mxCell>
        <mxCell id="tsBlAUJXxBQKcdKZZ9ZE-115" value="loadValue" style="shape=umlLifeline;perimeter=lifelinePerimeter;container=1;collapsible=0;recursiveResize=0;rounded=0;shadow=0;strokeWidth=1;fontSize=9;" parent="1" vertex="1">
          <mxGeometry x="1540" y="500" width="140" height="30" as="geometry" />
        </mxCell>
        <mxCell id="tsBlAUJXxBQKcdKZZ9ZE-117" value="" style="edgeStyle=elbowEdgeStyle;elbow=horizontal;endArrow=classic;html=1;fontSize=8;exitX=1.024;exitY=0.373;exitDx=0;exitDy=0;exitPerimeter=0;fillColor=#e51400;strokeColor=#B20000;" parent="1" source="tsBlAUJXxBQKcdKZZ9ZE-99" edge="1">
          <mxGeometry width="50" height="50" relative="1" as="geometry">
            <mxPoint x="1465.56" y="1263.35" as="sourcePoint" />
            <mxPoint x="1350" y="70" as="targetPoint" />
            <Array as="points">
              <mxPoint x="1310" y="1280" />
              <mxPoint x="1310" y="1270" />
              <mxPoint x="1310" y="1700" />
            </Array>
          </mxGeometry>
        </mxCell>
        <mxCell id="tsBlAUJXxBQKcdKZZ9ZE-126" value="&lt;p style=&quot;margin-top: 0pt ; margin-bottom: 0pt ; margin-left: 0in ; text-align: left ; direction: ltr ; unicode-bidi: embed ; word-break: normal&quot;&gt;&lt;font face=&quot;Times New Roman&quot;&gt;&lt;span style=&quot;font-size: 12px&quot;&gt;By checking the&amp;nbsp;class path ect.. &amp;nbsp;deduce application type, possible value: [reactive | servlet | None]&lt;/span&gt;&lt;/font&gt;&lt;/p&gt;" style="text;html=1;strokeColor=none;fillColor=none;align=center;verticalAlign=middle;whiteSpace=wrap;rounded=0;shadow=0;fontSize=8;" parent="1" vertex="1">
          <mxGeometry x="240" y="210" width="220" height="20" as="geometry" />
        </mxCell>
        <mxCell id="tsBlAUJXxBQKcdKZZ9ZE-127" value="&lt;p style=&quot;margin-top: 0pt ; margin-bottom: 0pt ; margin-left: 0in ; text-align: left ; direction: ltr ; unicode-bidi: embed ; word-break: normal ; font-size: 10px&quot;&gt;&lt;font face=&quot;Times New Roman&quot; style=&quot;font-size: 10px&quot;&gt;f&lt;font style=&quot;font-size: 10px&quot;&gt;rom spring.factories load all the classes that implements ApplicationContextInitializer&lt;/font&gt;&lt;/font&gt;&lt;/p&gt;&lt;p style=&quot;margin-top: 0pt ; margin-bottom: 0pt ; margin-left: 0in ; text-align: left ; direction: ltr ; unicode-bidi: embed ; word-break: normal ; font-size: 10px&quot;&gt;&lt;font face=&quot;Times New Roman&quot; style=&quot;font-size: 10px&quot;&gt;Ex:&amp;nbsp;ConfigurationWarningsApplicationContextInitializer,&amp;nbsp;&lt;/font&gt;&lt;span style=&quot;font-family: &amp;#34;times new roman&amp;#34; ; color: rgb(51 , 51 , 51) ; text-align: center&quot;&gt;ApplicationContextInitializer&lt;/span&gt;&lt;/p&gt;&lt;p style=&quot;margin-top: 0pt ; margin-bottom: 0pt ; margin-left: 0in ; text-align: left ; direction: ltr ; unicode-bidi: embed ; word-break: normal ; font-size: 10px&quot;&gt;&lt;span style=&quot;font-family: &amp;#34;times new roman&amp;#34; ; color: rgb(51 , 51 , 51) ; text-align: center&quot;&gt;provides initialization customization for ApplicationContext&lt;/span&gt;&lt;/p&gt;" style="text;html=1;strokeColor=none;fillColor=none;align=center;verticalAlign=middle;whiteSpace=wrap;rounded=0;shadow=0;fontSize=8;" parent="1" vertex="1">
          <mxGeometry x="-5" y="340" width="570" height="20" as="geometry" />
        </mxCell>
        <mxCell id="tsBlAUJXxBQKcdKZZ9ZE-128" value="&lt;p style=&quot;margin-top: 0pt ; margin-bottom: 0pt ; margin-left: 0in ; text-align: left ; direction: ltr ; unicode-bidi: embed ; word-break: normal&quot;&gt;&lt;span style=&quot;font-family: &amp;#34;abadi&amp;#34;&quot;&gt;&lt;font style=&quot;font-size: 12px&quot;&gt;&lt;br&gt;&lt;/font&gt;&lt;/span&gt;&lt;/p&gt;&lt;p style=&quot;margin-top: 0pt ; margin-bottom: 0pt ; margin-left: 0in ; text-align: left ; direction: ltr ; unicode-bidi: embed ; word-break: normal&quot;&gt;&lt;font&gt;&lt;font face=&quot;abadi&quot;&gt;&lt;span style=&quot;font-size: 12px&quot;&gt;using spring.factories load all&amp;nbsp;&lt;/span&gt;&lt;/font&gt;&lt;/font&gt;&lt;font face=&quot;abadi&quot;&gt;&lt;span style=&quot;font-size: 12px&quot;&gt;listeners&lt;/span&gt;&lt;/font&gt;&lt;/p&gt;&lt;p style=&quot;margin-top: 0pt ; margin-bottom: 0pt ; margin-left: 0in ; text-align: left ; direction: ltr ; unicode-bidi: embed ; word-break: normal&quot;&gt;&lt;span style=&quot;font-family: &amp;#34;abadi&amp;#34;&quot;&gt;&lt;font style=&quot;font-size: 12px&quot;&gt;Ex: ConfigFileApplicationListener&lt;/font&gt;&lt;/span&gt;&lt;/p&gt;" style="text;html=1;strokeColor=none;fillColor=none;align=center;verticalAlign=middle;whiteSpace=wrap;rounded=0;shadow=0;fontSize=8;" parent="1" vertex="1">
          <mxGeometry x="240" y="480" width="230" height="20" as="geometry" />
        </mxCell>
        <mxCell id="tsBlAUJXxBQKcdKZZ9ZE-134" value="" style="edgeStyle=orthogonalEdgeStyle;rounded=0;orthogonalLoop=1;jettySize=auto;html=1;fontSize=8;fillColor=#fff2cc;strokeColor=#d6b656;" parent="1" source="tsBlAUJXxBQKcdKZZ9ZE-132" target="tsBlAUJXxBQKcdKZZ9ZE-128" edge="1">
          <mxGeometry relative="1" as="geometry">
            <Array as="points">
              <mxPoint x="360" y="440" />
            </Array>
          </mxGeometry>
        </mxCell>
        <mxCell id="tsBlAUJXxBQKcdKZZ9ZE-132" value="&lt;p style=&quot;margin-top: 0pt ; margin-bottom: 0pt ; margin-left: 0in ; text-align: left ; direction: ltr ; unicode-bidi: embed ; word-break: normal&quot;&gt;&lt;span style=&quot;font-size: 8pt ; font-family: &amp;#34;calibri&amp;#34;&quot;&gt;Create EventPublishingRunListener and add all listeners registered before&lt;/span&gt;&lt;/p&gt;" style="text;html=1;strokeColor=none;fillColor=none;align=center;verticalAlign=middle;whiteSpace=wrap;rounded=0;shadow=0;fontSize=8;" parent="1" vertex="1">
          <mxGeometry x="605" y="350" width="170" height="20" as="geometry" />
        </mxCell>
        <mxCell id="tsBlAUJXxBQKcdKZZ9ZE-136" value="access to the arguments that were used to run a SpringApplication and Create a corresponding&lt;br&gt;PropertySource" style="text;html=1;strokeColor=none;fillColor=none;align=center;verticalAlign=middle;whiteSpace=wrap;rounded=0;shadow=0;fontSize=8;" parent="1" vertex="1">
          <mxGeometry x="585" y="560" width="180" height="50" as="geometry" />
        </mxCell>
        <mxCell id="tsBlAUJXxBQKcdKZZ9ZE-141" value="&lt;p style=&quot;margin-top: 0pt; margin-bottom: 0pt; margin-left: 0in; text-align: left; direction: ltr; unicode-bidi: embed; word-break: normal; font-size: 12px;&quot;&gt;&lt;span style=&quot;font-size: 12px;&quot;&gt;&lt;font face=&quot;Times New Roman&quot; style=&quot;font-size: 12px;&quot;&gt;ConfigFileApplicationListener&lt;/font&gt;&lt;/span&gt;&lt;/p&gt;" style="text;html=1;strokeColor=none;fillColor=none;align=center;verticalAlign=middle;whiteSpace=wrap;rounded=0;shadow=0;fontSize=12;" parent="1" vertex="1">
          <mxGeometry x="1180" y="30" width="70" height="20" as="geometry" />
        </mxCell>
        <mxCell id="tsBlAUJXxBQKcdKZZ9ZE-142" value="&lt;span style=&quot;font-style: normal; font-weight: normal; letter-spacing: normal; text-indent: 0px; text-transform: none; word-spacing: 0px; text-decoration: none; font-size: 13px; color: black;&quot;&gt;PropertiesPropertySourceLoader&lt;/span&gt;&lt;span style=&quot;color: rgb(0, 0, 0); font-size: 13px; font-style: normal; font-weight: normal; letter-spacing: normal; text-indent: 0px; text-transform: none; word-spacing: 0px; text-decoration: none; display: inline; float: none;&quot;&gt;&lt;/span&gt;" style="text;whiteSpace=wrap;html=1;fontSize=13;fontFamily=Times New Roman;" parent="1" vertex="1">
          <mxGeometry x="1350" y="25" width="170" height="30" as="geometry" />
        </mxCell>
        <mxCell id="tsBlAUJXxBQKcdKZZ9ZE-145" value="add the loaded propertiySources&amp;nbsp;&lt;br&gt;to the environement (use the propertySources)" style="text;html=1;strokeColor=none;fillColor=none;align=center;verticalAlign=middle;whiteSpace=wrap;rounded=0;shadow=0;fontFamily=Times New Roman;fontSize=11;" parent="1" vertex="1">
          <mxGeometry x="962.5" y="1380" width="170" height="20" as="geometry" />
        </mxCell>
        <mxCell id="tsBlAUJXxBQKcdKZZ9ZE-147" value="&lt;div style=&quot;text-align: left&quot;&gt;&lt;font face=&quot;calibri&quot;&gt;&lt;span style=&quot;font-size: 12px&quot;&gt;Deduce the main Class By checking the location of the main method&lt;/span&gt;&lt;/font&gt;&lt;/div&gt;" style="text;html=1;strokeColor=none;fillColor=none;align=center;verticalAlign=middle;whiteSpace=wrap;rounded=0;shadow=0;fontSize=8;" parent="1" vertex="1">
          <mxGeometry x="320" y="620" width="150" height="50" as="geometry" />
        </mxCell>
        <mxCell id="tsBlAUJXxBQKcdKZZ9ZE-148" value="&lt;div style=&quot;text-align: left&quot;&gt;&lt;font face=&quot;calibri&quot;&gt;&lt;span style=&quot;font-size: 12px&quot;&gt;Environment ready, now send an ApplicationEnvironementPrepared&lt;/span&gt;&lt;/font&gt;&lt;/div&gt;&lt;div style=&quot;text-align: left&quot;&gt;&lt;font face=&quot;calibri&quot;&gt;&lt;span style=&quot;font-size: 12px&quot;&gt;to all concerned listenners&lt;/span&gt;&lt;/font&gt;&lt;/div&gt;" style="text;html=1;strokeColor=none;fillColor=none;align=center;verticalAlign=middle;whiteSpace=wrap;rounded=0;shadow=0;fontSize=8;" parent="1" vertex="1">
          <mxGeometry x="565" y="1220" width="210" height="50" as="geometry" />
        </mxCell>
        <mxCell id="tsBlAUJXxBQKcdKZZ9ZE-149" value="&lt;div style=&quot;text-align: left&quot;&gt;&lt;font face=&quot;calibri&quot;&gt;&lt;span style=&quot;font-size: 12px&quot;&gt;Bind the properties to the Spring Application Object&lt;/span&gt;&lt;/font&gt;&lt;/div&gt;" style="text;html=1;strokeColor=none;fillColor=none;align=center;verticalAlign=middle;whiteSpace=wrap;rounded=0;shadow=0;fontSize=8;" parent="1" vertex="1">
          <mxGeometry x="420" y="1260" width="300" height="50" as="geometry" />
        </mxCell>
        <mxCell id="tsBlAUJXxBQKcdKZZ9ZE-152" value="" style="edgeStyle=orthogonalEdgeStyle;rounded=0;orthogonalLoop=1;jettySize=auto;html=1;fontFamily=Times New Roman;fontSize=11;" parent="1" target="tsBlAUJXxBQKcdKZZ9ZE-74" edge="1">
          <mxGeometry relative="1" as="geometry">
            <mxPoint x="989" y="580" as="sourcePoint" />
            <Array as="points">
              <mxPoint x="989" y="570" />
              <mxPoint x="989" y="570" />
            </Array>
          </mxGeometry>
        </mxCell>
        <mxCell id="kll7W4Ml-uQDBgVJ0LRq-15" value="" style="edgeStyle=orthogonalEdgeStyle;rounded=0;orthogonalLoop=1;jettySize=auto;html=1;dashed=1;dashPattern=1 2;fontSize=10;" edge="1" parent="1" target="tsBlAUJXxBQKcdKZZ9ZE-74">
          <mxGeometry relative="1" as="geometry">
            <mxPoint x="989" y="560" as="sourcePoint" />
          </mxGeometry>
        </mxCell>
        <mxCell id="tsBlAUJXxBQKcdKZZ9ZE-150" value="&lt;font&gt;we inform listeners one by one.&lt;br&gt;For illustration purpose, I use&amp;nbsp;&lt;span style=&quot;text-align: left&quot;&gt;ConfigFileApplicationListener&lt;br&gt;&lt;br&gt;The event type here is EnvironementPrepared Event as the&amp;nbsp;environment is now ready, before it was StartingEvent type&lt;br&gt;&lt;/span&gt;&lt;/font&gt;" style="text;html=1;strokeColor=none;fillColor=none;align=center;verticalAlign=middle;whiteSpace=wrap;rounded=0;shadow=0;fontFamily=Times New Roman;fontSize=11;" parent="1" vertex="1">
          <mxGeometry x="910" y="630" width="160" height="10" as="geometry" />
        </mxCell>
        <mxCell id="tsBlAUJXxBQKcdKZZ9ZE-153" value="we &amp;nbsp;read active profile and push it into loading list" style="text;html=1;strokeColor=none;fillColor=none;align=center;verticalAlign=middle;whiteSpace=wrap;rounded=0;shadow=0;fontFamily=Times New Roman;fontSize=11;" parent="1" vertex="1">
          <mxGeometry x="1090" y="470" width="110" height="10" as="geometry" />
        </mxCell>
        <mxCell id="tsBlAUJXxBQKcdKZZ9ZE-155" value="&lt;pre style=&quot;font-family: &amp;#34;jetbrains mono&amp;#34; , monospace&quot;&gt;&lt;span style=&quot;font-style: italic ; background-color: rgb(255 , 255 , 255)&quot;&gt;&lt;font style=&quot;font-size: 8px&quot;&gt;Loads candidate property sources&lt;/font&gt;&lt;/span&gt;&lt;span style=&quot;font-size: 8px ; font-style: italic ; background-color: rgb(255 , 255 , 255) ; white-space: normal&quot;&gt;&amp;nbsp;and configures the active profiles&lt;/span&gt;&lt;/pre&gt;" style="text;html=1;strokeColor=none;fillColor=none;align=center;verticalAlign=middle;whiteSpace=wrap;rounded=0;shadow=0;fontFamily=Times New Roman;fontSize=11;" parent="1" vertex="1">
          <mxGeometry x="1090" y="350" width="130" height="10" as="geometry" />
        </mxCell>
        <mxCell id="tsBlAUJXxBQKcdKZZ9ZE-175" value="" style="edgeStyle=orthogonalEdgeStyle;rounded=0;orthogonalLoop=1;jettySize=auto;html=1;fontFamily=Times New Roman;fontSize=11;fontColor=#000000;" parent="1" source="tsBlAUJXxBQKcdKZZ9ZE-159" edge="1">
          <mxGeometry relative="1" as="geometry">
            <mxPoint x="770" y="1250" as="targetPoint" />
          </mxGeometry>
        </mxCell>
        <mxCell id="tsBlAUJXxBQKcdKZZ9ZE-159" value="environmentPrepared" style="shape=umlLifeline;perimeter=lifelinePerimeter;container=1;collapsible=0;recursiveResize=0;rounded=0;shadow=0;strokeWidth=1;fontSize=10;" parent="1" vertex="1">
          <mxGeometry x="700" y="1210" width="140" height="30" as="geometry" />
        </mxCell>
        <mxCell id="tsBlAUJXxBQKcdKZZ9ZE-162" value="@author = Mouad Kondah" style="text;html=1;strokeColor=none;fillColor=none;align=center;verticalAlign=middle;whiteSpace=wrap;rounded=0;shadow=0;fontFamily=Times New Roman;fontSize=11;" parent="1" vertex="1">
          <mxGeometry x="10" y="10" width="150" height="20" as="geometry" />
        </mxCell>
        <mxCell id="tsBlAUJXxBQKcdKZZ9ZE-163" value="record the starting time of the application" style="text;html=1;strokeColor=none;fillColor=none;align=center;verticalAlign=middle;whiteSpace=wrap;rounded=0;shadow=0;fontFamily=Times New Roman;fontSize=11;" parent="1" vertex="1">
          <mxGeometry x="600" y="140" width="160" height="20" as="geometry" />
        </mxCell>
        <mxCell id="tsBlAUJXxBQKcdKZZ9ZE-164" value="&lt;span style=&quot;color: rgb(51 , 51 , 51) ; font-size: 14px ; background-color: rgb(246 , 246 , 246)&quot;&gt;Configure the Headless mode, which can be used when the system may lack peripheral devices such as display device, keyboard or mouse&lt;/span&gt;https://www.oracle.com/technical-resources/articles/javase/headless.html&lt;span style=&quot;color: rgb(36 , 39 , 41) ; font-family: &amp;#34;arial&amp;#34; , &amp;#34;helvetica neue&amp;#34; , &amp;#34;helvetica&amp;#34; , sans-serif ; font-size: 15px ; text-align: left ; background-color: rgb(255 , 255 , 255)&quot;&gt;&lt;br&gt;&lt;/span&gt;" style="text;html=1;strokeColor=none;fillColor=none;align=center;verticalAlign=middle;whiteSpace=wrap;rounded=0;shadow=0;fontFamily=Times New Roman;fontSize=11;" parent="1" vertex="1">
          <mxGeometry x="595" y="230" width="335" height="20" as="geometry" />
        </mxCell>
        <mxCell id="tsBlAUJXxBQKcdKZZ9ZE-165" value="&lt;p style=&quot;margin-top: 0pt ; margin-bottom: 0pt ; margin-left: 0in ; text-align: left ; direction: ltr ; unicode-bidi: embed ; word-break: normal&quot;&gt;&lt;font face=&quot;calibri&quot; size=&quot;1&quot;&gt;Send&amp;nbsp;starting event to all concerned&amp;nbsp;&lt;/font&gt;&lt;/p&gt;&lt;p style=&quot;margin-top: 0pt ; margin-bottom: 0pt ; margin-left: 0in ; text-align: left ; direction: ltr ; unicode-bidi: embed ; word-break: normal&quot;&gt;&lt;font face=&quot;calibri&quot; size=&quot;1&quot;&gt;listeners&amp;nbsp;&lt;/font&gt;&lt;/p&gt;" style="text;html=1;strokeColor=none;fillColor=none;align=center;verticalAlign=middle;whiteSpace=wrap;rounded=0;shadow=0;fontSize=8;" parent="1" vertex="1">
          <mxGeometry x="605" y="480" width="170" height="20" as="geometry" />
        </mxCell>
        <mxCell id="tsBlAUJXxBQKcdKZZ9ZE-166" value="&lt;div style=&quot;text-align: left&quot;&gt;&lt;font face=&quot;calibri&quot;&gt;&lt;span style=&quot;font-size: 12px&quot;&gt;create appropriate environment or get it if&amp;nbsp;&lt;/span&gt;&lt;/font&gt;&lt;/div&gt;&lt;div style=&quot;text-align: left&quot;&gt;&lt;font face=&quot;calibri&quot;&gt;&lt;span style=&quot;font-size: 12px&quot;&gt;already created&lt;/span&gt;&lt;/font&gt;&lt;/div&gt;" style="text;html=1;strokeColor=none;fillColor=none;align=center;verticalAlign=middle;whiteSpace=wrap;rounded=0;shadow=0;fontSize=8;" parent="1" vertex="1">
          <mxGeometry x="502.5" y="770" width="285" height="50" as="geometry" />
        </mxCell>
        <mxCell id="tsBlAUJXxBQKcdKZZ9ZE-167" value="&lt;font style=&quot;font-size: 7px&quot;&gt;Add conversionService(&lt;span style=&quot;color: rgb(71 , 71 , 71) ; font-family: &amp;#34;dejavu serif&amp;#34; , &amp;#34;georgia&amp;#34; , &amp;#34;times new roman&amp;#34; , &amp;#34;times&amp;#34; , serif ; text-align: left ; background-color: rgb(255 , 255 , 255)&quot;&gt;&amp;nbsp;for type conversion&lt;/span&gt;&lt;br&gt;&lt;/font&gt;) and delegates to configurePropertySources and&amp;nbsp;&lt;br&gt;configureProfiles" style="text;html=1;strokeColor=none;fillColor=none;align=center;verticalAlign=middle;whiteSpace=wrap;rounded=0;shadow=0;fontSize=8;" parent="1" vertex="1">
          <mxGeometry x="620" y="880" width="120" height="50" as="geometry" />
        </mxCell>
        <mxCell id="tsBlAUJXxBQKcdKZZ9ZE-168" value="configureProfiles" style="shape=umlLifeline;perimeter=lifelinePerimeter;container=1;collapsible=0;recursiveResize=0;rounded=0;shadow=0;strokeWidth=1;fontSize=10;size=20;" parent="1" vertex="1">
          <mxGeometry x="700" y="1080" width="140" height="100" as="geometry" />
        </mxCell>
        <mxCell id="tsBlAUJXxBQKcdKZZ9ZE-170" value="configurePropertySources" style="shape=umlLifeline;perimeter=lifelinePerimeter;container=1;collapsible=0;recursiveResize=0;rounded=0;shadow=0;strokeWidth=1;fontSize=10;size=20;" parent="1" vertex="1">
          <mxGeometry x="700" y="1010" width="140" height="70" as="geometry" />
        </mxCell>
        <mxCell id="tsBlAUJXxBQKcdKZZ9ZE-177" value="&lt;span style=&quot;color: inherit ; font-family: &amp;#34;menlo&amp;#34; , &amp;#34;monaco&amp;#34; , &amp;#34;consolas&amp;#34; , &amp;#34;liberation mono&amp;#34; , &amp;#34;courier new&amp;#34; , monospace ; font-size: inherit ; background-color: transparent&quot;&gt;If main Default parameters or command line parameters are set at startup , Write to environment in&amp;nbsp;&lt;/span&gt;&lt;span style=&quot;text-align: left&quot;&gt;&lt;font face=&quot;calibri&quot;&gt;&lt;span style=&quot;font-size: 12px&quot;&gt;Add defaultProperties and SimpleCommandLinePropertySource&amp;nbsp;&lt;/span&gt;&lt;/font&gt;&lt;br&gt;&lt;font face=&quot;calibri&quot;&gt;&lt;span style=&quot;font-size: 12px&quot;&gt;to Current&amp;nbsp;environment&lt;br&gt;&lt;/span&gt;&lt;/font&gt;&lt;/span&gt;&lt;span style=&quot;color: rgb(45 , 45 , 45) ; font-family: &amp;#34;helvetica neue&amp;#34; , &amp;#34;helvetica&amp;#34; , &amp;#34;arial&amp;#34; , sans-serif ; font-size: 14px&quot;&gt;&amp;nbsp;if there are defaultProperties at present. If there are any, they must not. Next, we will judge whether there are args variables at present. If there are some, we will create a SimpleCommandLinePropertySource.&lt;/span&gt;&lt;span style=&quot;text-align: left&quot;&gt;&lt;br&gt;&lt;/span&gt;" style="text;html=1;strokeColor=none;fillColor=none;align=center;verticalAlign=middle;whiteSpace=wrap;rounded=0;shadow=0;fontFamily=Times New Roman;fontSize=11;fontColor=#000000;" parent="1" vertex="1">
          <mxGeometry x="450" y="980" width="225" height="20" as="geometry" />
        </mxCell>
        <mxCell id="tsBlAUJXxBQKcdKZZ9ZE-181" value="Add active profiles to current Environmen&lt;br&gt;&lt;p style=&quot;margin: 0px ; font-stretch: normal ; font-size: 14px ; line-height: normal ; font-family: &amp;#34;helvetica neue&amp;#34; ; color: rgb(38 , 38 , 38)&quot;&gt;&lt;span&gt;configure the currently active profiles, Change the current activeProfiles Set to enviroment in&amp;nbsp;&lt;/span&gt;&lt;/p&gt;t&amp;nbsp;" style="text;html=1;strokeColor=none;fillColor=none;align=center;verticalAlign=middle;whiteSpace=wrap;rounded=0;shadow=0;fontFamily=Times New Roman;fontSize=11;fontColor=#000000;" parent="1" vertex="1">
          <mxGeometry x="537.5" y="1110" width="115" height="20" as="geometry" />
        </mxCell>
        <mxCell id="kll7W4Ml-uQDBgVJ0LRq-16" value="" style="edgeStyle=orthogonalEdgeStyle;rounded=0;orthogonalLoop=1;jettySize=auto;html=1;dashed=1;dashPattern=1 2;fontSize=10;" edge="1" parent="1" source="tsBlAUJXxBQKcdKZZ9ZE-186" target="tsBlAUJXxBQKcdKZZ9ZE-70">
          <mxGeometry relative="1" as="geometry" />
        </mxCell>
        <mxCell id="tsBlAUJXxBQKcdKZZ9ZE-186" value="&lt;pre&gt;&lt;font face=&quot;Helvetica&quot;&gt;&lt;i&gt;goal : config file property sources t&lt;/i&gt;&lt;/font&gt;&lt;span style=&quot;font-family: &amp;#34;helvetica&amp;#34; ; font-style: italic ; white-space: normal&quot;&gt;o thespecified environment&lt;/span&gt;&lt;/pre&gt;" style="text;html=1;strokeColor=none;fillColor=none;align=center;verticalAlign=middle;whiteSpace=wrap;rounded=0;shadow=0;labelBackgroundColor=none;fontFamily=Times New Roman;fontSize=11;fontColor=#000000;" parent="1" vertex="1">
          <mxGeometry x="1132.5" y="240" width="25" height="10" as="geometry" />
        </mxCell>
        <mxCell id="tsBlAUJXxBQKcdKZZ9ZE-190" value="now we have a profile&amp;nbsp;&lt;br&gt;we look for possible location and names of the config files" style="text;html=1;strokeColor=none;fillColor=none;align=center;verticalAlign=middle;whiteSpace=wrap;rounded=0;shadow=0;fontFamily=Times New Roman;fontSize=11;" parent="1" vertex="1">
          <mxGeometry x="1090" y="680" width="110" height="10" as="geometry" />
        </mxCell>
        <mxCell id="tsBlAUJXxBQKcdKZZ9ZE-193" value="we have a profile, a location, a name so we delegates to loadWithLoader to try all possible loader to parse the file" style="text;html=1;strokeColor=none;fillColor=none;align=center;verticalAlign=middle;whiteSpace=wrap;rounded=0;shadow=0;fontFamily=Times New Roman;fontSize=11;" parent="1" vertex="1">
          <mxGeometry x="1050" y="1010" width="110" height="10" as="geometry" />
        </mxCell>
        <mxCell id="tsBlAUJXxBQKcdKZZ9ZE-195" value="before feeding that to loader we still need to find the exact ressource in the given location we need to look for the&amp;nbsp;&lt;br&gt;Extension of the files in order to process them with the correct loader, at that moment we know the location but not the exact file&amp;nbsp;" style="text;html=1;strokeColor=none;fillColor=none;align=center;verticalAlign=middle;whiteSpace=wrap;rounded=0;shadow=0;fontFamily=Times New Roman;fontSize=11;" parent="1" vertex="1">
          <mxGeometry x="1030" y="1125" width="110" height="10" as="geometry" />
        </mxCell>
        <mxCell id="tsBlAUJXxBQKcdKZZ9ZE-196" value="loading the file and start&lt;br&gt;parsing" style="text;html=1;strokeColor=none;fillColor=none;align=center;verticalAlign=middle;whiteSpace=wrap;rounded=0;shadow=0;fontFamily=Times New Roman;fontSize=11;" parent="1" vertex="1">
          <mxGeometry x="1320" y="350" width="130" height="10" as="geometry" />
        </mxCell>
        <mxCell id="tsBlAUJXxBQKcdKZZ9ZE-198" value="we use a reader&lt;br&gt;&amp;nbsp;pointer to keep track&lt;br&gt;of the position" style="text;html=1;strokeColor=none;fillColor=none;align=center;verticalAlign=middle;whiteSpace=wrap;rounded=0;shadow=0;fontFamily=Times New Roman;fontSize=11;" parent="1" vertex="1">
          <mxGeometry x="1320" y="460" width="130" height="10" as="geometry" />
        </mxCell>
        <mxCell id="tsBlAUJXxBQKcdKZZ9ZE-201" value="" style="edgeStyle=elbowEdgeStyle;elbow=horizontal;endArrow=classic;html=1;fontSize=8;" parent="1" edge="1">
          <mxGeometry width="50" height="50" relative="1" as="geometry">
            <mxPoint x="1340" y="290" as="sourcePoint" />
            <mxPoint x="1280" y="1300" as="targetPoint" />
            <Array as="points">
              <mxPoint x="1330" y="1519" />
            </Array>
          </mxGeometry>
        </mxCell>
        <mxCell id="re0cYNCFHm8Mw9xyEB3N-9" value="PrepareEnvironment&amp;nbsp;" style="text;html=1;strokeColor=none;fillColor=none;align=center;verticalAlign=middle;whiteSpace=wrap;rounded=0;dashed=1;dashPattern=1 2;" vertex="1" parent="1">
          <mxGeometry x="600" y="680" width="150" height="20" as="geometry" />
        </mxCell>
        <mxCell id="re0cYNCFHm8Mw9xyEB3N-10" value="mutlicast&lt;br&gt;to listeners" style="text;html=1;strokeColor=none;fillColor=none;align=center;verticalAlign=middle;whiteSpace=wrap;rounded=0;dashed=1;dashPattern=1 2;" vertex="1" parent="1">
          <mxGeometry x="870" y="130" width="160" height="20" as="geometry" />
        </mxCell>
        <mxCell id="re0cYNCFHm8Mw9xyEB3N-13" value="profile in hand, delegates to LoadWithProfile" style="text;html=1;strokeColor=none;fillColor=none;align=center;verticalAlign=middle;whiteSpace=wrap;rounded=0;shadow=0;fontFamily=Times New Roman;fontSize=11;" vertex="1" parent="1">
          <mxGeometry x="1100" y="570" width="110" as="geometry" />
        </mxCell>
        <mxCell id="re0cYNCFHm8Mw9xyEB3N-15" value="we have a location now so delegates do LoadWithLocation" style="text;html=1;strokeColor=none;fillColor=none;align=center;verticalAlign=middle;whiteSpace=wrap;rounded=0;dashed=1;dashPattern=1 2;" vertex="1" parent="1">
          <mxGeometry x="1080" y="870" width="110" height="20" as="geometry" />
        </mxCell>
        <mxCell id="re0cYNCFHm8Mw9xyEB3N-16" value="now start really loading the ressource &amp;nbsp;as we have the file to process and we&amp;nbsp;&lt;br&gt;know the loader to use&amp;nbsp;" style="text;html=1;strokeColor=none;fillColor=none;align=center;verticalAlign=middle;whiteSpace=wrap;rounded=0;shadow=0;fontFamily=Times New Roman;fontSize=11;" vertex="1" parent="1">
          <mxGeometry x="1020" y="1250" width="170" height="20" as="geometry" />
        </mxCell>
        <mxCell id="re0cYNCFHm8Mw9xyEB3N-17" value="&lt;pre style=&quot;font-style: normal ; font-weight: normal ; letter-spacing: normal ; text-indent: 0px ; text-transform: none ; word-spacing: 0px ; text-decoration: none ; background-color: rgb(43 , 43 , 43) ; color: rgb(169 , 183 , 198) ; font-family: &amp;quot;jetbrains mono&amp;quot; , monospace&quot;&gt; List&amp;lt;PropertySource&amp;lt;?&amp;gt;&amp;gt;&lt;/pre&gt;" style="text;whiteSpace=wrap;html=1;" vertex="1" parent="1">
          <mxGeometry x="1380" y="1080" width="200" height="50" as="geometry" />
        </mxCell>
        <mxCell id="re0cYNCFHm8Mw9xyEB3N-19" value="" style="endArrow=classic;html=1;dashed=1;dashPattern=1 2;entryX=0.991;entryY=1.19;entryDx=0;entryDy=0;entryPerimeter=0;" edge="1" parent="1" target="tsBlAUJXxBQKcdKZZ9ZE-107">
          <mxGeometry width="50" height="50" relative="1" as="geometry">
            <mxPoint x="1500" y="300" as="sourcePoint" />
            <mxPoint x="1550" y="250" as="targetPoint" />
          </mxGeometry>
        </mxCell>
        <mxCell id="re0cYNCFHm8Mw9xyEB3N-20" value="&lt;div&gt;return properties&lt;/div&gt;&lt;div&gt;as a map&amp;nbsp;&lt;/div&gt;" style="text;html=1;strokeColor=none;fillColor=none;align=center;verticalAlign=middle;whiteSpace=wrap;rounded=0;dashed=1;dashPattern=1 2;" vertex="1" parent="1">
          <mxGeometry x="1480" y="240" width="140" height="20" as="geometry" />
        </mxCell>
        <mxCell id="re0cYNCFHm8Mw9xyEB3N-22" value="&lt;div&gt;add the loaded key value pair to the map&amp;nbsp;&lt;/div&gt;" style="text;html=1;strokeColor=none;fillColor=none;align=center;verticalAlign=middle;whiteSpace=wrap;rounded=0;dashed=1;dashPattern=1 2;" vertex="1" parent="1">
          <mxGeometry x="1530" y="430" width="140" height="20" as="geometry" />
        </mxCell>
        <mxCell id="re0cYNCFHm8Mw9xyEB3N-25" value="" style="endArrow=classic;html=1;dashed=1;dashPattern=1 2;entryX=-0.009;entryY=0.476;entryDx=0;entryDy=0;entryPerimeter=0;" edge="1" parent="1" target="tsBlAUJXxBQKcdKZZ9ZE-115">
          <mxGeometry width="50" height="50" relative="1" as="geometry">
            <mxPoint x="1500" y="515" as="sourcePoint" />
            <mxPoint x="1550" y="465" as="targetPoint" />
          </mxGeometry>
        </mxCell>
        <mxCell id="re0cYNCFHm8Mw9xyEB3N-26" value="" style="endArrow=classic;html=1;dashed=1;dashPattern=1 2;" edge="1" parent="1">
          <mxGeometry width="50" height="50" relative="1" as="geometry">
            <mxPoint x="1560" y="500" as="sourcePoint" />
            <mxPoint x="1500" y="430" as="targetPoint" />
          </mxGeometry>
        </mxCell>
        <mxCell id="re0cYNCFHm8Mw9xyEB3N-29" value="&lt;pre style=&quot;font-style: normal ; font-weight: normal ; letter-spacing: normal ; text-indent: 0px ; text-transform: none ; word-spacing: 0px ; text-decoration: none ; background-color: rgb(43 , 43 , 43) ; color: rgb(169 , 183 , 198) ; font-family: &amp;#34;jetbrains mono&amp;#34; , monospace ; font-size: 9px&quot;&gt;OriginTrackedValue value = loadValue(buffer&lt;span style=&quot;color: rgb(204 , 120 , 50)&quot;&gt;, &lt;/span&gt;reader&lt;span style=&quot;color: rgb(204 , 120 , 50)&quot;&gt;, false&lt;/span&gt;)&lt;span style=&quot;color: rgb(204 , 120 , 50)&quot;&gt;;&lt;br&gt;&lt;/span&gt;put(result&lt;span style=&quot;color: rgb(204 , 120 , 50)&quot;&gt;, &lt;/span&gt;key&lt;span style=&quot;color: rgb(204 , 120 , 50)&quot;&gt;, &lt;/span&gt;value)&lt;span style=&quot;color: rgb(204 , 120 , 50)&quot;&gt;;&lt;/span&gt;&lt;/pre&gt;" style="text;whiteSpace=wrap;html=1;" vertex="1" parent="1">
          <mxGeometry x="1510" y="380" width="270" height="40" as="geometry" />
        </mxCell>
        <mxCell id="re0cYNCFHm8Mw9xyEB3N-31" value="&lt;pre style=&quot;font-style: normal ; font-weight: normal ; letter-spacing: normal ; text-indent: 0px ; text-transform: none ; word-spacing: 0px ; text-decoration: none ; background-color: rgb(43 , 43 , 43) ; color: rgb(169 , 183 , 198) ; font-family: &amp;#34;jetbrains mono&amp;#34; , monospace ; font-size: 7px&quot;&gt;&lt;span style=&quot;color: rgb(204 , 120 , 50)&quot;&gt;private &lt;/span&gt;Map&amp;lt;String&lt;span style=&quot;color: rgb(204 , 120 , 50)&quot;&gt;, &lt;/span&gt;?&amp;gt; &lt;span style=&quot;color: rgb(255 , 198 , 109)&quot;&gt;loadProperties&lt;/span&gt;(Resource resource) &lt;span style=&quot;color: rgb(204 , 120 , 50)&quot;&gt;throws &lt;/span&gt;IOException {&lt;/pre&gt;" style="text;whiteSpace=wrap;html=1;" vertex="1" parent="1">
          <mxGeometry x="1510" y="280" width="550" height="50" as="geometry" />
        </mxCell>
        <mxCell id="re0cYNCFHm8Mw9xyEB3N-32" value="&lt;pre style=&quot;font-style: normal ; font-weight: normal ; letter-spacing: normal ; text-indent: 0px ; text-transform: none ; word-spacing: 0px ; text-decoration: none ; background-color: rgb(43 , 43 , 43) ; color: rgb(169 , 183 , 198) ; font-family: &amp;#34;jetbrains mono&amp;#34; , monospace ; font-size: 8px&quot;&gt;&lt;span style=&quot;color: rgb(204 , 120 , 50)&quot;&gt;public &lt;/span&gt;List&amp;lt;PropertySource&amp;lt;?&amp;gt;&amp;gt; &lt;span style=&quot;color: rgb(255 , 198 , 109)&quot;&gt;load&lt;/span&gt;(String name&lt;span style=&quot;color: rgb(204 , 120 , 50)&quot;&gt;, &lt;/span&gt;Resource resource) &lt;span style=&quot;color: rgb(204 , 120 , 50)&quot;&gt;throws &lt;/span&gt;IOException {&lt;/pre&gt;" style="text;whiteSpace=wrap;html=1;" vertex="1" parent="1">
          <mxGeometry x="1430" y="140" width="550" height="50" as="geometry" />
        </mxCell>
        <mxCell id="re0cYNCFHm8Mw9xyEB3N-33" value="&lt;pre style=&quot;font-style: normal ; font-weight: normal ; letter-spacing: normal ; text-indent: 0px ; text-transform: none ; word-spacing: 0px ; text-decoration: none ; background-color: rgb(43 , 43 , 43) ; color: rgb(169 , 183 , 198) ; font-family: &amp;#34;jetbrains mono&amp;#34; , monospace ; font-size: 7px&quot;&gt;&lt;span style=&quot;color: rgb(204 , 120 , 50)&quot;&gt;public class &lt;/span&gt;PropertiesPropertySourceLoader &lt;span style=&quot;color: rgb(204 , 120 , 50)&quot;&gt;implements &lt;/span&gt;PropertySourceLoader&lt;/pre&gt;" style="text;whiteSpace=wrap;html=1;" vertex="1" parent="1">
          <mxGeometry x="1340" y="5" width="550" height="50" as="geometry" />
        </mxCell>
        <mxCell id="re0cYNCFHm8Mw9xyEB3N-34" value="" style="endArrow=classic;html=1;dashed=1;dashPattern=1 2;entryX=0.991;entryY=1.19;entryDx=0;entryDy=0;entryPerimeter=0;" edge="1" parent="1">
          <mxGeometry width="50" height="50" relative="1" as="geometry">
            <mxPoint x="1529" y="140" as="sourcePoint" />
            <mxPoint x="1528.74" y="75.70000000000005" as="targetPoint" />
          </mxGeometry>
        </mxCell>
        <mxCell id="re0cYNCFHm8Mw9xyEB3N-35" value="return SingletonList of&amp;nbsp;PropertySource" style="text;html=1;strokeColor=none;fillColor=none;align=center;verticalAlign=middle;whiteSpace=wrap;rounded=0;dashed=1;dashPattern=1 2;" vertex="1" parent="1">
          <mxGeometry x="1500" y="110" width="190" height="20" as="geometry" />
        </mxCell>
        <mxCell id="re0cYNCFHm8Mw9xyEB3N-36" value="&lt;font style=&quot;font-size: 6px&quot;&gt;Once the propertySource&lt;br&gt;loaded it will be injected&lt;br&gt;into a document and will be consumed by the DocumentConsumer and added to the propertyList&lt;/font&gt;" style="text;html=1;strokeColor=none;fillColor=none;align=center;verticalAlign=middle;whiteSpace=wrap;rounded=0;dashed=1;dashPattern=1 2;" vertex="1" parent="1">
          <mxGeometry x="1320" y="1200" width="160" height="20" as="geometry" />
        </mxCell>
        <mxCell id="re0cYNCFHm8Mw9xyEB3N-42" value="&lt;pre style=&quot;font-style: normal ; font-weight: normal ; letter-spacing: normal ; text-indent: 0px ; text-transform: none ; word-spacing: 0px ; text-decoration: none ; background-color: rgb(43 , 43 , 43) ; color: rgb(169 , 183 , 198) ; font-family: &amp;#34;jetbrains mono&amp;#34; , monospace ; font-size: 5px&quot;&gt;&lt;span style=&quot;color: rgb(204 , 120 , 50)&quot;&gt;public void &lt;/span&gt;&lt;span style=&quot;color: rgb(255 , 198 , 109)&quot;&gt;addLast&lt;/span&gt;(PropertySource&amp;lt;?&amp;gt; propertySource) {&lt;br&gt; &lt;span style=&quot;color: rgb(204 , 120 , 50)&quot;&gt;synchronized &lt;/span&gt;(&lt;span style=&quot;color: rgb(204 , 120 , 50)&quot;&gt;this&lt;/span&gt;.&lt;span style=&quot;color: rgb(152 , 118 , 170)&quot;&gt;propertySourceList&lt;/span&gt;) {&lt;br&gt;  removeIfPresent(propertySource)&lt;span style=&quot;color: rgb(204 , 120 , 50)&quot;&gt;;&lt;br&gt;&lt;/span&gt;&lt;span style=&quot;color: rgb(204 , 120 , 50)&quot;&gt;  this&lt;/span&gt;.&lt;span style=&quot;color: rgb(152 , 118 , 170)&quot;&gt;propertySourceList&lt;/span&gt;.add(propertySource)&lt;span style=&quot;color: rgb(204 , 120 , 50)&quot;&gt;;&lt;br&gt;&lt;/span&gt;&lt;span style=&quot;color: rgb(204 , 120 , 50)&quot;&gt; &lt;/span&gt;}&lt;br&gt;}&lt;/pre&gt;" style="text;whiteSpace=wrap;html=1;" vertex="1" parent="1">
          <mxGeometry x="1435" y="1430" width="420" height="145" as="geometry" />
        </mxCell>
        <mxCell id="kll7W4Ml-uQDBgVJ0LRq-3" value="" style="endArrow=classic;html=1;dashed=1;dashPattern=1 2;" edge="1" parent="1">
          <mxGeometry width="50" height="50" relative="1" as="geometry">
            <mxPoint x="1360" y="1270" as="sourcePoint" />
            <mxPoint x="1390" y="1350" as="targetPoint" />
          </mxGeometry>
        </mxCell>
        <mxCell id="kll7W4Ml-uQDBgVJ0LRq-4" value="&lt;pre style=&quot;font-style: normal ; font-weight: normal ; letter-spacing: normal ; text-indent: 0px ; text-transform: none ; word-spacing: 0px ; text-decoration: none ; background-color: rgb(43 , 43 , 43) ; color: rgb(169 , 183 , 198) ; font-family: &amp;#34;jetbrains mono&amp;#34; , monospace ; font-size: 5px&quot;&gt;&lt;span style=&quot;color: rgb(204 , 120 , 50)&quot;&gt;private void &lt;/span&gt;&lt;span style=&quot;color: rgb(255 , 198 , 109)&quot;&gt;addLoadedPropertySource&lt;/span&gt;(MutablePropertySources destination&lt;span style=&quot;color: rgb(204 , 120 , 50)&quot;&gt;, &lt;/span&gt;String lastAdded&lt;span style=&quot;color: rgb(204 , 120 , 50)&quot;&gt;,&lt;br&gt;&lt;/span&gt;&lt;span style=&quot;color: rgb(204 , 120 , 50)&quot;&gt;  &lt;/span&gt;PropertySource&amp;lt;?&amp;gt; source) {&lt;br&gt; &lt;span style=&quot;color: rgb(204 , 120 , 50)&quot;&gt;if &lt;/span&gt;(lastAdded == &lt;span style=&quot;color: rgb(204 , 120 , 50)&quot;&gt;null&lt;/span&gt;) {&lt;br&gt;  &lt;span style=&quot;color: rgb(204 , 120 , 50)&quot;&gt;if &lt;/span&gt;(destination.contains(&lt;span style=&quot;color: rgb(152 , 118 , 170) ; font-style: italic&quot;&gt;DEFAULT_PROPERTIES&lt;/span&gt;)) {&lt;br&gt;   destination.addBefore(&lt;span style=&quot;color: rgb(152 , 118 , 170) ; font-style: italic&quot;&gt;DEFAULT_PROPERTIES&lt;/span&gt;&lt;span style=&quot;color: rgb(204 , 120 , 50)&quot;&gt;, &lt;/span&gt;source)&lt;span style=&quot;color: rgb(204 , 120 , 50)&quot;&gt;;&lt;br&gt;&lt;/span&gt;&lt;span style=&quot;color: rgb(204 , 120 , 50)&quot;&gt;  &lt;/span&gt;}&lt;br&gt;  &lt;span style=&quot;color: rgb(204 , 120 , 50)&quot;&gt;else &lt;/span&gt;{&lt;br&gt;   destination.addLast(source)&lt;span style=&quot;color: rgb(204 , 120 , 50)&quot;&gt;;&lt;br&gt;&lt;/span&gt;&lt;span style=&quot;color: rgb(204 , 120 , 50)&quot;&gt;  &lt;/span&gt;}&lt;br&gt; }&lt;br&gt; &lt;span style=&quot;color: rgb(204 , 120 , 50)&quot;&gt;else &lt;/span&gt;{&lt;br&gt;  destination.addAfter(lastAdded&lt;span style=&quot;color: rgb(204 , 120 , 50)&quot;&gt;, &lt;/span&gt;source)&lt;span style=&quot;color: rgb(204 , 120 , 50)&quot;&gt;;&lt;br&gt;&lt;/span&gt;&lt;span style=&quot;color: rgb(204 , 120 , 50)&quot;&gt; &lt;/span&gt;}&lt;br&gt;}&lt;/pre&gt;" style="text;whiteSpace=wrap;html=1;" vertex="1" parent="1">
          <mxGeometry x="1080" y="1000" width="290" height="240" as="geometry" />
        </mxCell>
        <mxCell id="kll7W4Ml-uQDBgVJ0LRq-6" value="" style="shape=image;verticalLabelPosition=bottom;labelBackgroundColor=#ffffff;verticalAlign=top;aspect=fixed;imageAspect=0;image=data:image/png,iVBORw0KGgoAAAANSUhEUgAAAYgAAAA4CAYAAADn/m/nAAABJ2lDQ1BrQ0dDb2xvclNwYWNlQWRvYmVSR0IxOTk4AAAokWNgYFJILCjIYRJgYMjNKykKcndSiIiMUmB/ysDMIMnAyyDKIJaYXFzgGBDgwwAEMBoVfLvGwAiiL+uCzMKUxwu4UlKLk4H0HyDOTi4oKmFgYMwAspXLSwpA7B4gWyQpG8xeAGIXAR0IZG8BsdMh7BNgNRD2HbCakCBnIPsDkM2XBGYzgeziS4ewBUBsqL0gIOiYkp+UqgDyvYahpaWFJol+IAhKUitKQLRzfkFlUWZ6RomCIzCkUhU885L1dBSMDIwMGRhA4Q5R/TkQHJ6MYmcQYgiAEJsjwcDgv5SBgeUPQsykl4FhgQ4DA/9UhJga0HQBfQaGfXOSS4vKoMYwMhkzMBDiAwAOR0pMZV63WQAAAIplWElmTU0AKgAAAAgABAEaAAUAAAABAAAAPgEbAAUAAAABAAAARgEoAAMAAAABAAIAAIdpAAQAAAABAAAATgAAAAAAAACQAAAAAQAAAJAAAAABAAOShgAHAAAAEgAAAHigAgAEAAAAAQAAAYigAwAEAAAAAQAAADgAAAAAQVNDSUkAAABTY3JlZW5zaG90kzRMSwAAAAlwSFlzAAAWJQAAFiUBSVIk8AAAAdVpVFh0WE1MOmNvbS5hZG9iZS54bXAAAAAAADx4OnhtcG1ldGEgeG1sbnM6eD0iYWRvYmU6bnM6bWV0YS8iIHg6eG1wdGs9IlhNUCBDb3JlIDUuNC4wIj4KICAgPHJkZjpSREYgeG1sbnM6cmRmPSJodHRwOi8vd3d3LnczLm9yZy8xOTk5LzAyLzIyLXJkZi1zeW50YXgtbnMjIj4KICAgICAgPHJkZjpEZXNjcmlwdGlvbiByZGY6YWJvdXQ9IiIKICAgICAgICAgICAgeG1sbnM6ZXhpZj0iaHR0cDovL25zLmFkb2JlLmNvbS9leGlmLzEuMC8iPgogICAgICAgICA8ZXhpZjpQaXhlbFhEaW1lbnNpb24+MzkyPC9leGlmOlBpeGVsWERpbWVuc2lvbj4KICAgICAgICAgPGV4aWY6VXNlckNvbW1lbnQ+U2NyZWVuc2hvdDwvZXhpZjpVc2VyQ29tbWVudD4KICAgICAgICAgPGV4aWY6UGl4ZWxZRGltZW5zaW9uPjU2PC9leGlmOlBpeGVsWURpbWVuc2lvbj4KICAgICAgPC9yZGY6RGVzY3JpcHRpb24+CiAgIDwvcmRmOlJERj4KPC94OnhtcG1ldGE+CgcXAlsAAAAcaURPVAAAAAIAAAAAAAAAHAAAACgAAAAcAAAAHAAACEjmfs51AAAIFElEQVR4AexdaW8bVRS9431JbCdOkzYphKYLS0urslSClkKLkPgGQvA7QOJvIT6wlbWi8KEsIgW6Ad3bbM3m2ImXxHbMPTMZe7xMYnvSzNi9V0ptz/i9d965d+55m1Xl1OtnSiTW0Qz09ITp448+VPvw+Zdf0filPzu6PwJeGBAGnMGAIgLhDEdYQSECYYU9KSsMCANmDIhAmDHTQde9Xi+9efYNFfHly1dpcmqqg9ALVGFAGHAqAyIQTvWM4BIGhAFhwGYGRCBsdoA0LwwIA8KAUxkQgXCqZwSXMCAMCAM2MyACYbMDpHlhQBgQBpzKgAiEUz0juIQBYUAYsJkBEQibHSDNCwPCgDDgVAZEIJzqGcElDAgDwoDNDIhA2OwAaV4YEAaEAacyIALhVM8ILmFAGBAGbGZABMJmB0jzwoAwIAw4lQERCKd6RnAJA8KAMGAzAyIQNjtAmhcGhAFhwKkMiEA41TOCSxgQBoQBmxnoSoHoOajQyg35by5sji1pXhgQBjqcga4TiNCoQrHjCk1/sU6lQod7R+ALA8KAMGAjA10lEL5+ooHTCiluosVfSpSdtJHZHWw6uj9Aiosot1Cg3GJFFRWFKHYoSN5eNy39m6W15eIOorLWVCdjt9ZzKd0uAxIz7TJnXq5rBMIXVyj+KpHLp3U2c6dEiXHzjnfTnYMfxFkUFVq8lqH5vzPlrvU+4ac9J3vVz5mZPE38mCzfc/qbTsbudG67FZ/EzPZ7tisEIjxGFD3m4lF0Zd+hmCaa+bryefupc06NZgLRs9dHw6ciKlAnCYTb76K+Z4IqrtTtXMOZjVOxO8frjxcSiRl7/N3RAuHt4/2GY0S+eGPyZs6VqFgZUDf+UhdcNROI8pQ77KKlG40TsR3d98c8NPp2TG166ucUrUyu1cFwKvY6oHJhRxiQmNkRmusa6TyB4HX1wJBCwVGi4AjvNyjms4TFi7wP8Rj898xmAlHnbYdcaOZhdwhUgeEQBiRm7HGEYwXCE2ZCeLPZ5Vd4X6FE3h4iT1ShwCCuNUfW8nWi1DVzATGrxeVRyBPCkpVCa6kCldbNvml+HXV4e9xUKpYony62XEcr5bdFIFh4PQEXeYIuxrtOxdXmO90qX9v+sBuwr+eZ7wyfYGPeWzX0wxdxt9z/ZttpxaeN6oRvEJd5PmxQXGvQv23gwRJGtA+M/FfMlaiQ4bhvALNR3/RrZn18JDHTJlYcCPFFPPxM49luL9b0/jr91REC4Q7wrGCE/zj5Y7O5WQFoTC5HKWlRidkDZhHNWmi3l+KHQxTc5S0XgTisJQuU4FNAqbur5ev6G6yN7n+Xj0+xTVxIqg/GruNhCg1V6lgvlCh5M8cbyOk6obBaHu2aCQQ2rg+8zxvY/J3Z8RV1mQnfrzK+GX8uRNGDAVUg9HsI/OxcnuYupU3FolW+Ivv8tPsEb5oDkNE2XDR9cZmW72scN4Mdy1D97K/ogWrs8NnK5Cot8IZ9o5NbtZy7vdqeiL/fwzNSDVghu672XcdjhLvV+9r6kSytxASSUYz7CPGCzfy6Qqk7uTKMdniwirHcOL9R2z8SUjGiXt0g1slbzcW9WR8fScy0iFXvD57pgaNh8ve51cGjfh37e/NX0pSbr5wg1O91+qutAuHiHBo5rFBoHwdZJa7a5hT7Da5gZdkpn+DEeL45gQgNemnkTLScIBqBwAkhnBQyGkbdYxsCgfvxw0H1RJHxO/p7PCwPf1/RP6qvVsujEjOBwGgQAgFDoofI1drQSz1qgq29rn/G7GfqpxStJquPyLbDV3QsQEMneCpoYqpA3NMEoinsXBfqNDOI3IPvlwjJ3mhGzhP/ZNWjwGbxB3/Bb62YsX6rMbHMfPSOVk+ZawUCnLbKg1WMRj62aj/FfZhh8Teasf3N+rjTMdMIK3D38XFxiHzd4GajU5hNTF5IUeZh3tjNjn9vm0B4OE/ET/JSjnm+qCI384Ao8VtzyV4vGDmiUOrK1mXcnOSf4k1TvGJpAsk0uzEaCO/xqgkEU1/YrU8Xqqb3xkDX20VCwcZrgZc6MOqIHQqQN6yN/mb/qB7JWy2PNtsVCIy+B54PqbAhAMmbWcrO5snHm8g4RYRjg7A1vnf3HKvthrXLF5I+yvqjbhp+TTtdBT7S09pDhUSuLw1tJRBxxo3ZHmw1UVCTeAbY+TcfwB7ZpwnH6lKBHvyQJIxmdavlvLhaooXLaUJ5JIDIaID6n+VTVvweS223P0uUcel1bPZaWz++ayUmwAkOGWBGh35gVqSLXrs8WMWo97+fZ58DRzU/IDku/ZelHPvD3+ehvqeDhIEEbOFqhjmuDK5q2zfr43bGTLtY1dnse/3qwA/cz/KgITuf56U0N4WHvTT4AicxjpXa50TnqJNfbREILCntOsvJQjvpuCV/pZJCs9/xmuZy5SHfshB/wcNxW6jEpGmRQNxDcZ52wtQHeaL6VE2Ml18GX9SUrPbUTW2gJ/gBmRvnM7YG83FCfPKtGCHY8SDc/GShvDZrtTyaaUcgjO0i2dz/tn6kveeV3vLoFUkWCQpmhS+Ub2Y9eTOBgFiPvaMt60GE732zVLcMNvQyj6r5B4Sw+b/StHi9Mnsy9h3LfxPnk1U/MESZQZ5ZYVkHBm6MP0BUL27yj7F+fM1KTAAfRqY698ZmrfBgFSNwGOuAuAKnLvC4Dx/u5Vk54gV7EWrcb+wNGctu1kfUA7McM4aZfqtYw8M+GjmtDWjQx/R0dX6AEIZHtB9gYbaN/nSL/Q8AAP//xcmHCgAADOpJREFU7VvpcxxHFX+zl7Sr+7Isn5GPGBsfsWNs7CSkEpyLEBOIQ1U+AFUURcEn/hY+QVEUVcCHVFEOJCbhCAlJcDmOE2Njx7ET8CVbliXrPlbSrrQr3q9HLbVGM7OzM+s9VP2qpNmZ6e735tc9/ev3Xo/x6ONPzFGRpemAQYn13pVO3SEa+miOVq9ZR08ffclTxbdPvEa9Pd2eyuYqFIoatOU7LUQG0eClSfEn60SqQ7TpxWZxmh7PUNdfhmnOBtGmbXFq21sjynX9bYRSI7Pid9D6aGTryy1khA0aujxJAxcnRbv4F4qw3cfYbpb+80ka/mJK/Ma/mrUxWvtYvTjvOTlGE3fSC/fkj3CVQY1b4+K5J3tnaKp/Rt5yPbrhhYpVjRHa+GyjaMNJt1fb73wwRsm7y203QkSdLzRTJB6i8dspuntqfMFmFXM8N2ywSrwtSuu/3iAu3/1wnMZvpaxFHM/V9oOOCavtqlK1D/PFIaiNsKNmDY+hr5lj6NY/Rmh60BzTqo2162K05tHlZVT9bs8o2wo8ZgLYWre+ijoeqROmDF2ZooELSWnWij8axSaIWBNR25P89pLNLGoLt0F972RpdpQEOYAkvAjIASThRyKJEGEAh2IGhaPmcdX+WjKYIKyTsDrQx26kqPfM4kSk6q5ujdCGI+ak2PvROI3dNCecoPWhww9BtOxKUMuXE8LEa38apEzKa3+oT2X+zgcv1Aj6si+x/Y9se9redkxemMRmJjJ0483hBcNVzEGo6FOrRGtCgmBwve+TCRq9Nm0t4niuth90TNw7l6SR/y4Su6o0CA5BbYQdLTt5DPEfBAQ1Z7Mygp7VXzUn13tnJ2jkqomjqt/tGUXj/C/wmAliK88Hnc83iUUY7MHiDuNhsm+G0mMZaeKKPBadIBr2GFS7xTuWUz08KZ929h5+98ufi8a+/5OfLWs0Hy8CK00M9lpeWYd5UDuJG0FYV+lqG2JV/ZK5msdKHmUh6ovipz7a8EMQax/nybMjRrNTWbr+xhCayUv84gUlQV92OfHnsr11Tw01b2cPiOWaQiQq5k6TP8bA5nnP0KmMaNjmn9q+nz5V67vpDoKDqsOPjXhsqd8GAttLo0wOfUwSEFW/2zPKhgo1ZmR7uY6qrShbt6GK2vbVCLvVuplUlkavp2j48yleZGXVWyvid9EJYtVTBkVNj9MDgAb1v5ul9Mhy76Gnu4uuXLxAd27dEO2s3dBJ23fvoTXrNi6069WLiNaGacNTDRSuWiSGzDR7LbyqzqazYoUK4oD4Jggl3OOLIBzqwyZfBMHhJYQo8JzXXs+PIILgBXsL9bJXPEE49KnXyVNO0H5wUHW4EoSDjehHqR/BgOnh5eEllFElyeG8wc9Mb03VX1SC8GGrfAaEcRu3VlP9xioxhhFylpKdnROLvnw8TVm3nI9FJ4iOFxCy4V7yINO9HPM/tdx7uHjuY/rPx6dtW3jowCHave/Awj0vXgRc4PoHqkSdYXbnhz6zrAZ4IGx9uZUQ13YjiKDhBD/1YbQfgkB4CSEKCAgCROFVguAFHUEJQg2tXGXPIJsrxJTkENOf7UNMTpNToTwIP33qdfIMgoOqw4+N6MdWHj/NPI7meOhcfW2Q5jLe3mvUVfU79QHKSQk6ZoLYKm1Qjwg/JzhP1bClWnjiuAccbr41RDNJ7++S2mY5/i4+QRw1KBT1BkX/e3OU5sUtEtMy9yC9AiMUoocPPkJnT58Uje0/9Bj9+8wp7qSsbXk3jUhmIuYMF/H6G5xkzi4d6PFWTlgeMROWbgQRNCHppz6eyw9BqAlGJHCRKLQKEsX1m6rF5emBGZoeMleJQfBCY+rL7qbbS4I93+Qs9HuZnApFEH761It9eI5SJ6nVBHT3P0dp8p63TQxe+wDlpAQdM0FslTY4HSX54L7TeHaqW+7Xi04Qq57kEBMnqnNJ6h7RwMnl3sM7b75OCC+BEHbs2UdqDuLyhXOCMBBmOvLNFxdU5PIiNj7TSFVNEbESvX5iiOAuSoHX0HG4njDAIG4Egftq+AjnkFg9h7CebhS7irDKunqcV1vzKtTJAGXzrY86fggC4bTN3zZ3X8F76Pr7iMhHoD0pqw/WUn2nSRDd7/MEwDuZIEHwQn3g8cA3zEFg97wo47aLCfmPTd8ybcdq7dbbw8uS7O28qQCrOwh2nWD3iRQVc6fVqxtBINRQt8HM30hMZNs4qu3j3O4ZvY4JJ/uEngA4BLVR6Ofk7aajZj+kOMR0+93RJe8OysAzb95heqr9nHBP9po7zlT9bs+INiCBx0wAW9seqqH4qqh4tp5/jS1/xs4qWn3QTMTnS5Tm05Xv/6ITRMNOTlJvyw3IwAdzlBpY6j2g1h9++yuanpqi7/7gx1Qdjy8hCFzHfVzHfSnS65Dn1qOazMR2Ruy0wO6EaiaNpi/FKdG+6PLkIgi0jQTXRHeaZnniTfDAanywmhC3h6g7OXCuvig4h+RTH+X9EATqIYGLZ4ekRzP83FNiZwZsreXdP3KCte4CCoIXdGGChc0QYDTEW4exI2RmMrsQpnAjCNRTV23wbBD7xTZcYTvnVho2m+SAHSdi4ppZJH0Vc6fJyY0gOg7XiaQl7Og9M0FjN5bucFLbRxlIPn2q1neyz2zVPw6qDtlWPjbKOq27eSPADnMjAPAHGU4PzFKEPfJEe0z0E2L1GEM3sQV8Pvqi6s/1jNBVkDHj01aQnNyJhXHaf26CUjw/hHgcJ1ZHCTsc8Twin4cNH4tDTcJUsceiE0SIQ/3tz7iHmTK8waefCSLDiz41vASUX/3NL2gmnaZj3/sRJWrMyU2iP5lM0vHf/5qisRi98sOfysviewi3La+xujCt4z3v6GQ7mWLXOcplsHJ1IwiQC/ZMq8krtT1MYngZVFFfFD/10ZZfgkDdVQ/XisQbftsJJnB8J6DucQ+Cl9Qhd1HJcxzvnuZQV5cZ6spFECjffoC9hPkQGM6tMsuEg/35SOKqomLuNDm5EQRWzdjaC7kfferFPvV5/OCg6vA77qQNHYeYMDlx6yTIEfWcGhOLAFlG1e/UB7KsPBZizPix1QgZ4puY6paINEUQHaILUhAZwGIBWK4kKTpBALyqdl69HlwkiVkmhPQg7y/uxx8Tg/IdivXjOBku2sf5h5179y/pi0vnz9I5zkM41VlS2HKCFx5uYpy/V8BqBYLVDlbVg59OirAKVqfYhYFzKdaBPsMJUbikiJlKQcgKq7OBi8mFFZS8F7Q+2kGsHhOq1TZ11eW415wftYVDAA28OwO2SAExYEWIsIB1gkUZv3jJ9kG28M4Qwgpzwg+iEoQX2/FdSjNvTW5kbwETuhSE75LdKfHRIHIAVlHDa3YeAMq7lcFOFvQxvr8Q5Dmfm5F6gvapm26pQz36wSGojUv08wTaujsh8lWyL3Ef+Ez2pW3HUL7PiPYKMmZ82ArdAmO8JzzW5OIA17PsmWLxdI+9ipX4TURJCALAhnnxH603KD3MW0mXeui4TeEEJg0mC56LVS/idtcNeu+vJygcDtGe/Ydo87btovy1L67QhbOnKZPJ0hPPHaX1GzvF9VzhJVFI+YdVgQwHzUxwyMOSsFaKip/WF01uc8MLgIGElYVbO0HrW+3xfc5w4wWEPSAEO1KwaztfvKxt4MUz+Et19LbTB2/WOsvOFdtBxvAc1DzSsvIFuCAWEcxEMmSiNlmyPs0Dh/thI/oykggzuRp5jSEVOy+/CzFmgtiKb5qiNWFBDlgQrmQpGUHYgRrh7yPiaw2qXmNQrJGZudd+m+v5Mx/Sp+c/sWuCdu39Cu09eHjhnvQ4Fi4U+IfTi+ZVTdD6XvXocsVDoBL6tBJsLF6PaU1OCJQFQUTqDKpqmaOQmetasBVhk/HP2cPgzTOqF4EC3exJYNfSQH+fKN/a1i52Na2b9xxwMV/vQTSU57+gL1rQ+nmaq4sXAYFK6NNKsLEIXaVV5ECgLAgih43itjWv4KXO/fYeYEPQFy1ofS846DLFRaAS+rQSbCxur2ltdghUDEHAeKsXYfdA8loxvAfogpeDBB1kjHfgqLt9xMUc/4LWz9G8vl0CBCqhTyvBxhJ0nVZpQaCiCCIfL6IY3oMFS32qEdAIaARWFAIVRRArCnn9MBoBjYBGoMwR0ARR5h2kzdMIaAQ0AqVCQBNEqZDXejUCGgGNQJkjoAmizDtIm6cR0AhoBEqFgCaIUiGv9WoENAIagTJHQBNEmXeQNk8joBHQCJQKAU0QpUJe69UIaAQ0AmWOgCaIMu8gbZ5GQCOgESgVApogSoW81qsR0AhoBMocAU0QZd5B2jyNgEZAI1AqBMqaILbu2En/u3xJYPP8sVc8YfTW8Vc9ldOFNAIaAY2ARsAdgbIlCJDDgzt2kZzwNUG4d6S+qxHQCGgECo3A/wEAHX4CohcB2gAAAABJRU5ErkJggg==;fontSize=10;strokeWidth=6;" vertex="1" parent="1">
          <mxGeometry x="1324.5" y="237" width="91" height="13" as="geometry" />
        </mxCell>
        <mxCell id="kll7W4Ml-uQDBgVJ0LRq-7" value="&lt;pre style=&quot;font-style: normal ; font-weight: normal ; letter-spacing: normal ; text-indent: 0px ; text-transform: none ; word-spacing: 0px ; text-decoration: none ; background-color: rgb(43 , 43 , 43) ; color: rgb(169 , 183 , 198) ; font-family: &amp;#34;jetbrains mono&amp;#34; , monospace ; font-size: 5px&quot;&gt;&lt;span style=&quot;color: rgb(204 , 120 , 50)&quot;&gt;private &lt;/span&gt;DocumentConsumer &lt;span style=&quot;color: rgb(255 , 198 , 109)&quot;&gt;addToLoaded&lt;/span&gt;(BiConsumer&amp;lt;MutablePropertySources&lt;span style=&quot;color: rgb(204 , 120 , 50)&quot;&gt;, &lt;/span&gt;PropertySource&amp;lt;?&amp;gt;&amp;gt; addMethod&lt;span style=&quot;color: rgb(204 , 120 , 50)&quot;&gt;,&lt;br&gt;&lt;/span&gt;&lt;span style=&quot;color: rgb(204 , 120 , 50)&quot;&gt;  boolean &lt;/span&gt;checkForExisting) {&lt;br&gt; &lt;span style=&quot;color: rgb(204 , 120 , 50)&quot;&gt;return &lt;/span&gt;(profile&lt;span style=&quot;color: rgb(204 , 120 , 50)&quot;&gt;, &lt;/span&gt;document) -&amp;gt; {&lt;br&gt;  &lt;span style=&quot;color: rgb(204 , 120 , 50)&quot;&gt;if &lt;/span&gt;(&lt;span style=&quot;color: rgb(179 , 137 , 197)&quot;&gt;checkForExisting&lt;/span&gt;) {&lt;br&gt;   &lt;span style=&quot;color: rgb(204 , 120 , 50)&quot;&gt;for &lt;/span&gt;(MutablePropertySources merged : &lt;span style=&quot;color: rgb(204 , 120 , 50)&quot;&gt;this&lt;/span&gt;.&lt;span style=&quot;color: rgb(152 , 118 , 170)&quot;&gt;loaded&lt;/span&gt;.values()) {&lt;br&gt;    &lt;span style=&quot;color: rgb(204 , 120 , 50)&quot;&gt;if &lt;/span&gt;(merged.contains(document.getPropertySource().getName())) {&lt;br&gt;     &lt;span style=&quot;color: rgb(204 , 120 , 50)&quot;&gt;return;&lt;br&gt;&lt;/span&gt;&lt;span style=&quot;color: rgb(204 , 120 , 50)&quot;&gt;    &lt;/span&gt;}&lt;br&gt;   }&lt;br&gt;  }&lt;br&gt;  MutablePropertySources merged = &lt;span style=&quot;color: rgb(204 , 120 , 50)&quot;&gt;this&lt;/span&gt;.&lt;span style=&quot;color: rgb(152 , 118 , 170)&quot;&gt;loaded&lt;/span&gt;.computeIfAbsent(profile&lt;span style=&quot;color: rgb(204 , 120 , 50)&quot;&gt;,&lt;br&gt;&lt;/span&gt;&lt;span style=&quot;color: rgb(204 , 120 , 50)&quot;&gt;    &lt;/span&gt;(k) -&amp;gt; &lt;span style=&quot;color: rgb(204 , 120 , 50)&quot;&gt;new &lt;/span&gt;MutablePropertySources())&lt;span style=&quot;color: rgb(204 , 120 , 50)&quot;&gt;;&lt;br&gt;&lt;/span&gt;&lt;span style=&quot;color: rgb(204 , 120 , 50)&quot;&gt;  &lt;/span&gt;&lt;span style=&quot;color: rgb(179 , 137 , 197)&quot;&gt;addMethod&lt;/span&gt;.accept(merged&lt;span style=&quot;color: rgb(204 , 120 , 50)&quot;&gt;, &lt;/span&gt;document.getPropertySource())&lt;span style=&quot;color: rgb(204 , 120 , 50)&quot;&gt;;&lt;br&gt;&lt;/span&gt;&lt;span style=&quot;color: rgb(204 , 120 , 50)&quot;&gt; &lt;/span&gt;}&lt;span style=&quot;color: rgb(204 , 120 , 50)&quot;&gt;;&lt;br&gt;&lt;/span&gt;}&lt;/pre&gt;" style="text;whiteSpace=wrap;html=1;fontSize=10;" vertex="1" parent="1">
          <mxGeometry x="1400" y="1285" width="550" height="105" as="geometry" />
        </mxCell>
        <mxCell id="kll7W4Ml-uQDBgVJ0LRq-8" value="" style="endArrow=classic;html=1;dashed=1;dashPattern=1 2;fontSize=10;entryX=0.168;entryY=-0.007;entryDx=0;entryDy=0;entryPerimeter=0;" edge="1" parent="1" target="re0cYNCFHm8Mw9xyEB3N-42">
          <mxGeometry width="50" height="50" relative="1" as="geometry">
            <mxPoint x="1470" y="1385" as="sourcePoint" />
            <mxPoint x="1520" y="1335" as="targetPoint" />
          </mxGeometry>
        </mxCell>
        <mxCell id="kll7W4Ml-uQDBgVJ0LRq-9" value="&lt;pre style=&quot;font-style: normal ; font-weight: normal ; letter-spacing: normal ; text-indent: 0px ; text-transform: none ; word-spacing: 0px ; text-decoration: none ; background-color: rgb(43 , 43 , 43) ; color: rgb(169 , 183 , 198) ; font-family: &amp;quot;jetbrains mono&amp;quot; , monospace&quot;&gt;&lt;span style=&quot;color: rgb(204 , 120 , 50)&quot;&gt;private &lt;/span&gt;Map&amp;lt;Profile&lt;span style=&quot;color: rgb(204 , 120 , 50)&quot;&gt;, &lt;/span&gt;MutablePropertySources&amp;gt; &lt;span style=&quot;color: rgb(152 , 118 , 170)&quot;&gt;loaded&lt;/span&gt;&lt;span style=&quot;color: rgb(204 , 120 , 50)&quot;&gt;;&lt;/span&gt;&lt;/pre&gt;" style="text;whiteSpace=wrap;html=1;fontSize=10;" vertex="1" parent="1">
          <mxGeometry x="1390" y="1477.5" width="340" height="50" as="geometry" />
        </mxCell>
        <mxCell id="kll7W4Ml-uQDBgVJ0LRq-10" value="Default Environement&amp;nbsp;&lt;br&gt;will not processed&amp;nbsp;&lt;br&gt;because we have already parsed the spring.actibe =dev using BoostrapListenner" style="text;html=1;strokeColor=none;fillColor=none;align=center;verticalAlign=middle;whiteSpace=wrap;rounded=0;dashed=1;dashPattern=1 2;fontSize=10;" vertex="1" parent="1">
          <mxGeometry x="1095" y="1570" width="230" height="20" as="geometry" />
        </mxCell>
        <mxCell id="kll7W4Ml-uQDBgVJ0LRq-11" value="&lt;font color=&quot;#ff0000&quot;&gt;Keep in Mind that this listenner will be called two times&amp;nbsp;&lt;br&gt;first to load the bootstrap config then the application config files (if the discovery is not enabled ) for more see:&amp;nbsp;&lt;/font&gt;&lt;span style=&quot;color: rgb(169 , 183 , 198) ; font-family: &amp;#34;jetbrains mono&amp;#34; , monospace ; background-color: rgb(43 , 43 , 43)&quot;&gt;BootstrapApplicationListener&lt;/span&gt;" style="text;html=1;strokeColor=none;fillColor=none;align=center;verticalAlign=middle;whiteSpace=wrap;rounded=0;dashed=1;dashPattern=1 2;fontSize=10;" vertex="1" parent="1">
          <mxGeometry x="1002.5" y="-10" width="377.5" height="20" as="geometry" />
        </mxCell>
        <mxCell id="kll7W4Ml-uQDBgVJ0LRq-12" value="delegates&lt;br&gt;to InvokeListener" style="text;html=1;strokeColor=none;fillColor=none;align=center;verticalAlign=middle;whiteSpace=wrap;rounded=0;dashed=1;dashPattern=1 2;fontSize=10;" vertex="1" parent="1">
          <mxGeometry x="940" y="235" width="40" height="20" as="geometry" />
        </mxCell>
        <mxCell id="kll7W4Ml-uQDBgVJ0LRq-13" value="delegates&lt;br&gt;to DoInvokeListener" style="text;html=1;strokeColor=none;fillColor=none;align=center;verticalAlign=middle;whiteSpace=wrap;rounded=0;dashed=1;dashPattern=1 2;fontSize=10;" vertex="1" parent="1">
          <mxGeometry x="930" y="275" width="40" height="165" as="geometry" />
        </mxCell>
        <mxCell id="kll7W4Ml-uQDBgVJ0LRq-18" value="&lt;pre style=&quot;font-style: normal ; font-weight: normal ; letter-spacing: normal ; text-indent: 0px ; text-transform: none ; word-spacing: 0px ; text-decoration: none ; background-color: rgb(43 , 43 , 43) ; color: rgb(169 , 183 , 198) ; font-family: &amp;#34;jetbrains mono&amp;#34; , monospace ; font-size: 6px&quot;&gt;&lt;span style=&quot;color: rgb(204 , 120 , 50)&quot;&gt;private void &lt;/span&gt;&lt;span style=&quot;color: rgb(255 , 198 , 109)&quot;&gt;addLoadedPropertySources&lt;/span&gt;() {&lt;br&gt; MutablePropertySources destination = &lt;span style=&quot;color: rgb(204 , 120 , 50)&quot;&gt;this&lt;/span&gt;.&lt;span style=&quot;color: rgb(152 , 118 , 170)&quot;&gt;environment&lt;/span&gt;.getPropertySources()&lt;span style=&quot;color: rgb(204 , 120 , 50)&quot;&gt;;&lt;br&gt;&lt;/span&gt;&lt;span style=&quot;color: rgb(204 , 120 , 50)&quot;&gt; &lt;/span&gt;List&amp;lt;MutablePropertySources&amp;gt; loaded = &lt;span style=&quot;color: rgb(204 , 120 , 50)&quot;&gt;new &lt;/span&gt;ArrayList&amp;lt;&amp;gt;(&lt;span style=&quot;color: rgb(204 , 120 , 50)&quot;&gt;this&lt;/span&gt;.&lt;span style=&quot;color: rgb(152 , 118 , 170)&quot;&gt;loaded&lt;/span&gt;.values())&lt;span style=&quot;color: rgb(204 , 120 , 50)&quot;&gt;;&lt;/span&gt;&lt;/pre&gt;" style="text;whiteSpace=wrap;html=1;fontSize=10;" vertex="1" parent="1">
          <mxGeometry x="1080" y="1407.5" width="490" height="70" as="geometry" />
        </mxCell>
        <mxCell id="kll7W4Ml-uQDBgVJ0LRq-19" value="" style="shape=image;html=1;verticalAlign=top;verticalLabelPosition=bottom;labelBackgroundColor=#ffffff;imageAspect=0;aspect=fixed;image=https://cdn2.iconfinder.com/data/icons/business-process-1/512/client-128.png;rounded=0;dashed=1;dashPattern=1 2;strokeColor=#7EA6E0;strokeWidth=6;fillColor=#ffffff;gradientColor=none;fontSize=10;" vertex="1" parent="1">
          <mxGeometry x="720" y="666" width="48" height="48" as="geometry" />
        </mxCell>
        <mxCell id="kll7W4Ml-uQDBgVJ0LRq-24" value="&lt;pre style=&quot;font-style: normal ; font-weight: normal ; letter-spacing: normal ; text-indent: 0px ; text-transform: none ; word-spacing: 0px ; text-decoration: none ; background-color: rgb(43 , 43 , 43) ; color: rgb(169 , 183 , 198) ; font-family: &amp;#34;jetbrains mono&amp;#34; , monospace ; font-size: 6px&quot;&gt;loaded.forEach((document) -&amp;gt; &lt;span style=&quot;color: rgb(179 , 137 , 197)&quot;&gt;consumer&lt;/span&gt;.accept(&lt;span style=&quot;color: rgb(179 , 137 , 197)&quot;&gt;profile&lt;/span&gt;&lt;span style=&quot;color: rgb(204 , 120 , 50)&quot;&gt;, &lt;/span&gt;document))&lt;/pre&gt;" style="text;whiteSpace=wrap;html=1;" vertex="1" parent="1">
          <mxGeometry x="1350" y="1235" width="70" height="50" as="geometry" />
        </mxCell>
        <mxCell id="kll7W4Ml-uQDBgVJ0LRq-25" value="" style="endArrow=classic;html=1;dashed=1;dashPattern=1 2;fontSize=10;entryX=0.645;entryY=0.027;entryDx=0;entryDy=0;entryPerimeter=0;" edge="1" parent="1" target="kll7W4Ml-uQDBgVJ0LRq-18">
          <mxGeometry width="50" height="50" relative="1" as="geometry">
            <mxPoint x="1132" y="1370" as="sourcePoint" />
            <mxPoint x="1330" y="1370" as="targetPoint" />
            <Array as="points">
              <mxPoint x="1290" y="1370" />
            </Array>
          </mxGeometry>
        </mxCell>
        <mxCell id="kll7W4Ml-uQDBgVJ0LRq-26" value="&lt;pre style=&quot;font-style: normal ; font-weight: normal ; letter-spacing: normal ; text-indent: 0px ; text-transform: none ; word-spacing: 0px ; text-decoration: none ; background-color: rgb(43 , 43 , 43) ; color: rgb(169 , 183 , 198) ; font-family: &amp;#34;jetbrains mono&amp;#34; , monospace&quot;&gt;&lt;br&gt;&lt;/pre&gt;" style="text;whiteSpace=wrap;html=1;fontSize=10;" vertex="1" parent="1">
          <mxGeometry x="1180" y="230" width="130" height="50" as="geometry" />
        </mxCell>
        <mxCell id="kll7W4Ml-uQDBgVJ0LRq-27" value="LoadAllPostProcessor and &#xa;add itself to the list" style="shape=umlLifeline;perimeter=lifelinePerimeter;container=1;collapsible=0;recursiveResize=0;rounded=0;shadow=0;strokeWidth=1;fontSize=11;" vertex="1" parent="1">
          <mxGeometry x="1140" y="120" width="180" height="30" as="geometry" />
        </mxCell>
        <mxCell id="kll7W4Ml-uQDBgVJ0LRq-28" value="&lt;pre style=&quot;font-size: 9px&quot;&gt;&lt;span style=&quot;background-color: rgb(255 , 255 , 255)&quot;&gt;&lt;font face=&quot;Verdana&quot; style=&quot;font-size: 9px&quot;&gt;Document is an object &lt;/font&gt;&lt;/span&gt;&lt;/pre&gt;&lt;pre style=&quot;font-size: 9px&quot;&gt;&lt;span style=&quot;background-color: rgb(255 , 255 , 255)&quot;&gt;&lt;font face=&quot;Verdana&quot; style=&quot;font-size: 9px&quot;&gt;that will encapsulate the propertySource loaded &lt;/font&gt;&lt;/span&gt;&lt;/pre&gt;&lt;pre style=&quot;font-size: 9px&quot;&gt;&lt;span style=&quot;background-color: rgb(255 , 255 , 255)&quot;&gt;&lt;font face=&quot;Verdana&quot; style=&quot;font-size: 9px&quot;&gt;By the loader et it will contain other information like profile, &lt;/font&gt;&lt;/span&gt;&lt;/pre&gt;&lt;pre style=&quot;font-size: 9px&quot;&gt;&lt;font face=&quot;Verdana&quot; style=&quot;font-size: 9px&quot;&gt;&lt;span style=&quot;background-color: rgb(255 , 255 , 255)&quot;&gt;this information is useful for adding the property to the propertySourceList&lt;/span&gt;&lt;/font&gt;&lt;/pre&gt;" style="text;html=1;strokeColor=none;fillColor=none;align=center;verticalAlign=middle;whiteSpace=wrap;rounded=0;dashed=1;dashPattern=1 2;fontSize=10;" vertex="1" parent="1">
          <mxGeometry x="970" y="1285" width="40" height="20" as="geometry" />
        </mxCell>
        <mxCell id="kll7W4Ml-uQDBgVJ0LRq-30" value="" style="endArrow=classic;html=1;dashed=1;dashPattern=1 2;fontSize=10;" edge="1" parent="1">
          <mxGeometry width="50" height="50" relative="1" as="geometry">
            <mxPoint x="1170" y="1320" as="sourcePoint" />
            <mxPoint x="1390" y="1390" as="targetPoint" />
            <Array as="points">
              <mxPoint x="1330" y="1320" />
            </Array>
          </mxGeometry>
        </mxCell>
        <mxCell id="kll7W4Ml-uQDBgVJ0LRq-31" value="Ressource" style="text;html=1;strokeColor=none;fillColor=none;align=center;verticalAlign=middle;whiteSpace=wrap;rounded=0;dashed=1;dashPattern=1 2;fontSize=10;" vertex="1" parent="1">
          <mxGeometry x="1350" y="215" width="40" height="20" as="geometry" />
        </mxCell>
        <mxCell id="kll7W4Ml-uQDBgVJ0LRq-37" value="&lt;span style=&quot;color: rgb(51 , 51 , 51) ; font-family: &amp;#34;helvetica neue&amp;#34; , &amp;#34;helvetica&amp;#34; , &amp;#34;arial&amp;#34; , &amp;#34;pingfang sc&amp;#34; , &amp;#34;hiragino sans gb&amp;#34; , &amp;#34;wenquanyi micro hei&amp;#34; , &amp;#34;microsoft yahei&amp;#34; , sans-serif ; font-size: 14px&quot;&gt;SpringApplicationRunListeners is an encapsulation object, which is used to encapsulate the spring applicationrunlisteners collection. It adopts the idea of object-oriented and hides the specific details of multiple spring applicationrunlisteners loop listening to an event, which makes the code clearer and more extensible.&lt;/span&gt;" style="text;html=1;strokeColor=none;fillColor=none;align=center;verticalAlign=middle;whiteSpace=wrap;rounded=0;dashed=1;dashPattern=1 2;fontSize=10;" vertex="1" parent="1">
          <mxGeometry x="270" y="-90" width="550" height="20" as="geometry" />
        </mxCell>
        <mxCell id="kll7W4Ml-uQDBgVJ0LRq-38" value="&lt;span style=&quot;color: rgb(51 , 51 , 51) ; font-family: &amp;#34;helvetica neue&amp;#34; , &amp;#34;helvetica&amp;#34; , &amp;#34;arial&amp;#34; , &amp;#34;pingfang sc&amp;#34; , &amp;#34;hiragino sans gb&amp;#34; , &amp;#34;wenquanyi micro hei&amp;#34; , &amp;#34;microsoft yahei&amp;#34; , sans-serif ; font-size: 14px&quot;&gt;Spring application runlistener defines the listening methods of each life cycle of spring application, such as start running, environment loading, context creation, etc. Eventpublishingrunnlistener is an implementation class that implements the interface to broadcast spring events&lt;/span&gt;" style="text;html=1;strokeColor=none;fillColor=none;align=center;verticalAlign=middle;whiteSpace=wrap;rounded=0;dashed=1;dashPattern=1 2;fontSize=10;" vertex="1" parent="1">
          <mxGeometry x="400" y="1507.5" width="310" height="20" as="geometry" />
        </mxCell>
        <mxCell id="kll7W4Ml-uQDBgVJ0LRq-40" value="&lt;pre style=&quot;font-style: normal ; font-weight: normal ; letter-spacing: normal ; text-indent: 0px ; text-transform: none ; word-spacing: 0px ; text-decoration: none ; background-color: rgb(43 , 43 , 43) ; color: rgb(169 , 183 , 198) ; font-family: &amp;quot;jetbrains mono&amp;quot; , monospace&quot;&gt;&lt;span style=&quot;color: rgb(106 , 135 , 89)&quot;&gt;spring.profiles.active&lt;/span&gt;&lt;/pre&gt;" style="text;whiteSpace=wrap;html=1;fontSize=10;" vertex="1" parent="1">
          <mxGeometry x="515" y="1070" width="160" height="50" as="geometry" />
        </mxCell>
        <mxCell id="kll7W4Ml-uQDBgVJ0LRq-41" value="&lt;span style=&quot;font-style: normal; font-weight: normal; letter-spacing: normal; text-indent: 0px; text-transform: none; word-spacing: 0px; text-decoration: none; color: rgb(45, 45, 45); font-family: &amp;quot;helvetica neue&amp;quot;, helvetica, arial, sans-serif; font-size: 14px; float: none; display: inline;&quot;&gt;create a ConfigurationPropertySourcesPropertySource and put it into the Environment.&lt;/span&gt;" style="text;whiteSpace=wrap;html=1;fontSize=10;" vertex="1" parent="1">
          <mxGeometry x="420" y="1190" width="550" height="40" as="geometry" />
        </mxCell>
        <mxCell id="kll7W4Ml-uQDBgVJ0LRq-42" value="ConfigurationPropertySources.attach(environment)" style="shape=umlLifeline;perimeter=lifelinePerimeter;container=1;collapsible=0;recursiveResize=0;rounded=0;shadow=0;strokeWidth=1;fontSize=9;" vertex="1" parent="1">
          <mxGeometry x="710" y="1170" width="140" height="30" as="geometry" />
        </mxCell>
        <mxCell id="kll7W4Ml-uQDBgVJ0LRq-43" value="&lt;span style=&quot;font-style: normal; font-weight: normal; letter-spacing: normal; text-indent: 0px; text-transform: none; word-spacing: 0px; text-decoration: none; color: rgb(95, 95, 95); font-family: &amp;quot;helvetica neue&amp;quot;, helvetica, arial, sans-serif; font-size: 14px; text-align: left; float: none; display: inline;&quot;&gt;&lt;span class=&quot;Apple-converted-space&quot;&gt;&amp;nbsp;&lt;/span&gt;add the configurationProperties file to the environment object&lt;/span&gt;" style="text;whiteSpace=wrap;html=1;fontSize=9;fontColor=#000000;" vertex="1" parent="1">
          <mxGeometry x="390" y="1200" width="410" height="30" as="geometry" />
        </mxCell>
        <mxCell id="kll7W4Ml-uQDBgVJ0LRq-49" value="&lt;span style=&quot;font-size: 16px; font-style: normal; font-weight: normal; letter-spacing: normal; text-indent: 0px; text-transform: none; word-spacing: 0px; text-decoration: none; color: rgb(79, 79, 79); text-align: justify; background-color: rgb(255, 255, 255); float: none; display: inline;&quot;&gt;Loader is an internal class. Check his constructor and do a lot of work. Among them, propertySourceLoaders are loaded from spring.factories. There are two, one for loading properties and one for loading yml.&lt;/span&gt;" style="text;whiteSpace=wrap;html=1;fontSize=9;fontColor=#000000;" vertex="1" parent="1">
          <mxGeometry x="1160" y="1680" width="550" height="50" as="geometry" />
        </mxCell>
        <mxCell id="kll7W4Ml-uQDBgVJ0LRq-50" value="&lt;span style=&quot;font-size: 16px; font-style: normal; font-weight: normal; letter-spacing: normal; text-indent: 0px; text-transform: none; word-spacing: 0px; text-decoration: none; color: rgb(79, 79, 79); text-align: justify; background-color: rgb(255, 255, 255); float: none; display: inline;&quot;&gt;load all the profiles, then load the corresponding configuration files according to the corresponding profiles, and finally sort the configuration priorities.&lt;/span&gt;" style="text;whiteSpace=wrap;html=1;fontSize=9;fontColor=#000000;" vertex="1" parent="1">
          <mxGeometry x="1155" y="1770" width="550" height="50" as="geometry" />
        </mxCell>
        <mxCell id="kll7W4Ml-uQDBgVJ0LRq-51" value="&lt;span style=&quot;font-style: normal; font-weight: normal; letter-spacing: normal; text-indent: 0px; text-transform: none; word-spacing: 0px; text-decoration: none; color: rgb(51, 51, 51); font-family: &amp;quot;helvetica neue&amp;quot;, helvetica, arial, &amp;quot;pingfang sc&amp;quot;, &amp;quot;hiragino sans gb&amp;quot;, &amp;quot;wenquanyi micro hei&amp;quot;, &amp;quot;microsoft yahei&amp;quot;, sans-serif; font-size: 14px; float: none; display: inline;&quot;&gt;Initialize configuration file initializeProfiles; read properties spring.profiles.include; spring.profiles.active The value of is added to the profile property used&lt;/span&gt;" style="text;whiteSpace=wrap;html=1;fontSize=9;fontColor=#000000;" vertex="1" parent="1">
          <mxGeometry x="1140" y="1830" width="550" height="40" as="geometry" />
        </mxCell>
        <mxCell id="kll7W4Ml-uQDBgVJ0LRq-57" value="loadFinal" style="shape=umlLifeline;perimeter=lifelinePerimeter;container=1;collapsible=0;recursiveResize=0;rounded=0;shadow=0;strokeWidth=1;fontSize=10;" vertex="1" parent="1">
          <mxGeometry x="1150" y="1205" width="140" height="30" as="geometry" />
        </mxCell>
        <mxCell id="kll7W4Ml-uQDBgVJ0LRq-62" value="" style="edgeStyle=orthogonalEdgeStyle;rounded=0;orthogonalLoop=1;jettySize=auto;html=1;dashed=1;dashPattern=1 2;fontSize=9;fontColor=#000000;" edge="1" parent="1" source="kll7W4Ml-uQDBgVJ0LRq-58" target="kll7W4Ml-uQDBgVJ0LRq-61">
          <mxGeometry relative="1" as="geometry" />
        </mxCell>
        <mxCell id="kll7W4Ml-uQDBgVJ0LRq-58" value="Yes docuemnts because we could have many documents inside a single yam file&amp;nbsp;" style="text;html=1;strokeColor=none;fillColor=none;align=center;verticalAlign=middle;whiteSpace=wrap;rounded=0;dashed=1;dashPattern=1 2;fontSize=9;fontColor=#000000;" vertex="1" parent="1">
          <mxGeometry x="1140" y="2030" width="190" height="20" as="geometry" />
        </mxCell>
        <mxCell id="kll7W4Ml-uQDBgVJ0LRq-59" value="&lt;span style=&quot;font-size: 16px ; color: rgb(51 , 51 , 51) ; font-family: &amp;#34;open sans&amp;#34; , sans-serif&quot;&gt;Think of each line putting an entry in a&amp;nbsp;&lt;/span&gt;&lt;code style=&quot;font-size: 14px ; font-family: &amp;#34;monaco&amp;#34; , monospace ; border: 1px solid rgb(225 , 225 , 232) ; overflow-x: auto ; padding: 2px 6px ; color: rgb(0 , 0 , 153)&quot;&gt;Map&lt;/code&gt;&lt;span style=&quot;font-size: 16px ; color: rgb(51 , 51 , 51) ; font-family: &amp;#34;open sans&amp;#34; , sans-serif&quot;&gt;. Any existing entry is replaced when a new value with the same key is put into the&amp;nbsp;&lt;/span&gt;&lt;code style=&quot;font-size: 14px ; font-family: &amp;#34;monaco&amp;#34; , monospace ; border: 1px solid rgb(225 , 225 , 232) ; overflow-x: auto ; padding: 2px 6px ; color: rgb(0 , 0 , 153)&quot;&gt;Map&lt;/code&gt;" style="text;html=1;strokeColor=none;fillColor=none;align=center;verticalAlign=middle;whiteSpace=wrap;rounded=0;dashed=1;dashPattern=1 2;fontSize=9;fontColor=#000000;" vertex="1" parent="1">
          <mxGeometry x="1205" y="1950" width="375" height="20" as="geometry" />
        </mxCell>
        <mxCell id="kll7W4Ml-uQDBgVJ0LRq-64" value="" style="edgeStyle=orthogonalEdgeStyle;rounded=0;orthogonalLoop=1;jettySize=auto;html=1;dashed=1;dashPattern=1 2;fontSize=9;fontColor=#000000;" edge="1" parent="1" source="kll7W4Ml-uQDBgVJ0LRq-61" target="kll7W4Ml-uQDBgVJ0LRq-63">
          <mxGeometry relative="1" as="geometry" />
        </mxCell>
        <mxCell id="kll7W4Ml-uQDBgVJ0LRq-61" value="" style="whiteSpace=wrap;html=1;rounded=0;dashed=1;dashPattern=1 2;strokeColor=#7EA6E0;strokeWidth=6;fillColor=#ffffff;gradientColor=none;fontSize=9;fontColor=#000000;" vertex="1" parent="1">
          <mxGeometry x="1175" y="2110" width="120" height="60" as="geometry" />
        </mxCell>
        <mxCell id="kll7W4Ml-uQDBgVJ0LRq-63" value="" style="whiteSpace=wrap;html=1;rounded=0;dashed=1;dashPattern=1 2;strokeColor=#7EA6E0;strokeWidth=6;fillColor=#ffffff;gradientColor=none;fontSize=9;fontColor=#000000;" vertex="1" parent="1">
          <mxGeometry x="1175" y="2250" width="120" height="60" as="geometry" />
        </mxCell>
        <mxCell id="kll7W4Ml-uQDBgVJ0LRq-65" value="environmentPrepared" style="shape=umlLifeline;perimeter=lifelinePerimeter;container=1;collapsible=0;recursiveResize=0;rounded=0;shadow=0;strokeWidth=1;" vertex="1" parent="1">
          <mxGeometry x="930" y="70" width="140" height="30" as="geometry" />
        </mxCell>
        <mxCell id="kll7W4Ml-uQDBgVJ0LRq-66" value="MulticastEvents" style="shape=umlLifeline;perimeter=lifelinePerimeter;container=1;collapsible=0;recursiveResize=0;rounded=0;shadow=0;strokeWidth=1;" vertex="1" parent="1">
          <mxGeometry x="930" y="180" width="140" height="30" as="geometry" />
        </mxCell>
        <mxCell id="kll7W4Ml-uQDBgVJ0LRq-67" value="" style="edgeStyle=orthogonalEdgeStyle;rounded=0;orthogonalLoop=1;jettySize=auto;html=1;dashed=1;dashPattern=1 2;fontSize=10;" edge="1" parent="1">
          <mxGeometry relative="1" as="geometry">
            <mxPoint x="1142.5" y="255" as="sourcePoint" />
            <mxPoint x="998.5" y="320" as="targetPoint" />
          </mxGeometry>
        </mxCell>
        <mxCell id="kll7W4Ml-uQDBgVJ0LRq-143" value="" style="edgeStyle=orthogonalEdgeStyle;rounded=0;orthogonalLoop=1;jettySize=auto;html=1;fontSize=9;" edge="1" parent="1" source="kll7W4Ml-uQDBgVJ0LRq-144" target="kll7W4Ml-uQDBgVJ0LRq-146">
          <mxGeometry relative="1" as="geometry" />
        </mxCell>
        <mxCell id="kll7W4Ml-uQDBgVJ0LRq-144" value="PropertiesPropertySource&#xa;Loader" style="shape=umlLifeline;perimeter=lifelinePerimeter;container=1;collapsible=0;recursiveResize=0;rounded=0;shadow=0;strokeWidth=1;fontSize=11;" vertex="1" parent="1">
          <mxGeometry x="1420" y="2820" width="140" height="30" as="geometry" />
        </mxCell>
        <mxCell id="kll7W4Ml-uQDBgVJ0LRq-145" value="" style="edgeStyle=orthogonalEdgeStyle;rounded=0;orthogonalLoop=1;jettySize=auto;html=1;fontSize=9;" edge="1" parent="1" source="kll7W4Ml-uQDBgVJ0LRq-146" target="kll7W4Ml-uQDBgVJ0LRq-148">
          <mxGeometry relative="1" as="geometry" />
        </mxCell>
        <mxCell id="kll7W4Ml-uQDBgVJ0LRq-146" value="load" style="shape=umlLifeline;perimeter=lifelinePerimeter;container=1;collapsible=0;recursiveResize=0;rounded=0;shadow=0;strokeWidth=1;fontSize=9;" vertex="1" parent="1">
          <mxGeometry x="1420" y="2930" width="140" height="30" as="geometry" />
        </mxCell>
        <mxCell id="kll7W4Ml-uQDBgVJ0LRq-147" value="" style="edgeStyle=orthogonalEdgeStyle;rounded=0;orthogonalLoop=1;jettySize=auto;html=1;fontSize=9;" edge="1" parent="1" source="kll7W4Ml-uQDBgVJ0LRq-148" target="kll7W4Ml-uQDBgVJ0LRq-150">
          <mxGeometry relative="1" as="geometry" />
        </mxCell>
        <mxCell id="kll7W4Ml-uQDBgVJ0LRq-148" value="loadProperties" style="shape=umlLifeline;perimeter=lifelinePerimeter;container=1;collapsible=0;recursiveResize=0;rounded=0;shadow=0;strokeWidth=1;fontSize=9;" vertex="1" parent="1">
          <mxGeometry x="1420" y="3040" width="140" height="30" as="geometry" />
        </mxCell>
        <mxCell id="kll7W4Ml-uQDBgVJ0LRq-149" value="" style="edgeStyle=orthogonalEdgeStyle;rounded=0;orthogonalLoop=1;jettySize=auto;html=1;fontSize=9;" edge="1" parent="1" source="kll7W4Ml-uQDBgVJ0LRq-150" target="kll7W4Ml-uQDBgVJ0LRq-151">
          <mxGeometry relative="1" as="geometry" />
        </mxCell>
        <mxCell id="kll7W4Ml-uQDBgVJ0LRq-150" value="OriginTrackedProperties&#xa;Loader.load" style="shape=umlLifeline;perimeter=lifelinePerimeter;container=1;collapsible=0;recursiveResize=0;rounded=0;shadow=0;strokeWidth=1;fontSize=11;" vertex="1" parent="1">
          <mxGeometry x="1420" y="3150" width="140" height="30" as="geometry" />
        </mxCell>
        <mxCell id="kll7W4Ml-uQDBgVJ0LRq-151" value="loadKey" style="shape=umlLifeline;perimeter=lifelinePerimeter;container=1;collapsible=0;recursiveResize=0;rounded=0;shadow=0;strokeWidth=1;fontSize=9;" vertex="1" parent="1">
          <mxGeometry x="1420" y="3260" width="140" height="30" as="geometry" />
        </mxCell>
        <mxCell id="kll7W4Ml-uQDBgVJ0LRq-152" value="loadValue" style="shape=umlLifeline;perimeter=lifelinePerimeter;container=1;collapsible=0;recursiveResize=0;rounded=0;shadow=0;strokeWidth=1;fontSize=9;" vertex="1" parent="1">
          <mxGeometry x="1600" y="3260" width="140" height="30" as="geometry" />
        </mxCell>
        <mxCell id="kll7W4Ml-uQDBgVJ0LRq-153" value="loading the file and start&lt;br&gt;parsing" style="text;html=1;strokeColor=none;fillColor=none;align=center;verticalAlign=middle;whiteSpace=wrap;rounded=0;shadow=0;fontFamily=Times New Roman;fontSize=11;" vertex="1" parent="1">
          <mxGeometry x="1380" y="3110" width="130" height="10" as="geometry" />
        </mxCell>
        <mxCell id="kll7W4Ml-uQDBgVJ0LRq-154" value="we use a reader&lt;br&gt;&amp;nbsp;pointer to keep track&lt;br&gt;of the position" style="text;html=1;strokeColor=none;fillColor=none;align=center;verticalAlign=middle;whiteSpace=wrap;rounded=0;shadow=0;fontFamily=Times New Roman;fontSize=11;" vertex="1" parent="1">
          <mxGeometry x="1380" y="3220" width="130" height="10" as="geometry" />
        </mxCell>
        <mxCell id="kll7W4Ml-uQDBgVJ0LRq-155" value="" style="endArrow=classic;html=1;dashed=1;dashPattern=1 2;entryX=0.991;entryY=1.19;entryDx=0;entryDy=0;entryPerimeter=0;" edge="1" parent="1" target="kll7W4Ml-uQDBgVJ0LRq-146">
          <mxGeometry width="50" height="50" relative="1" as="geometry">
            <mxPoint x="1560" y="3060" as="sourcePoint" />
            <mxPoint x="1610" y="3010" as="targetPoint" />
          </mxGeometry>
        </mxCell>
        <mxCell id="kll7W4Ml-uQDBgVJ0LRq-156" value="&lt;div&gt;return properties&lt;/div&gt;&lt;div&gt;as a map&amp;nbsp;&lt;/div&gt;" style="text;html=1;strokeColor=none;fillColor=none;align=center;verticalAlign=middle;whiteSpace=wrap;rounded=0;dashed=1;dashPattern=1 2;" vertex="1" parent="1">
          <mxGeometry x="1540" y="3000" width="140" height="20" as="geometry" />
        </mxCell>
        <mxCell id="kll7W4Ml-uQDBgVJ0LRq-157" value="&lt;div&gt;add the loaded key value pair to the map&amp;nbsp;&lt;/div&gt;" style="text;html=1;strokeColor=none;fillColor=none;align=center;verticalAlign=middle;whiteSpace=wrap;rounded=0;dashed=1;dashPattern=1 2;" vertex="1" parent="1">
          <mxGeometry x="1590" y="3190" width="140" height="20" as="geometry" />
        </mxCell>
        <mxCell id="kll7W4Ml-uQDBgVJ0LRq-158" value="" style="endArrow=classic;html=1;dashed=1;dashPattern=1 2;" edge="1" parent="1">
          <mxGeometry width="50" height="50" relative="1" as="geometry">
            <mxPoint x="1620" y="3260" as="sourcePoint" />
            <mxPoint x="1560" y="3190" as="targetPoint" />
          </mxGeometry>
        </mxCell>
        <mxCell id="kll7W4Ml-uQDBgVJ0LRq-159" value="&lt;pre style=&quot;font-style: normal ; font-weight: normal ; letter-spacing: normal ; text-indent: 0px ; text-transform: none ; word-spacing: 0px ; text-decoration: none ; background-color: rgb(43 , 43 , 43) ; color: rgb(169 , 183 , 198) ; font-family: &amp;#34;jetbrains mono&amp;#34; , monospace ; font-size: 9px&quot;&gt;OriginTrackedValue value = loadValue(buffer&lt;span style=&quot;color: rgb(204 , 120 , 50)&quot;&gt;, &lt;/span&gt;reader&lt;span style=&quot;color: rgb(204 , 120 , 50)&quot;&gt;, false&lt;/span&gt;)&lt;span style=&quot;color: rgb(204 , 120 , 50)&quot;&gt;;&lt;br&gt;&lt;/span&gt;put(result&lt;span style=&quot;color: rgb(204 , 120 , 50)&quot;&gt;, &lt;/span&gt;key&lt;span style=&quot;color: rgb(204 , 120 , 50)&quot;&gt;, &lt;/span&gt;value)&lt;span style=&quot;color: rgb(204 , 120 , 50)&quot;&gt;;&lt;/span&gt;&lt;/pre&gt;" style="text;whiteSpace=wrap;html=1;" vertex="1" parent="1">
          <mxGeometry x="1570" y="3140" width="270" height="40" as="geometry" />
        </mxCell>
        <mxCell id="kll7W4Ml-uQDBgVJ0LRq-160" value="&lt;pre style=&quot;font-style: normal ; font-weight: normal ; letter-spacing: normal ; text-indent: 0px ; text-transform: none ; word-spacing: 0px ; text-decoration: none ; background-color: rgb(43 , 43 , 43) ; color: rgb(169 , 183 , 198) ; font-family: &amp;#34;jetbrains mono&amp;#34; , monospace ; font-size: 7px&quot;&gt;&lt;span style=&quot;color: rgb(204 , 120 , 50)&quot;&gt;private &lt;/span&gt;Map&amp;lt;String&lt;span style=&quot;color: rgb(204 , 120 , 50)&quot;&gt;, &lt;/span&gt;?&amp;gt; &lt;span style=&quot;color: rgb(255 , 198 , 109)&quot;&gt;loadProperties&lt;/span&gt;(Resource resource) &lt;span style=&quot;color: rgb(204 , 120 , 50)&quot;&gt;throws &lt;/span&gt;IOException {&lt;/pre&gt;" style="text;whiteSpace=wrap;html=1;" vertex="1" parent="1">
          <mxGeometry x="545" y="2575" width="550" height="50" as="geometry" />
        </mxCell>
        <mxCell id="kll7W4Ml-uQDBgVJ0LRq-161" value="&lt;pre style=&quot;font-style: normal ; font-weight: normal ; letter-spacing: normal ; text-indent: 0px ; text-transform: none ; word-spacing: 0px ; text-decoration: none ; background-color: rgb(43 , 43 , 43) ; color: rgb(169 , 183 , 198) ; font-family: &amp;#34;jetbrains mono&amp;#34; , monospace ; font-size: 8px&quot;&gt;&lt;span style=&quot;color: rgb(204 , 120 , 50)&quot;&gt;public &lt;/span&gt;List&amp;lt;PropertySource&amp;lt;?&amp;gt;&amp;gt; &lt;span style=&quot;color: rgb(255 , 198 , 109)&quot;&gt;load&lt;/span&gt;(String name&lt;span style=&quot;color: rgb(204 , 120 , 50)&quot;&gt;, &lt;/span&gt;Resource resource) &lt;span style=&quot;color: rgb(204 , 120 , 50)&quot;&gt;throws &lt;/span&gt;IOException {&lt;/pre&gt;" style="text;whiteSpace=wrap;html=1;" vertex="1" parent="1">
          <mxGeometry x="465" y="2435" width="550" height="50" as="geometry" />
        </mxCell>
        <mxCell id="kll7W4Ml-uQDBgVJ0LRq-163" value="" style="endArrow=classic;html=1;dashed=1;dashPattern=1 2;entryX=0.991;entryY=1.19;entryDx=0;entryDy=0;entryPerimeter=0;" edge="1" parent="1">
          <mxGeometry width="50" height="50" relative="1" as="geometry">
            <mxPoint x="1570.2599999999995" y="2920" as="sourcePoint" />
            <mxPoint x="1569.9999999999998" y="2855.7" as="targetPoint" />
          </mxGeometry>
        </mxCell>
        <mxCell id="kll7W4Ml-uQDBgVJ0LRq-164" value="return list of&amp;nbsp;PropertySource" style="text;html=1;strokeColor=none;fillColor=none;align=center;verticalAlign=middle;whiteSpace=wrap;rounded=0;dashed=1;dashPattern=1 2;" vertex="1" parent="1">
          <mxGeometry x="1560" y="2870" width="190" height="20" as="geometry" />
        </mxCell>
        <mxCell id="kll7W4Ml-uQDBgVJ0LRq-165" value="" style="shape=image;verticalLabelPosition=bottom;labelBackgroundColor=#ffffff;verticalAlign=top;aspect=fixed;imageAspect=0;image=data:image/png,iVBORw0KGgoAAAANSUhEUgAAAYgAAAA4CAYAAADn/m/nAAABJ2lDQ1BrQ0dDb2xvclNwYWNlQWRvYmVSR0IxOTk4AAAokWNgYFJILCjIYRJgYMjNKykKcndSiIiMUmB/ysDMIMnAyyDKIJaYXFzgGBDgwwAEMBoVfLvGwAiiL+uCzMKUxwu4UlKLk4H0HyDOTi4oKmFgYMwAspXLSwpA7B4gWyQpG8xeAGIXAR0IZG8BsdMh7BNgNRD2HbCakCBnIPsDkM2XBGYzgeziS4ewBUBsqL0gIOiYkp+UqgDyvYahpaWFJol+IAhKUitKQLRzfkFlUWZ6RomCIzCkUhU885L1dBSMDIwMGRhA4Q5R/TkQHJ6MYmcQYgiAEJsjwcDgv5SBgeUPQsykl4FhgQ4DA/9UhJga0HQBfQaGfXOSS4vKoMYwMhkzMBDiAwAOR0pMZV63WQAAAIplWElmTU0AKgAAAAgABAEaAAUAAAABAAAAPgEbAAUAAAABAAAARgEoAAMAAAABAAIAAIdpAAQAAAABAAAATgAAAAAAAACQAAAAAQAAAJAAAAABAAOShgAHAAAAEgAAAHigAgAEAAAAAQAAAYigAwAEAAAAAQAAADgAAAAAQVNDSUkAAABTY3JlZW5zaG90kzRMSwAAAAlwSFlzAAAWJQAAFiUBSVIk8AAAAdVpVFh0WE1MOmNvbS5hZG9iZS54bXAAAAAAADx4OnhtcG1ldGEgeG1sbnM6eD0iYWRvYmU6bnM6bWV0YS8iIHg6eG1wdGs9IlhNUCBDb3JlIDUuNC4wIj4KICAgPHJkZjpSREYgeG1sbnM6cmRmPSJodHRwOi8vd3d3LnczLm9yZy8xOTk5LzAyLzIyLXJkZi1zeW50YXgtbnMjIj4KICAgICAgPHJkZjpEZXNjcmlwdGlvbiByZGY6YWJvdXQ9IiIKICAgICAgICAgICAgeG1sbnM6ZXhpZj0iaHR0cDovL25zLmFkb2JlLmNvbS9leGlmLzEuMC8iPgogICAgICAgICA8ZXhpZjpQaXhlbFhEaW1lbnNpb24+MzkyPC9leGlmOlBpeGVsWERpbWVuc2lvbj4KICAgICAgICAgPGV4aWY6VXNlckNvbW1lbnQ+U2NyZWVuc2hvdDwvZXhpZjpVc2VyQ29tbWVudD4KICAgICAgICAgPGV4aWY6UGl4ZWxZRGltZW5zaW9uPjU2PC9leGlmOlBpeGVsWURpbWVuc2lvbj4KICAgICAgPC9yZGY6RGVzY3JpcHRpb24+CiAgIDwvcmRmOlJERj4KPC94OnhtcG1ldGE+CgcXAlsAAAAcaURPVAAAAAIAAAAAAAAAHAAAACgAAAAcAAAAHAAACEjmfs51AAAIFElEQVR4AexdaW8bVRS9431JbCdOkzYphKYLS0urslSClkKLkPgGQvA7QOJvIT6wlbWi8KEsIgW6Ad3bbM3m2ImXxHbMPTMZe7xMYnvSzNi9V0ptz/i9d965d+55m1Xl1OtnSiTW0Qz09ITp448+VPvw+Zdf0filPzu6PwJeGBAGnMGAIgLhDEdYQSECYYU9KSsMCANmDIhAmDHTQde9Xi+9efYNFfHly1dpcmqqg9ALVGFAGHAqAyIQTvWM4BIGhAFhwGYGRCBsdoA0LwwIA8KAUxkQgXCqZwSXMCAMCAM2MyACYbMDpHlhQBgQBpzKgAiEUz0juIQBYUAYsJkBEQibHSDNCwPCgDDgVAZEIJzqGcElDAgDwoDNDIhA2OwAaV4YEAaEAacyIALhVM8ILmFAGBAGbGZABMJmB0jzwoAwIAw4lQERCKd6RnAJA8KAMGAzAyIQNjtAmhcGhAFhwKkMiEA41TOCSxgQBoQBmxnoSoHoOajQyg35by5sji1pXhgQBjqcga4TiNCoQrHjCk1/sU6lQod7R+ALA8KAMGAjA10lEL5+ooHTCiluosVfSpSdtJHZHWw6uj9Aiosot1Cg3GJFFRWFKHYoSN5eNy39m6W15eIOorLWVCdjt9ZzKd0uAxIz7TJnXq5rBMIXVyj+KpHLp3U2c6dEiXHzjnfTnYMfxFkUFVq8lqH5vzPlrvU+4ac9J3vVz5mZPE38mCzfc/qbTsbudG67FZ/EzPZ7tisEIjxGFD3m4lF0Zd+hmCaa+bryefupc06NZgLRs9dHw6ciKlAnCYTb76K+Z4IqrtTtXMOZjVOxO8frjxcSiRl7/N3RAuHt4/2GY0S+eGPyZs6VqFgZUDf+UhdcNROI8pQ77KKlG40TsR3d98c8NPp2TG166ucUrUyu1cFwKvY6oHJhRxiQmNkRmusa6TyB4HX1wJBCwVGi4AjvNyjms4TFi7wP8Rj898xmAlHnbYdcaOZhdwhUgeEQBiRm7HGEYwXCE2ZCeLPZ5Vd4X6FE3h4iT1ShwCCuNUfW8nWi1DVzATGrxeVRyBPCkpVCa6kCldbNvml+HXV4e9xUKpYony62XEcr5bdFIFh4PQEXeYIuxrtOxdXmO90qX9v+sBuwr+eZ7wyfYGPeWzX0wxdxt9z/ZttpxaeN6oRvEJd5PmxQXGvQv23gwRJGtA+M/FfMlaiQ4bhvALNR3/RrZn18JDHTJlYcCPFFPPxM49luL9b0/jr91REC4Q7wrGCE/zj5Y7O5WQFoTC5HKWlRidkDZhHNWmi3l+KHQxTc5S0XgTisJQuU4FNAqbur5ev6G6yN7n+Xj0+xTVxIqg/GruNhCg1V6lgvlCh5M8cbyOk6obBaHu2aCQQ2rg+8zxvY/J3Z8RV1mQnfrzK+GX8uRNGDAVUg9HsI/OxcnuYupU3FolW+Ivv8tPsEb5oDkNE2XDR9cZmW72scN4Mdy1D97K/ogWrs8NnK5Cot8IZ9o5NbtZy7vdqeiL/fwzNSDVghu672XcdjhLvV+9r6kSytxASSUYz7CPGCzfy6Qqk7uTKMdniwirHcOL9R2z8SUjGiXt0g1slbzcW9WR8fScy0iFXvD57pgaNh8ve51cGjfh37e/NX0pSbr5wg1O91+qutAuHiHBo5rFBoHwdZJa7a5hT7Da5gZdkpn+DEeL45gQgNemnkTLScIBqBwAkhnBQyGkbdYxsCgfvxw0H1RJHxO/p7PCwPf1/RP6qvVsujEjOBwGgQAgFDoofI1drQSz1qgq29rn/G7GfqpxStJquPyLbDV3QsQEMneCpoYqpA3NMEoinsXBfqNDOI3IPvlwjJ3mhGzhP/ZNWjwGbxB3/Bb62YsX6rMbHMfPSOVk+ZawUCnLbKg1WMRj62aj/FfZhh8Teasf3N+rjTMdMIK3D38XFxiHzd4GajU5hNTF5IUeZh3tjNjn9vm0B4OE/ET/JSjnm+qCI384Ao8VtzyV4vGDmiUOrK1mXcnOSf4k1TvGJpAsk0uzEaCO/xqgkEU1/YrU8Xqqb3xkDX20VCwcZrgZc6MOqIHQqQN6yN/mb/qB7JWy2PNtsVCIy+B54PqbAhAMmbWcrO5snHm8g4RYRjg7A1vnf3HKvthrXLF5I+yvqjbhp+TTtdBT7S09pDhUSuLw1tJRBxxo3ZHmw1UVCTeAbY+TcfwB7ZpwnH6lKBHvyQJIxmdavlvLhaooXLaUJ5JIDIaID6n+VTVvweS223P0uUcel1bPZaWz++ayUmwAkOGWBGh35gVqSLXrs8WMWo97+fZ58DRzU/IDku/ZelHPvD3+ehvqeDhIEEbOFqhjmuDK5q2zfr43bGTLtY1dnse/3qwA/cz/KgITuf56U0N4WHvTT4AicxjpXa50TnqJNfbREILCntOsvJQjvpuCV/pZJCs9/xmuZy5SHfshB/wcNxW6jEpGmRQNxDcZ52wtQHeaL6VE2Ml18GX9SUrPbUTW2gJ/gBmRvnM7YG83FCfPKtGCHY8SDc/GShvDZrtTyaaUcgjO0i2dz/tn6kveeV3vLoFUkWCQpmhS+Ub2Y9eTOBgFiPvaMt60GE732zVLcMNvQyj6r5B4Sw+b/StHi9Mnsy9h3LfxPnk1U/MESZQZ5ZYVkHBm6MP0BUL27yj7F+fM1KTAAfRqY698ZmrfBgFSNwGOuAuAKnLvC4Dx/u5Vk54gV7EWrcb+wNGctu1kfUA7McM4aZfqtYw8M+GjmtDWjQx/R0dX6AEIZHtB9gYbaN/nSL/Q8AAP//xcmHCgAADOpJREFU7VvpcxxHFX+zl7Sr+7Isn5GPGBsfsWNs7CSkEpyLEBOIQ1U+AFUURcEn/hY+QVEUVcCHVFEOJCbhCAlJcDmOE2Njx7ET8CVbliXrPlbSrrQr3q9HLbVGM7OzM+s9VP2qpNmZ6e735tc9/ev3Xo/x6ONPzFGRpemAQYn13pVO3SEa+miOVq9ZR08ffclTxbdPvEa9Pd2eyuYqFIoatOU7LUQG0eClSfEn60SqQ7TpxWZxmh7PUNdfhmnOBtGmbXFq21sjynX9bYRSI7Pid9D6aGTryy1khA0aujxJAxcnRbv4F4qw3cfYbpb+80ka/mJK/Ma/mrUxWvtYvTjvOTlGE3fSC/fkj3CVQY1b4+K5J3tnaKp/Rt5yPbrhhYpVjRHa+GyjaMNJt1fb73wwRsm7y203QkSdLzRTJB6i8dspuntqfMFmFXM8N2ywSrwtSuu/3iAu3/1wnMZvpaxFHM/V9oOOCavtqlK1D/PFIaiNsKNmDY+hr5lj6NY/Rmh60BzTqo2162K05tHlZVT9bs8o2wo8ZgLYWre+ijoeqROmDF2ZooELSWnWij8axSaIWBNR25P89pLNLGoLt0F972RpdpQEOYAkvAjIASThRyKJEGEAh2IGhaPmcdX+WjKYIKyTsDrQx26kqPfM4kSk6q5ujdCGI+ak2PvROI3dNCecoPWhww9BtOxKUMuXE8LEa38apEzKa3+oT2X+zgcv1Aj6si+x/Y9se9redkxemMRmJjJ0483hBcNVzEGo6FOrRGtCgmBwve+TCRq9Nm0t4niuth90TNw7l6SR/y4Su6o0CA5BbYQdLTt5DPEfBAQ1Z7Mygp7VXzUn13tnJ2jkqomjqt/tGUXj/C/wmAliK88Hnc83iUUY7MHiDuNhsm+G0mMZaeKKPBadIBr2GFS7xTuWUz08KZ929h5+98ufi8a+/5OfLWs0Hy8CK00M9lpeWYd5UDuJG0FYV+lqG2JV/ZK5msdKHmUh6ovipz7a8EMQax/nybMjRrNTWbr+xhCayUv84gUlQV92OfHnsr11Tw01b2cPiOWaQiQq5k6TP8bA5nnP0KmMaNjmn9q+nz5V67vpDoKDqsOPjXhsqd8GAttLo0wOfUwSEFW/2zPKhgo1ZmR7uY6qrShbt6GK2vbVCLvVuplUlkavp2j48yleZGXVWyvid9EJYtVTBkVNj9MDgAb1v5ul9Mhy76Gnu4uuXLxAd27dEO2s3dBJ23fvoTXrNi6069WLiNaGacNTDRSuWiSGzDR7LbyqzqazYoUK4oD4Jggl3OOLIBzqwyZfBMHhJYQo8JzXXs+PIILgBXsL9bJXPEE49KnXyVNO0H5wUHW4EoSDjehHqR/BgOnh5eEllFElyeG8wc9Mb03VX1SC8GGrfAaEcRu3VlP9xioxhhFylpKdnROLvnw8TVm3nI9FJ4iOFxCy4V7yINO9HPM/tdx7uHjuY/rPx6dtW3jowCHave/Awj0vXgRc4PoHqkSdYXbnhz6zrAZ4IGx9uZUQ13YjiKDhBD/1YbQfgkB4CSEKCAgCROFVguAFHUEJQg2tXGXPIJsrxJTkENOf7UNMTpNToTwIP33qdfIMgoOqw4+N6MdWHj/NPI7meOhcfW2Q5jLe3mvUVfU79QHKSQk6ZoLYKm1Qjwg/JzhP1bClWnjiuAccbr41RDNJ7++S2mY5/i4+QRw1KBT1BkX/e3OU5sUtEtMy9yC9AiMUoocPPkJnT58Uje0/9Bj9+8wp7qSsbXk3jUhmIuYMF/H6G5xkzi4d6PFWTlgeMROWbgQRNCHppz6eyw9BqAlGJHCRKLQKEsX1m6rF5emBGZoeMleJQfBCY+rL7qbbS4I93+Qs9HuZnApFEH761It9eI5SJ6nVBHT3P0dp8p63TQxe+wDlpAQdM0FslTY4HSX54L7TeHaqW+7Xi04Qq57kEBMnqnNJ6h7RwMnl3sM7b75OCC+BEHbs2UdqDuLyhXOCMBBmOvLNFxdU5PIiNj7TSFVNEbESvX5iiOAuSoHX0HG4njDAIG4Egftq+AjnkFg9h7CebhS7irDKunqcV1vzKtTJAGXzrY86fggC4bTN3zZ3X8F76Pr7iMhHoD0pqw/WUn2nSRDd7/MEwDuZIEHwQn3g8cA3zEFg97wo47aLCfmPTd8ybcdq7dbbw8uS7O28qQCrOwh2nWD3iRQVc6fVqxtBINRQt8HM30hMZNs4qu3j3O4ZvY4JJ/uEngA4BLVR6Ofk7aajZj+kOMR0+93RJe8OysAzb95heqr9nHBP9po7zlT9bs+INiCBx0wAW9seqqH4qqh4tp5/jS1/xs4qWn3QTMTnS5Tm05Xv/6ITRMNOTlJvyw3IwAdzlBpY6j2g1h9++yuanpqi7/7gx1Qdjy8hCFzHfVzHfSnS65Dn1qOazMR2Ruy0wO6EaiaNpi/FKdG+6PLkIgi0jQTXRHeaZnniTfDAanywmhC3h6g7OXCuvig4h+RTH+X9EATqIYGLZ4ekRzP83FNiZwZsreXdP3KCte4CCoIXdGGChc0QYDTEW4exI2RmMrsQpnAjCNRTV23wbBD7xTZcYTvnVho2m+SAHSdi4ppZJH0Vc6fJyY0gOg7XiaQl7Og9M0FjN5bucFLbRxlIPn2q1neyz2zVPw6qDtlWPjbKOq27eSPADnMjAPAHGU4PzFKEPfJEe0z0E2L1GEM3sQV8Pvqi6s/1jNBVkDHj01aQnNyJhXHaf26CUjw/hHgcJ1ZHCTsc8Twin4cNH4tDTcJUsceiE0SIQ/3tz7iHmTK8waefCSLDiz41vASUX/3NL2gmnaZj3/sRJWrMyU2iP5lM0vHf/5qisRi98sOfysviewi3La+xujCt4z3v6GQ7mWLXOcplsHJ1IwiQC/ZMq8krtT1MYngZVFFfFD/10ZZfgkDdVQ/XisQbftsJJnB8J6DucQ+Cl9Qhd1HJcxzvnuZQV5cZ6spFECjffoC9hPkQGM6tMsuEg/35SOKqomLuNDm5EQRWzdjaC7kfferFPvV5/OCg6vA77qQNHYeYMDlx6yTIEfWcGhOLAFlG1e/UB7KsPBZizPix1QgZ4puY6paINEUQHaILUhAZwGIBWK4kKTpBALyqdl69HlwkiVkmhPQg7y/uxx8Tg/IdivXjOBku2sf5h5179y/pi0vnz9I5zkM41VlS2HKCFx5uYpy/V8BqBYLVDlbVg59OirAKVqfYhYFzKdaBPsMJUbikiJlKQcgKq7OBi8mFFZS8F7Q+2kGsHhOq1TZ11eW415wftYVDAA28OwO2SAExYEWIsIB1gkUZv3jJ9kG28M4Qwgpzwg+iEoQX2/FdSjNvTW5kbwETuhSE75LdKfHRIHIAVlHDa3YeAMq7lcFOFvQxvr8Q5Dmfm5F6gvapm26pQz36wSGojUv08wTaujsh8lWyL3Ef+Ez2pW3HUL7PiPYKMmZ82ArdAmO8JzzW5OIA17PsmWLxdI+9ipX4TURJCALAhnnxH603KD3MW0mXeui4TeEEJg0mC56LVS/idtcNeu+vJygcDtGe/Ydo87btovy1L67QhbOnKZPJ0hPPHaX1GzvF9VzhJVFI+YdVgQwHzUxwyMOSsFaKip/WF01uc8MLgIGElYVbO0HrW+3xfc5w4wWEPSAEO1KwaztfvKxt4MUz+Et19LbTB2/WOsvOFdtBxvAc1DzSsvIFuCAWEcxEMmSiNlmyPs0Dh/thI/oykggzuRp5jSEVOy+/CzFmgtiKb5qiNWFBDlgQrmQpGUHYgRrh7yPiaw2qXmNQrJGZudd+m+v5Mx/Sp+c/sWuCdu39Cu09eHjhnvQ4Fi4U+IfTi+ZVTdD6XvXocsVDoBL6tBJsLF6PaU1OCJQFQUTqDKpqmaOQmetasBVhk/HP2cPgzTOqF4EC3exJYNfSQH+fKN/a1i52Na2b9xxwMV/vQTSU57+gL1rQ+nmaq4sXAYFK6NNKsLEIXaVV5ECgLAgih43itjWv4KXO/fYeYEPQFy1ofS846DLFRaAS+rQSbCxur2ltdghUDEHAeKsXYfdA8loxvAfogpeDBB1kjHfgqLt9xMUc/4LWz9G8vl0CBCqhTyvBxhJ0nVZpQaCiCCIfL6IY3oMFS32qEdAIaARWFAIVRRArCnn9MBoBjYBGoMwR0ARR5h2kzdMIaAQ0AqVCQBNEqZDXejUCGgGNQJkjoAmizDtIm6cR0AhoBEqFgCaIUiGv9WoENAIagTJHQBNEmXeQNk8joBHQCJQKAU0QpUJe69UIaAQ0AmWOgCaIMu8gbZ5GQCOgESgVApogSoW81qsR0AhoBMocAU0QZd5B2jyNgEZAI1AqBMqaILbu2En/u3xJYPP8sVc8YfTW8Vc9ldOFNAIaAY2ARsAdgbIlCJDDgzt2kZzwNUG4d6S+qxHQCGgECo3A/wEAHX4CohcB2gAAAABJRU5ErkJggg==;fontSize=10;strokeWidth=6;" vertex="1" parent="1">
          <mxGeometry x="1384.5" y="2997" width="91" height="13" as="geometry" />
        </mxCell>
        <mxCell id="kll7W4Ml-uQDBgVJ0LRq-166" value="Ressource" style="text;html=1;strokeColor=none;fillColor=none;align=center;verticalAlign=middle;whiteSpace=wrap;rounded=0;dashed=1;dashPattern=1 2;fontSize=10;" vertex="1" parent="1">
          <mxGeometry x="1410" y="2975" width="40" height="20" as="geometry" />
        </mxCell>
        <mxCell id="kll7W4Ml-uQDBgVJ0LRq-222" value="" style="edgeStyle=orthogonalEdgeStyle;rounded=0;orthogonalLoop=1;jettySize=auto;html=1;fontSize=9;fontColor=#000000;" edge="1" parent="1" source="kll7W4Ml-uQDBgVJ0LRq-223" target="kll7W4Ml-uQDBgVJ0LRq-225">
          <mxGeometry relative="1" as="geometry" />
        </mxCell>
        <mxCell id="kll7W4Ml-uQDBgVJ0LRq-223" value="ConfigDataEnvironmentPostProcessor" style="shape=umlLifeline;perimeter=lifelinePerimeter;container=1;collapsible=0;recursiveResize=0;rounded=0;shadow=0;strokeWidth=1;" vertex="1" parent="1">
          <mxGeometry x="480" y="2830" width="230" height="30" as="geometry" />
        </mxCell>
        <mxCell id="kll7W4Ml-uQDBgVJ0LRq-224" value="" style="edgeStyle=orthogonalEdgeStyle;rounded=0;orthogonalLoop=1;jettySize=auto;html=1;fontSize=9;fontColor=#000000;" edge="1" parent="1" source="kll7W4Ml-uQDBgVJ0LRq-225" target="kll7W4Ml-uQDBgVJ0LRq-227">
          <mxGeometry relative="1" as="geometry" />
        </mxCell>
        <mxCell id="kll7W4Ml-uQDBgVJ0LRq-225" value="postProcessEnvironment" style="shape=umlLifeline;perimeter=lifelinePerimeter;container=1;collapsible=0;recursiveResize=0;rounded=0;shadow=0;strokeWidth=1;" vertex="1" parent="1">
          <mxGeometry x="480" y="2940" width="230" height="30" as="geometry" />
        </mxCell>
        <mxCell id="kll7W4Ml-uQDBgVJ0LRq-226" value="" style="edgeStyle=orthogonalEdgeStyle;rounded=0;orthogonalLoop=1;jettySize=auto;html=1;fontSize=9;fontColor=#000000;" edge="1" parent="1" source="kll7W4Ml-uQDBgVJ0LRq-227" target="kll7W4Ml-uQDBgVJ0LRq-240">
          <mxGeometry relative="1" as="geometry" />
        </mxCell>
        <mxCell id="kll7W4Ml-uQDBgVJ0LRq-227" value="getConfigDataEnvironment" style="shape=umlLifeline;perimeter=lifelinePerimeter;container=1;collapsible=0;recursiveResize=0;rounded=0;shadow=0;strokeWidth=1;" vertex="1" parent="1">
          <mxGeometry x="480" y="3050" width="230" height="30" as="geometry" />
        </mxCell>
        <mxCell id="kll7W4Ml-uQDBgVJ0LRq-228" value="" style="edgeStyle=orthogonalEdgeStyle;rounded=0;orthogonalLoop=1;jettySize=auto;html=1;fontSize=9;fontColor=#000000;" edge="1" parent="1" source="kll7W4Ml-uQDBgVJ0LRq-229" target="kll7W4Ml-uQDBgVJ0LRq-231">
          <mxGeometry relative="1" as="geometry" />
        </mxCell>
        <mxCell id="kll7W4Ml-uQDBgVJ0LRq-229" value="ConfigDataEnvironment" style="shape=umlLifeline;perimeter=lifelinePerimeter;container=1;collapsible=0;recursiveResize=0;rounded=0;shadow=0;strokeWidth=1;" vertex="1" parent="1">
          <mxGeometry x="770" y="2830" width="230" height="30" as="geometry" />
        </mxCell>
        <mxCell id="kll7W4Ml-uQDBgVJ0LRq-230" value="" style="edgeStyle=orthogonalEdgeStyle;rounded=0;orthogonalLoop=1;jettySize=auto;html=1;fontSize=9;fontColor=#000000;" edge="1" parent="1" source="kll7W4Ml-uQDBgVJ0LRq-447" target="kll7W4Ml-uQDBgVJ0LRq-233">
          <mxGeometry relative="1" as="geometry" />
        </mxCell>
        <mxCell id="kll7W4Ml-uQDBgVJ0LRq-231" value="createContributors" style="shape=umlLifeline;perimeter=lifelinePerimeter;container=1;collapsible=0;recursiveResize=0;rounded=0;shadow=0;strokeWidth=1;" vertex="1" parent="1">
          <mxGeometry x="770" y="2940" width="230" height="30" as="geometry" />
        </mxCell>
        <mxCell id="kll7W4Ml-uQDBgVJ0LRq-232" value="" style="edgeStyle=orthogonalEdgeStyle;rounded=0;orthogonalLoop=1;jettySize=auto;html=1;fontSize=9;fontColor=#000000;" edge="1" parent="1" source="kll7W4Ml-uQDBgVJ0LRq-233" target="kll7W4Ml-uQDBgVJ0LRq-235">
          <mxGeometry relative="1" as="geometry" />
        </mxCell>
        <mxCell id="kll7W4Ml-uQDBgVJ0LRq-233" value="ConfigDataEnvironmentContributor.&#xa;ofExisting" style="shape=umlLifeline;perimeter=lifelinePerimeter;container=1;collapsible=0;recursiveResize=0;rounded=0;shadow=0;strokeWidth=1;" vertex="1" parent="1">
          <mxGeometry x="770" y="3050" width="230" height="30" as="geometry" />
        </mxCell>
        <mxCell id="kll7W4Ml-uQDBgVJ0LRq-234" value="" style="edgeStyle=orthogonalEdgeStyle;rounded=0;orthogonalLoop=1;jettySize=auto;html=1;fontSize=9;fontColor=#000000;" edge="1" parent="1" source="kll7W4Ml-uQDBgVJ0LRq-235" target="kll7W4Ml-uQDBgVJ0LRq-237">
          <mxGeometry relative="1" as="geometry" />
        </mxCell>
        <mxCell id="kll7W4Ml-uQDBgVJ0LRq-235" value="getInitialImportContributors" style="shape=umlLifeline;perimeter=lifelinePerimeter;container=1;collapsible=0;recursiveResize=0;rounded=0;shadow=0;strokeWidth=1;" vertex="1" parent="1">
          <mxGeometry x="770" y="3160" width="230" height="30" as="geometry" />
        </mxCell>
        <mxCell id="kll7W4Ml-uQDBgVJ0LRq-236" value="" style="edgeStyle=orthogonalEdgeStyle;rounded=0;orthogonalLoop=1;jettySize=auto;html=1;fontSize=9;fontColor=#000000;" edge="1" parent="1" source="kll7W4Ml-uQDBgVJ0LRq-237" target="kll7W4Ml-uQDBgVJ0LRq-239">
          <mxGeometry relative="1" as="geometry" />
        </mxCell>
        <mxCell id="kll7W4Ml-uQDBgVJ0LRq-237" value="addInitialImportContributors" style="shape=umlLifeline;perimeter=lifelinePerimeter;container=1;collapsible=0;recursiveResize=0;rounded=0;shadow=0;strokeWidth=1;" vertex="1" parent="1">
          <mxGeometry x="770" y="3270" width="230" height="30" as="geometry" />
        </mxCell>
        <mxCell id="kll7W4Ml-uQDBgVJ0LRq-238" value="" style="edgeStyle=orthogonalEdgeStyle;rounded=0;orthogonalLoop=1;jettySize=auto;html=1;fontSize=9;fontColor=#000000;" edge="1" parent="1" source="kll7W4Ml-uQDBgVJ0LRq-239" target="kll7W4Ml-uQDBgVJ0LRq-244">
          <mxGeometry relative="1" as="geometry" />
        </mxCell>
        <mxCell id="kll7W4Ml-uQDBgVJ0LRq-239" value="ConfigDataEnvironmentContributor.&#xa;ofInitialImport(location)" style="shape=umlLifeline;perimeter=lifelinePerimeter;container=1;collapsible=0;recursiveResize=0;rounded=0;shadow=0;strokeWidth=1;" vertex="1" parent="1">
          <mxGeometry x="770" y="3380" width="230" height="30" as="geometry" />
        </mxCell>
        <mxCell id="kll7W4Ml-uQDBgVJ0LRq-240" value="use classic ApplicationListenner" style="shape=umlLifeline;perimeter=lifelinePerimeter;container=1;collapsible=0;recursiveResize=0;rounded=0;shadow=0;strokeWidth=1;" vertex="1" parent="1">
          <mxGeometry x="480" y="3160" width="230" height="30" as="geometry" />
        </mxCell>
        <mxCell id="kll7W4Ml-uQDBgVJ0LRq-241" value="" style="shape=image;html=1;verticalAlign=top;verticalLabelPosition=bottom;labelBackgroundColor=#ffffff;imageAspect=0;aspect=fixed;image=https://cdn2.iconfinder.com/data/icons/free-mobile-icon-kit/64/Exception.png;rounded=0;dashed=1;dashPattern=1 2;strokeColor=#7EA6E0;strokeWidth=6;fillColor=#ffffff;gradientColor=none;fontSize=9;fontColor=#000000;" vertex="1" parent="1">
          <mxGeometry x="630" y="3100" width="50" height="50" as="geometry" />
        </mxCell>
        <mxCell id="kll7W4Ml-uQDBgVJ0LRq-242" value="" style="endArrow=classic;html=1;dashed=1;dashPattern=1 2;fontSize=9;fontColor=#000000;entryX=1;entryY=0.75;entryDx=0;entryDy=0;exitX=0.017;exitY=1.076;exitDx=0;exitDy=0;exitPerimeter=0;" edge="1" parent="1" source="kll7W4Ml-uQDBgVJ0LRq-229" target="kll7W4Ml-uQDBgVJ0LRq-241">
          <mxGeometry width="50" height="50" relative="1" as="geometry">
            <mxPoint x="790" y="2980" as="sourcePoint" />
            <mxPoint x="840" y="2930" as="targetPoint" />
            <Array as="points">
              <mxPoint x="720" y="3100" />
            </Array>
          </mxGeometry>
        </mxCell>
        <mxCell id="kll7W4Ml-uQDBgVJ0LRq-243" value="" style="edgeStyle=orthogonalEdgeStyle;rounded=0;orthogonalLoop=1;jettySize=auto;html=1;fontSize=9;fontColor=#000000;" edge="1" parent="1" source="kll7W4Ml-uQDBgVJ0LRq-244" target="kll7W4Ml-uQDBgVJ0LRq-246">
          <mxGeometry relative="1" as="geometry" />
        </mxCell>
        <mxCell id="kll7W4Ml-uQDBgVJ0LRq-244" value="processAndApply" style="shape=umlLifeline;perimeter=lifelinePerimeter;container=1;collapsible=0;recursiveResize=0;rounded=0;shadow=0;strokeWidth=1;" vertex="1" parent="1">
          <mxGeometry x="770" y="3490" width="230" height="30" as="geometry" />
        </mxCell>
        <mxCell id="kll7W4Ml-uQDBgVJ0LRq-245" value="" style="edgeStyle=orthogonalEdgeStyle;rounded=0;orthogonalLoop=1;jettySize=auto;html=1;fontSize=9;fontColor=#000000;" edge="1" parent="1" source="kll7W4Ml-uQDBgVJ0LRq-246" target="kll7W4Ml-uQDBgVJ0LRq-248">
          <mxGeometry relative="1" as="geometry" />
        </mxCell>
        <mxCell id="kll7W4Ml-uQDBgVJ0LRq-246" value="processInitial" style="shape=umlLifeline;perimeter=lifelinePerimeter;container=1;collapsible=0;recursiveResize=0;rounded=0;shadow=0;strokeWidth=1;" vertex="1" parent="1">
          <mxGeometry x="770" y="3600" width="230" height="30" as="geometry" />
        </mxCell>
        <mxCell id="kll7W4Ml-uQDBgVJ0LRq-247" value="" style="edgeStyle=orthogonalEdgeStyle;rounded=0;orthogonalLoop=1;jettySize=auto;html=1;fontSize=9;fontColor=#000000;" edge="1" parent="1" source="kll7W4Ml-uQDBgVJ0LRq-248" target="kll7W4Ml-uQDBgVJ0LRq-250">
          <mxGeometry relative="1" as="geometry" />
        </mxCell>
        <mxCell id="kll7W4Ml-uQDBgVJ0LRq-248" value="processWithoutProfiles" style="shape=umlLifeline;perimeter=lifelinePerimeter;container=1;collapsible=0;recursiveResize=0;rounded=0;shadow=0;strokeWidth=1;" vertex="1" parent="1">
          <mxGeometry x="770" y="3710" width="230" height="30" as="geometry" />
        </mxCell>
        <mxCell id="kll7W4Ml-uQDBgVJ0LRq-249" value="" style="edgeStyle=orthogonalEdgeStyle;rounded=0;orthogonalLoop=1;jettySize=auto;html=1;fontSize=9;fontColor=#000000;" edge="1" parent="1" source="kll7W4Ml-uQDBgVJ0LRq-250" target="kll7W4Ml-uQDBgVJ0LRq-252">
          <mxGeometry relative="1" as="geometry" />
        </mxCell>
        <mxCell id="kll7W4Ml-uQDBgVJ0LRq-250" value="withProfiles" style="shape=umlLifeline;perimeter=lifelinePerimeter;container=1;collapsible=0;recursiveResize=0;rounded=0;shadow=0;strokeWidth=1;" vertex="1" parent="1">
          <mxGeometry x="770" y="3820" width="230" height="30" as="geometry" />
        </mxCell>
        <mxCell id="kll7W4Ml-uQDBgVJ0LRq-251" value="" style="edgeStyle=orthogonalEdgeStyle;rounded=0;orthogonalLoop=1;jettySize=auto;html=1;fontSize=9;fontColor=#000000;" edge="1" parent="1" source="kll7W4Ml-uQDBgVJ0LRq-252" target="kll7W4Ml-uQDBgVJ0LRq-253">
          <mxGeometry relative="1" as="geometry" />
        </mxCell>
        <mxCell id="kll7W4Ml-uQDBgVJ0LRq-252" value="processWithProfiles" style="shape=umlLifeline;perimeter=lifelinePerimeter;container=1;collapsible=0;recursiveResize=0;rounded=0;shadow=0;strokeWidth=1;" vertex="1" parent="1">
          <mxGeometry x="770" y="3930" width="230" height="30" as="geometry" />
        </mxCell>
        <mxCell id="kll7W4Ml-uQDBgVJ0LRq-253" value="applyToEnvironment" style="shape=umlLifeline;perimeter=lifelinePerimeter;container=1;collapsible=0;recursiveResize=0;rounded=0;shadow=0;strokeWidth=1;" vertex="1" parent="1">
          <mxGeometry x="770" y="4040" width="230" height="30" as="geometry" />
        </mxCell>
        <mxCell id="kll7W4Ml-uQDBgVJ0LRq-255" value="withProcessedImports" style="shape=umlLifeline;perimeter=lifelinePerimeter;container=1;collapsible=0;recursiveResize=0;rounded=0;shadow=0;strokeWidth=1;" vertex="1" parent="1">
          <mxGeometry x="1080" y="2830" width="230" height="30" as="geometry" />
        </mxCell>
        <mxCell id="kll7W4Ml-uQDBgVJ0LRq-257" value="get importPhase" style="shape=umlLifeline;perimeter=lifelinePerimeter;container=1;collapsible=0;recursiveResize=0;rounded=0;shadow=0;strokeWidth=1;" vertex="1" parent="1">
          <mxGeometry x="1078" y="2940" width="230" height="30" as="geometry" />
        </mxCell>
        <mxCell id="kll7W4Ml-uQDBgVJ0LRq-258" value="" style="edgeStyle=orthogonalEdgeStyle;rounded=0;orthogonalLoop=1;jettySize=auto;html=1;fontSize=9;fontColor=#000000;" edge="1" parent="1" source="kll7W4Ml-uQDBgVJ0LRq-259" target="kll7W4Ml-uQDBgVJ0LRq-261">
          <mxGeometry relative="1" as="geometry" />
        </mxCell>
        <mxCell id="kll7W4Ml-uQDBgVJ0LRq-259" value="getNextToProcess" style="shape=umlLifeline;perimeter=lifelinePerimeter;container=1;collapsible=0;recursiveResize=0;rounded=0;shadow=0;strokeWidth=1;" vertex="1" parent="1">
          <mxGeometry x="1080" y="3050" width="230" height="30" as="geometry" />
        </mxCell>
        <mxCell id="kll7W4Ml-uQDBgVJ0LRq-430" value="" style="edgeStyle=orthogonalEdgeStyle;rounded=0;orthogonalLoop=1;jettySize=auto;html=1;fontSize=11;fontColor=#000000;" edge="1" parent="1" source="kll7W4Ml-uQDBgVJ0LRq-261" target="kll7W4Ml-uQDBgVJ0LRq-429">
          <mxGeometry relative="1" as="geometry" />
        </mxCell>
        <mxCell id="kll7W4Ml-uQDBgVJ0LRq-261" value="bound contributor " style="shape=umlLifeline;perimeter=lifelinePerimeter;container=1;collapsible=0;recursiveResize=0;rounded=0;shadow=0;strokeWidth=1;" vertex="1" parent="1">
          <mxGeometry x="1080" y="3160" width="230" height="30" as="geometry" />
        </mxCell>
        <mxCell id="kll7W4Ml-uQDBgVJ0LRq-262" value="" style="edgeStyle=orthogonalEdgeStyle;rounded=0;orthogonalLoop=1;jettySize=auto;html=1;fontSize=9;fontColor=#000000;" edge="1" parent="1" target="kll7W4Ml-uQDBgVJ0LRq-265">
          <mxGeometry relative="1" as="geometry">
            <mxPoint x="1194.5" y="3300" as="sourcePoint" />
          </mxGeometry>
        </mxCell>
        <mxCell id="kll7W4Ml-uQDBgVJ0LRq-264" value="" style="edgeStyle=orthogonalEdgeStyle;rounded=0;orthogonalLoop=1;jettySize=auto;html=1;fontSize=9;fontColor=#000000;" edge="1" parent="1" source="kll7W4Ml-uQDBgVJ0LRq-265" target="kll7W4Ml-uQDBgVJ0LRq-266">
          <mxGeometry relative="1" as="geometry" />
        </mxCell>
        <mxCell id="kll7W4Ml-uQDBgVJ0LRq-265" value="resolveAndLoad" style="shape=umlLifeline;perimeter=lifelinePerimeter;container=1;collapsible=0;recursiveResize=0;rounded=0;shadow=0;strokeWidth=1;" vertex="1" parent="1">
          <mxGeometry x="1080" y="3380" width="230" height="30" as="geometry" />
        </mxCell>
        <mxCell id="kll7W4Ml-uQDBgVJ0LRq-266" value="check If any profile is activated" style="shape=umlLifeline;perimeter=lifelinePerimeter;container=1;collapsible=0;recursiveResize=0;rounded=0;shadow=0;strokeWidth=1;" vertex="1" parent="1">
          <mxGeometry x="1080" y="3490" width="230" height="30" as="geometry" />
        </mxCell>
        <mxCell id="kll7W4Ml-uQDBgVJ0LRq-268" value="resolve(locationResolverContext, profiles, locations)" style="shape=umlLifeline;perimeter=lifelinePerimeter;container=1;collapsible=0;recursiveResize=0;rounded=0;shadow=0;strokeWidth=1;" vertex="1" parent="1">
          <mxGeometry x="1070" y="3580" width="280" height="30" as="geometry" />
        </mxCell>
        <mxCell id="kll7W4Ml-uQDBgVJ0LRq-269" value="" style="endArrow=none;html=1;fontSize=9;fontColor=#000000;entryX=0.507;entryY=1.044;entryDx=0;entryDy=0;entryPerimeter=0;exitX=0.452;exitY=0.044;exitDx=0;exitDy=0;exitPerimeter=0;" edge="1" parent="1" source="kll7W4Ml-uQDBgVJ0LRq-268" target="kll7W4Ml-uQDBgVJ0LRq-266">
          <mxGeometry width="50" height="50" relative="1" as="geometry">
            <mxPoint x="1197" y="3570" as="sourcePoint" />
            <mxPoint x="1250" y="3530" as="targetPoint" />
          </mxGeometry>
        </mxCell>
        <mxCell id="kll7W4Ml-uQDBgVJ0LRq-271" value="resolve(resolver, context, location, profiles)" style="shape=umlLifeline;perimeter=lifelinePerimeter;container=1;collapsible=0;recursiveResize=0;rounded=0;shadow=0;strokeWidth=1;" vertex="1" parent="1">
          <mxGeometry x="1070" y="3690" width="280" height="30" as="geometry" />
        </mxCell>
        <mxCell id="kll7W4Ml-uQDBgVJ0LRq-273" value="load(loaderContext, resolved)" style="shape=umlLifeline;perimeter=lifelinePerimeter;container=1;collapsible=0;recursiveResize=0;rounded=0;shadow=0;strokeWidth=1;" vertex="1" parent="1">
          <mxGeometry x="1070" y="3800" width="280" height="30" as="geometry" />
        </mxCell>
        <mxCell id="kll7W4Ml-uQDBgVJ0LRq-274" value="getLoader" style="shape=umlLifeline;perimeter=lifelinePerimeter;container=1;collapsible=0;recursiveResize=0;rounded=0;shadow=0;strokeWidth=1;" vertex="1" parent="1">
          <mxGeometry x="1070" y="3910" width="280" height="30" as="geometry" />
        </mxCell>
        <mxCell id="kll7W4Ml-uQDBgVJ0LRq-275" value="reference.getPropertySourceLoader().&#xa;load(name, originTrackedResource)" style="shape=umlLifeline;perimeter=lifelinePerimeter;container=1;collapsible=0;recursiveResize=0;rounded=0;shadow=0;strokeWidth=1;" vertex="1" parent="1">
          <mxGeometry x="1070" y="4040" width="280" height="30" as="geometry" />
        </mxCell>
        <mxCell id="kll7W4Ml-uQDBgVJ0LRq-277" value="" style="endArrow=classic;html=1;dashed=1;dashPattern=1 2;fontSize=9;fontColor=#000000;entryX=-0.012;entryY=0.044;entryDx=0;entryDy=0;entryPerimeter=0;exitX=1.004;exitY=0.3;exitDx=0;exitDy=0;exitPerimeter=0;" edge="1" parent="1" source="kll7W4Ml-uQDBgVJ0LRq-275" target="kll7W4Ml-uQDBgVJ0LRq-144">
          <mxGeometry width="50" height="50" relative="1" as="geometry">
            <mxPoint x="1350" y="4020" as="sourcePoint" />
            <mxPoint x="1360" y="2850" as="targetPoint" />
            <Array as="points">
              <mxPoint x="1360" y="4044" />
              <mxPoint x="1370" y="4020" />
              <mxPoint x="1360" y="2820" />
            </Array>
          </mxGeometry>
        </mxCell>
        <mxCell id="kll7W4Ml-uQDBgVJ0LRq-278" value="" style="endArrow=classic;html=1;dashed=1;dashPattern=1 2;fontSize=9;fontColor=#000000;entryX=0.058;entryY=0.167;entryDx=0;entryDy=0;entryPerimeter=0;" edge="1" parent="1" target="kll7W4Ml-uQDBgVJ0LRq-432">
          <mxGeometry width="50" height="50" relative="1" as="geometry">
            <mxPoint x="1560" y="2830" as="sourcePoint" />
            <mxPoint x="1390" y="4030" as="targetPoint" />
            <Array as="points">
              <mxPoint x="1710" y="2830" />
              <mxPoint x="1968" y="2830" />
              <mxPoint x="1968" y="3120" />
              <mxPoint x="1452" y="3984" />
            </Array>
          </mxGeometry>
        </mxCell>
        <mxCell id="kll7W4Ml-uQDBgVJ0LRq-280" value="" style="edgeStyle=orthogonalEdgeStyle;rounded=0;orthogonalLoop=1;jettySize=auto;html=1;" edge="1" parent="1" source="kll7W4Ml-uQDBgVJ0LRq-281" target="kll7W4Ml-uQDBgVJ0LRq-283">
          <mxGeometry relative="1" as="geometry" />
        </mxCell>
        <mxCell id="kll7W4Ml-uQDBgVJ0LRq-281" value="Instanciate &#xa;SpringApplication" style="shape=umlLifeline;perimeter=lifelinePerimeter;container=1;collapsible=0;recursiveResize=0;rounded=0;shadow=0;strokeWidth=1;" vertex="1" parent="1">
          <mxGeometry x="-180" y="2830" width="140" height="30" as="geometry" />
        </mxCell>
        <mxCell id="kll7W4Ml-uQDBgVJ0LRq-282" value="" style="edgeStyle=orthogonalEdgeStyle;rounded=0;orthogonalLoop=1;jettySize=auto;html=1;" edge="1" parent="1" source="kll7W4Ml-uQDBgVJ0LRq-283" target="kll7W4Ml-uQDBgVJ0LRq-285">
          <mxGeometry relative="1" as="geometry" />
        </mxCell>
        <mxCell id="kll7W4Ml-uQDBgVJ0LRq-283" value="Deduce  &#xa;WebApplication Type" style="shape=umlLifeline;perimeter=lifelinePerimeter;container=1;collapsible=0;recursiveResize=0;rounded=0;shadow=0;strokeWidth=1;" vertex="1" parent="1">
          <mxGeometry x="-180" y="2970" width="140" height="40" as="geometry" />
        </mxCell>
        <mxCell id="kll7W4Ml-uQDBgVJ0LRq-284" value="" style="edgeStyle=orthogonalEdgeStyle;rounded=0;orthogonalLoop=1;jettySize=auto;html=1;" edge="1" parent="1" source="kll7W4Ml-uQDBgVJ0LRq-285" target="kll7W4Ml-uQDBgVJ0LRq-287">
          <mxGeometry relative="1" as="geometry" />
        </mxCell>
        <mxCell id="kll7W4Ml-uQDBgVJ0LRq-285" value="setInitializers" style="shape=umlLifeline;perimeter=lifelinePerimeter;container=1;collapsible=0;recursiveResize=0;rounded=0;shadow=0;strokeWidth=1;" vertex="1" parent="1">
          <mxGeometry x="-180" y="3110" width="140" height="40" as="geometry" />
        </mxCell>
        <mxCell id="kll7W4Ml-uQDBgVJ0LRq-286" value="" style="edgeStyle=orthogonalEdgeStyle;rounded=0;orthogonalLoop=1;jettySize=auto;html=1;" edge="1" parent="1" source="kll7W4Ml-uQDBgVJ0LRq-287" target="kll7W4Ml-uQDBgVJ0LRq-288">
          <mxGeometry relative="1" as="geometry" />
        </mxCell>
        <mxCell id="kll7W4Ml-uQDBgVJ0LRq-287" value=" setListeners" style="shape=umlLifeline;perimeter=lifelinePerimeter;container=1;collapsible=0;recursiveResize=0;rounded=0;shadow=0;strokeWidth=1;" vertex="1" parent="1">
          <mxGeometry x="-180" y="3250" width="140" height="40" as="geometry" />
        </mxCell>
        <mxCell id="kll7W4Ml-uQDBgVJ0LRq-288" value="deduceMainApplication&#xa;Class" style="shape=umlLifeline;perimeter=lifelinePerimeter;container=1;collapsible=0;recursiveResize=0;rounded=0;shadow=0;strokeWidth=1;" vertex="1" parent="1">
          <mxGeometry x="-180" y="3390" width="140" height="40" as="geometry" />
        </mxCell>
        <mxCell id="kll7W4Ml-uQDBgVJ0LRq-289" value="run" style="shape=umlLifeline;perimeter=lifelinePerimeter;container=1;collapsible=0;recursiveResize=0;rounded=0;shadow=0;strokeWidth=1;" vertex="1" parent="1">
          <mxGeometry x="-370" y="2830" width="70" height="30" as="geometry" />
        </mxCell>
        <mxCell id="kll7W4Ml-uQDBgVJ0LRq-290" value="" style="edgeStyle=orthogonalEdgeStyle;rounded=0;orthogonalLoop=1;jettySize=auto;html=1;" edge="1" parent="1">
          <mxGeometry relative="1" as="geometry">
            <mxPoint x="-300" y="2844.47" as="sourcePoint" />
            <mxPoint x="-190" y="2844.88" as="targetPoint" />
            <Array as="points">
              <mxPoint x="-220" y="2844.88" />
              <mxPoint x="-220" y="2844.88" />
            </Array>
          </mxGeometry>
        </mxCell>
        <mxCell id="kll7W4Ml-uQDBgVJ0LRq-291" value="main" style="shape=umlLifeline;perimeter=lifelinePerimeter;container=1;collapsible=0;recursiveResize=0;rounded=0;shadow=0;strokeWidth=1;" vertex="1" parent="1">
          <mxGeometry x="-530" y="2830" width="80" height="30" as="geometry" />
        </mxCell>
        <mxCell id="kll7W4Ml-uQDBgVJ0LRq-292" value="" style="edgeStyle=orthogonalEdgeStyle;rounded=0;orthogonalLoop=1;jettySize=auto;html=1;" edge="1" parent="1">
          <mxGeometry relative="1" as="geometry">
            <mxPoint x="-450" y="2844.59" as="sourcePoint" />
            <mxPoint x="-380" y="2844.41" as="targetPoint" />
            <Array as="points">
              <mxPoint x="-410" y="2844.41" />
              <mxPoint x="-410" y="2844.41" />
            </Array>
          </mxGeometry>
        </mxCell>
        <mxCell id="kll7W4Ml-uQDBgVJ0LRq-293" value="" style="edgeStyle=orthogonalEdgeStyle;rounded=0;orthogonalLoop=1;jettySize=auto;html=1;" edge="1" parent="1" source="kll7W4Ml-uQDBgVJ0LRq-294" target="kll7W4Ml-uQDBgVJ0LRq-299">
          <mxGeometry relative="1" as="geometry" />
        </mxCell>
        <mxCell id="kll7W4Ml-uQDBgVJ0LRq-294" value="run" style="shape=umlLifeline;perimeter=lifelinePerimeter;container=1;collapsible=0;recursiveResize=0;rounded=0;shadow=0;strokeWidth=1;" vertex="1" parent="1">
          <mxGeometry x="60" y="2830" width="140" height="30" as="geometry" />
        </mxCell>
        <mxCell id="kll7W4Ml-uQDBgVJ0LRq-295" value="" style="edgeStyle=orthogonalEdgeStyle;rounded=0;orthogonalLoop=1;jettySize=auto;html=1;" edge="1" parent="1">
          <mxGeometry relative="1" as="geometry">
            <mxPoint x="-40" y="2845" as="sourcePoint" />
            <mxPoint x="50" y="2844.82" as="targetPoint" />
            <Array as="points">
              <mxPoint x="20" y="2844.82" />
              <mxPoint x="20" y="2844.82" />
            </Array>
          </mxGeometry>
        </mxCell>
        <mxCell id="kll7W4Ml-uQDBgVJ0LRq-296" value="" style="edgeStyle=orthogonalEdgeStyle;rounded=0;orthogonalLoop=1;jettySize=auto;html=1;fontSize=10;" edge="1" parent="1" source="kll7W4Ml-uQDBgVJ0LRq-297" target="kll7W4Ml-uQDBgVJ0LRq-316">
          <mxGeometry relative="1" as="geometry" />
        </mxCell>
        <mxCell id="kll7W4Ml-uQDBgVJ0LRq-297" value="environmentPrepared" style="shape=umlLifeline;perimeter=lifelinePerimeter;container=1;collapsible=0;recursiveResize=0;rounded=0;shadow=0;strokeWidth=1;" vertex="1" parent="1">
          <mxGeometry x="280" y="2830" width="140" height="30" as="geometry" />
        </mxCell>
        <mxCell id="kll7W4Ml-uQDBgVJ0LRq-298" value="" style="edgeStyle=orthogonalEdgeStyle;rounded=0;orthogonalLoop=1;jettySize=auto;html=1;" edge="1" parent="1" source="kll7W4Ml-uQDBgVJ0LRq-299" target="kll7W4Ml-uQDBgVJ0LRq-301">
          <mxGeometry relative="1" as="geometry" />
        </mxCell>
        <mxCell id="kll7W4Ml-uQDBgVJ0LRq-299" value="StopWatch.start" style="shape=umlLifeline;perimeter=lifelinePerimeter;container=1;collapsible=0;recursiveResize=0;rounded=0;shadow=0;strokeWidth=1;" vertex="1" parent="1">
          <mxGeometry x="60" y="2940" width="140" height="30" as="geometry" />
        </mxCell>
        <mxCell id="kll7W4Ml-uQDBgVJ0LRq-300" value="" style="edgeStyle=orthogonalEdgeStyle;rounded=0;orthogonalLoop=1;jettySize=auto;html=1;" edge="1" parent="1" source="kll7W4Ml-uQDBgVJ0LRq-301" target="kll7W4Ml-uQDBgVJ0LRq-303">
          <mxGeometry relative="1" as="geometry" />
        </mxCell>
        <mxCell id="kll7W4Ml-uQDBgVJ0LRq-301" value="configureHeadlessProperty" style="shape=umlLifeline;perimeter=lifelinePerimeter;container=1;collapsible=0;recursiveResize=0;rounded=0;shadow=0;strokeWidth=1;textOpacity=90;fontSize=11;" vertex="1" parent="1">
          <mxGeometry x="60" y="3050" width="140" height="30" as="geometry" />
        </mxCell>
        <mxCell id="kll7W4Ml-uQDBgVJ0LRq-302" value="" style="edgeStyle=orthogonalEdgeStyle;rounded=0;orthogonalLoop=1;jettySize=auto;html=1;" edge="1" parent="1" source="kll7W4Ml-uQDBgVJ0LRq-303" target="kll7W4Ml-uQDBgVJ0LRq-305">
          <mxGeometry relative="1" as="geometry" />
        </mxCell>
        <mxCell id="kll7W4Ml-uQDBgVJ0LRq-303" value="getRunListeners" style="shape=umlLifeline;perimeter=lifelinePerimeter;container=1;collapsible=0;recursiveResize=0;rounded=0;shadow=0;strokeWidth=1;" vertex="1" parent="1">
          <mxGeometry x="60" y="3160" width="140" height="30" as="geometry" />
        </mxCell>
        <mxCell id="kll7W4Ml-uQDBgVJ0LRq-304" value="" style="edgeStyle=orthogonalEdgeStyle;rounded=0;orthogonalLoop=1;jettySize=auto;html=1;fontSize=11;" edge="1" parent="1" source="kll7W4Ml-uQDBgVJ0LRq-305" target="kll7W4Ml-uQDBgVJ0LRq-307">
          <mxGeometry relative="1" as="geometry" />
        </mxCell>
        <mxCell id="kll7W4Ml-uQDBgVJ0LRq-422" value="" style="edgeStyle=orthogonalEdgeStyle;rounded=0;orthogonalLoop=1;jettySize=auto;html=1;dashed=1;dashPattern=1 2;fontSize=11;fontColor=#000000;" edge="1" parent="1" source="kll7W4Ml-uQDBgVJ0LRq-305" target="kll7W4Ml-uQDBgVJ0LRq-303">
          <mxGeometry relative="1" as="geometry" />
        </mxCell>
        <mxCell id="kll7W4Ml-uQDBgVJ0LRq-305" value="listeners.starting" style="shape=umlLifeline;perimeter=lifelinePerimeter;container=1;collapsible=0;recursiveResize=0;rounded=0;shadow=0;strokeWidth=1;" vertex="1" parent="1">
          <mxGeometry x="60" y="3270" width="140" height="30" as="geometry" />
        </mxCell>
        <mxCell id="kll7W4Ml-uQDBgVJ0LRq-306" value="" style="edgeStyle=orthogonalEdgeStyle;rounded=0;orthogonalLoop=1;jettySize=auto;html=1;fontSize=10;" edge="1" parent="1" source="kll7W4Ml-uQDBgVJ0LRq-307" target="kll7W4Ml-uQDBgVJ0LRq-309">
          <mxGeometry relative="1" as="geometry" />
        </mxCell>
        <mxCell id="kll7W4Ml-uQDBgVJ0LRq-307" value="DefaultApplicationArguments" style="shape=umlLifeline;perimeter=lifelinePerimeter;container=1;collapsible=0;recursiveResize=0;rounded=0;shadow=0;strokeWidth=1;fontSize=10;" vertex="1" parent="1">
          <mxGeometry x="60" y="3380" width="140" height="30" as="geometry" />
        </mxCell>
        <mxCell id="kll7W4Ml-uQDBgVJ0LRq-308" value="" style="edgeStyle=orthogonalEdgeStyle;rounded=0;orthogonalLoop=1;jettySize=auto;html=1;fontSize=10;" edge="1" parent="1" source="kll7W4Ml-uQDBgVJ0LRq-309" target="kll7W4Ml-uQDBgVJ0LRq-311">
          <mxGeometry relative="1" as="geometry" />
        </mxCell>
        <mxCell id="kll7W4Ml-uQDBgVJ0LRq-309" value="prepareEnvironment" style="shape=umlLifeline;perimeter=lifelinePerimeter;container=1;collapsible=0;recursiveResize=0;rounded=0;shadow=0;strokeWidth=1;fontSize=10;" vertex="1" parent="1">
          <mxGeometry x="60" y="3490" width="140" height="30" as="geometry" />
        </mxCell>
        <mxCell id="kll7W4Ml-uQDBgVJ0LRq-310" value="" style="edgeStyle=orthogonalEdgeStyle;rounded=0;orthogonalLoop=1;jettySize=auto;html=1;fontSize=10;" edge="1" parent="1" source="kll7W4Ml-uQDBgVJ0LRq-311" target="kll7W4Ml-uQDBgVJ0LRq-312">
          <mxGeometry relative="1" as="geometry" />
        </mxCell>
        <mxCell id="kll7W4Ml-uQDBgVJ0LRq-311" value="getOrCreateEnvironment" style="shape=umlLifeline;perimeter=lifelinePerimeter;container=1;collapsible=0;recursiveResize=0;rounded=0;shadow=0;strokeWidth=1;fontSize=10;" vertex="1" parent="1">
          <mxGeometry x="60" y="3600" width="140" height="30" as="geometry" />
        </mxCell>
        <mxCell id="kll7W4Ml-uQDBgVJ0LRq-312" value="configureEnvironment" style="shape=umlLifeline;perimeter=lifelinePerimeter;container=1;collapsible=0;recursiveResize=0;rounded=0;shadow=0;strokeWidth=1;fontSize=10;size=20;" vertex="1" parent="1">
          <mxGeometry x="60" y="3710" width="140" height="80" as="geometry" />
        </mxCell>
        <mxCell id="kll7W4Ml-uQDBgVJ0LRq-313" value="bindToSpringApplication" style="shape=umlLifeline;perimeter=lifelinePerimeter;container=1;collapsible=0;recursiveResize=0;rounded=0;shadow=0;strokeWidth=1;fontSize=10;" vertex="1" parent="1">
          <mxGeometry x="58" y="4116" width="140" height="30" as="geometry" />
        </mxCell>
        <mxCell id="kll7W4Ml-uQDBgVJ0LRq-314" value="" style="edgeStyle=elbowEdgeStyle;elbow=horizontal;endArrow=classic;html=1;fontSize=10;exitX=1.039;exitY=0.476;exitDx=0;exitDy=0;exitPerimeter=0;" edge="1" parent="1" source="kll7W4Ml-uQDBgVJ0LRq-333">
          <mxGeometry width="50" height="50" relative="1" as="geometry">
            <mxPoint x="210" y="3720" as="sourcePoint" />
            <mxPoint x="270" y="2850" as="targetPoint" />
            <Array as="points">
              <mxPoint x="255" y="3710" />
            </Array>
          </mxGeometry>
        </mxCell>
        <mxCell id="kll7W4Ml-uQDBgVJ0LRq-315" value="" style="edgeStyle=orthogonalEdgeStyle;rounded=0;orthogonalLoop=1;jettySize=auto;html=1;fontSize=10;" edge="1" parent="1" source="kll7W4Ml-uQDBgVJ0LRq-316" target="kll7W4Ml-uQDBgVJ0LRq-318">
          <mxGeometry relative="1" as="geometry" />
        </mxCell>
        <mxCell id="kll7W4Ml-uQDBgVJ0LRq-316" value="MulticastEvents" style="shape=umlLifeline;perimeter=lifelinePerimeter;container=1;collapsible=0;recursiveResize=0;rounded=0;shadow=0;strokeWidth=1;" vertex="1" parent="1">
          <mxGeometry x="280" y="2940" width="140" height="30" as="geometry" />
        </mxCell>
        <mxCell id="kll7W4Ml-uQDBgVJ0LRq-317" value="" style="edgeStyle=orthogonalEdgeStyle;rounded=0;orthogonalLoop=1;jettySize=auto;html=1;fontSize=10;" edge="1" parent="1" source="kll7W4Ml-uQDBgVJ0LRq-318" target="kll7W4Ml-uQDBgVJ0LRq-320">
          <mxGeometry relative="1" as="geometry" />
        </mxCell>
        <mxCell id="kll7W4Ml-uQDBgVJ0LRq-318" value="invokeListener" style="shape=umlLifeline;perimeter=lifelinePerimeter;container=1;collapsible=0;recursiveResize=0;rounded=0;shadow=0;strokeWidth=1;" vertex="1" parent="1">
          <mxGeometry x="280" y="3050" width="140" height="30" as="geometry" />
        </mxCell>
        <mxCell id="kll7W4Ml-uQDBgVJ0LRq-319" value="" style="edgeStyle=orthogonalEdgeStyle;rounded=0;orthogonalLoop=1;jettySize=auto;html=1;fontSize=10;" edge="1" parent="1" source="kll7W4Ml-uQDBgVJ0LRq-320" target="kll7W4Ml-uQDBgVJ0LRq-321">
          <mxGeometry relative="1" as="geometry" />
        </mxCell>
        <mxCell id="kll7W4Ml-uQDBgVJ0LRq-320" value="doInvokeListener" style="shape=umlLifeline;perimeter=lifelinePerimeter;container=1;collapsible=0;recursiveResize=0;rounded=0;shadow=0;strokeWidth=1;" vertex="1" parent="1">
          <mxGeometry x="280" y="3160" width="140" height="30" as="geometry" />
        </mxCell>
        <mxCell id="kll7W4Ml-uQDBgVJ0LRq-363" value="" style="edgeStyle=orthogonalEdgeStyle;rounded=0;orthogonalLoop=1;jettySize=auto;html=1;fontSize=9;fontColor=#000000;" edge="1" parent="1" source="kll7W4Ml-uQDBgVJ0LRq-321" target="kll7W4Ml-uQDBgVJ0LRq-362">
          <mxGeometry relative="1" as="geometry" />
        </mxCell>
        <mxCell id="kll7W4Ml-uQDBgVJ0LRq-321" value="listener.onApplicationEvent" style="shape=umlLifeline;perimeter=lifelinePerimeter;container=1;collapsible=0;recursiveResize=0;rounded=0;shadow=0;strokeWidth=1;fontSize=11;" vertex="1" parent="1">
          <mxGeometry x="280" y="3270" width="140" height="30" as="geometry" />
        </mxCell>
        <mxCell id="kll7W4Ml-uQDBgVJ0LRq-322" value="&lt;p style=&quot;margin-top: 0pt ; margin-bottom: 0pt ; margin-left: 0in ; text-align: left ; direction: ltr ; unicode-bidi: embed ; word-break: normal&quot;&gt;&lt;font face=&quot;Times New Roman&quot;&gt;&lt;span style=&quot;font-size: 12px&quot;&gt;By checking the&amp;nbsp;class path ect.. &amp;nbsp;deduce application type, possible value: [reactive | servlet | None]&lt;/span&gt;&lt;/font&gt;&lt;/p&gt;" style="text;html=1;strokeColor=none;fillColor=none;align=center;verticalAlign=middle;whiteSpace=wrap;rounded=0;shadow=0;fontSize=8;" vertex="1" parent="1">
          <mxGeometry x="-400" y="2980" width="220" height="20" as="geometry" />
        </mxCell>
        <mxCell id="kll7W4Ml-uQDBgVJ0LRq-323" value="&lt;p style=&quot;margin-top: 0pt ; margin-bottom: 0pt ; margin-left: 0in ; text-align: left ; direction: ltr ; unicode-bidi: embed ; word-break: normal&quot;&gt;&lt;font style=&quot;font-size: 12px&quot; face=&quot;Times New Roman&quot;&gt;&lt;br&gt;&lt;/font&gt;&lt;/p&gt;&lt;p style=&quot;margin-top: 0pt ; margin-bottom: 0pt ; margin-left: 0in ; text-align: left ; direction: ltr ; unicode-bidi: embed ; word-break: normal&quot;&gt;&lt;font face=&quot;Times New Roman&quot;&gt;&lt;font&gt;&lt;span style=&quot;font-size: 12px&quot;&gt;Using spring.factories load all&amp;nbsp;&lt;/span&gt;&lt;/font&gt;&lt;span style=&quot;font-size: 12px&quot;&gt;listeners&lt;/span&gt;&lt;/font&gt;&lt;/p&gt;&lt;p style=&quot;margin-top: 0pt ; margin-bottom: 0pt ; margin-left: 0in ; text-align: left ; direction: ltr ; unicode-bidi: embed ; word-break: normal&quot;&gt;&lt;font face=&quot;Times New Roman&quot;&gt;&lt;font style=&quot;font-size: 12px&quot;&gt;Ex:&amp;nbsp;&lt;/font&gt;&lt;font style=&quot;font-size: 12px&quot;&gt;EnvironmentPostProcessorApplicationListener&lt;/font&gt;&lt;/font&gt;&lt;span style=&quot;font-size: 9px&quot;&gt;&amp;nbsp;&lt;/span&gt;&lt;/p&gt;" style="text;html=1;strokeColor=none;fillColor=none;align=center;verticalAlign=middle;whiteSpace=wrap;rounded=0;shadow=0;fontSize=8;" vertex="1" parent="1">
          <mxGeometry x="-450" y="3260" width="288" height="20" as="geometry" />
        </mxCell>
        <mxCell id="kll7W4Ml-uQDBgVJ0LRq-324" value="" style="edgeStyle=orthogonalEdgeStyle;rounded=0;orthogonalLoop=1;jettySize=auto;html=1;fontSize=8;fillColor=#fff2cc;strokeColor=#d6b656;" edge="1" parent="1" source="kll7W4Ml-uQDBgVJ0LRq-325" target="kll7W4Ml-uQDBgVJ0LRq-323">
          <mxGeometry relative="1" as="geometry">
            <Array as="points">
              <mxPoint x="48" y="3210" />
              <mxPoint x="-280" y="3210" />
            </Array>
          </mxGeometry>
        </mxCell>
        <mxCell id="kll7W4Ml-uQDBgVJ0LRq-325" value="&lt;p style=&quot;margin-top: 0pt ; margin-bottom: 0pt ; margin-left: 0in ; text-align: left ; direction: ltr ; unicode-bidi: embed ; word-break: normal&quot;&gt;&lt;font style=&quot;font-size: 12px&quot; face=&quot;Times New Roman&quot;&gt;Create EventPublishingRunListener and add all listeners registered before&lt;/font&gt;&lt;/p&gt;" style="text;html=1;strokeColor=none;fillColor=none;align=center;verticalAlign=middle;whiteSpace=wrap;rounded=0;shadow=0;fontSize=8;" vertex="1" parent="1">
          <mxGeometry x="-6" y="3110" width="186" height="20" as="geometry" />
        </mxCell>
        <mxCell id="kll7W4Ml-uQDBgVJ0LRq-326" value="&lt;font style=&quot;font-size: 12px&quot; face=&quot;Times New Roman&quot;&gt;Access to the arguments that were used to run a SpringApplication and Create a corresponding&lt;br&gt;PropertySource&lt;/font&gt;" style="text;html=1;strokeColor=none;fillColor=none;align=center;verticalAlign=middle;whiteSpace=wrap;rounded=0;shadow=0;fontSize=8;" vertex="1" parent="1">
          <mxGeometry x="-12" y="3315" width="180" height="50" as="geometry" />
        </mxCell>
        <mxCell id="kll7W4Ml-uQDBgVJ0LRq-327" value="&lt;div style=&quot;text-align: left&quot;&gt;&lt;span style=&quot;font-size: 12px&quot;&gt;&lt;font face=&quot;Times New Roman&quot;&gt;Deduce the main Class by checking the location of the main method&lt;/font&gt;&lt;/span&gt;&lt;/div&gt;" style="text;html=1;strokeColor=none;fillColor=none;align=center;verticalAlign=middle;whiteSpace=wrap;rounded=0;shadow=0;fontSize=8;" vertex="1" parent="1">
          <mxGeometry x="-360" y="3385" width="190" height="50" as="geometry" />
        </mxCell>
        <mxCell id="kll7W4Ml-uQDBgVJ0LRq-328" value="&lt;div style=&quot;text-align: left&quot;&gt;&lt;font face=&quot;calibri&quot;&gt;&lt;span style=&quot;font-size: 12px&quot;&gt;Environment is ready, send an ApplicationEnvironementPrepared&lt;/span&gt;&lt;/font&gt;&lt;/div&gt;&lt;div style=&quot;text-align: left&quot;&gt;&lt;font face=&quot;calibri&quot;&gt;&lt;span style=&quot;font-size: 12px&quot;&gt;to all concerned listenners&lt;/span&gt;&lt;/font&gt;&lt;/div&gt;" style="text;html=1;strokeColor=none;fillColor=none;align=center;verticalAlign=middle;whiteSpace=wrap;rounded=0;shadow=0;fontSize=8;" vertex="1" parent="1">
          <mxGeometry x="260" y="3910" width="210" height="50" as="geometry" />
        </mxCell>
        <mxCell id="kll7W4Ml-uQDBgVJ0LRq-329" value="&lt;div style=&quot;text-align: left&quot;&gt;&lt;font face=&quot;calibri&quot;&gt;&lt;span style=&quot;font-size: 12px&quot;&gt;Bind the properties to Spring Application Object&lt;/span&gt;&lt;/font&gt;&lt;/div&gt;" style="text;html=1;strokeColor=none;fillColor=none;align=center;verticalAlign=middle;whiteSpace=wrap;rounded=0;shadow=0;fontSize=8;" vertex="1" parent="1">
          <mxGeometry x="-246" y="4096" width="300" height="50" as="geometry" />
        </mxCell>
        <mxCell id="kll7W4Ml-uQDBgVJ0LRq-333" value="environmentPrepared" style="shape=umlLifeline;perimeter=lifelinePerimeter;container=1;collapsible=0;recursiveResize=0;rounded=0;shadow=0;strokeWidth=1;fontSize=10;" vertex="1" parent="1">
          <mxGeometry x="58" y="4030" width="140" height="30" as="geometry" />
        </mxCell>
        <mxCell id="kll7W4Ml-uQDBgVJ0LRq-334" value="@author = Mouad Kondah" style="text;html=1;strokeColor=none;fillColor=none;align=center;verticalAlign=middle;whiteSpace=wrap;rounded=0;shadow=0;fontFamily=Times New Roman;fontSize=11;" vertex="1" parent="1">
          <mxGeometry x="-630" y="2780" width="150" height="20" as="geometry" />
        </mxCell>
        <mxCell id="kll7W4Ml-uQDBgVJ0LRq-335" value="&lt;font style=&quot;font-size: 12px&quot;&gt;Record the starting time of the application&lt;/font&gt;" style="text;html=1;strokeColor=none;fillColor=none;align=center;verticalAlign=middle;whiteSpace=wrap;rounded=0;shadow=0;fontFamily=Times New Roman;fontSize=11;" vertex="1" parent="1">
          <mxGeometry x="-6" y="2910" width="240" height="20" as="geometry" />
        </mxCell>
        <mxCell id="kll7W4Ml-uQDBgVJ0LRq-336" value="&lt;font style=&quot;font-size: 12px&quot;&gt;&lt;span style=&quot;background-color: rgb(246 , 246 , 246)&quot;&gt;Configure the Headless mode&amp;nbsp;&lt;br&gt;&lt;/span&gt;https://www.oracle.com/technical-resources/articles/javase/headless.html&lt;/font&gt;&lt;span style=&quot;color: rgb(36 , 39 , 41) ; font-family: &amp;#34;arial&amp;#34; , &amp;#34;helvetica neue&amp;#34; , &amp;#34;helvetica&amp;#34; , sans-serif ; font-size: 15px ; text-align: left ; background-color: rgb(255 , 255 , 255)&quot;&gt;&lt;br&gt;&lt;/span&gt;" style="text;html=1;strokeColor=none;fillColor=none;align=center;verticalAlign=middle;whiteSpace=wrap;rounded=0;shadow=0;fontFamily=Times New Roman;fontSize=11;" vertex="1" parent="1">
          <mxGeometry x="-80.5" y="3010" width="335" height="20" as="geometry" />
        </mxCell>
        <mxCell id="kll7W4Ml-uQDBgVJ0LRq-337" value="&lt;p style=&quot;margin-top: 0pt ; margin-bottom: 0pt ; margin-left: 0in ; text-align: left ; direction: ltr ; unicode-bidi: embed ; word-break: normal ; font-size: 12px&quot;&gt;&lt;font style=&quot;font-size: 12px&quot; face=&quot;Times New Roman&quot;&gt;Send&amp;nbsp;starting event to all concerned&amp;nbsp;&lt;/font&gt;&lt;/p&gt;&lt;p style=&quot;margin-top: 0pt ; margin-bottom: 0pt ; margin-left: 0in ; text-align: left ; direction: ltr ; unicode-bidi: embed ; word-break: normal ; font-size: 12px&quot;&gt;&lt;font style=&quot;font-size: 12px&quot; face=&quot;Times New Roman&quot;&gt;listeners&amp;nbsp;&lt;/font&gt;&lt;/p&gt;" style="text;html=1;strokeColor=none;fillColor=none;align=center;verticalAlign=middle;whiteSpace=wrap;rounded=0;shadow=0;fontSize=8;" vertex="1" parent="1">
          <mxGeometry x="-35" y="3250" width="227" height="14" as="geometry" />
        </mxCell>
        <mxCell id="kll7W4Ml-uQDBgVJ0LRq-338" value="&lt;div style=&quot;text-align: left&quot;&gt;&lt;font face=&quot;calibri&quot;&gt;&lt;span style=&quot;font-size: 12px&quot;&gt;Create appropriate environment or get it if&amp;nbsp;&lt;/span&gt;&lt;/font&gt;&lt;/div&gt;&lt;div style=&quot;text-align: left&quot;&gt;&lt;font face=&quot;calibri&quot;&gt;&lt;span style=&quot;font-size: 12px&quot;&gt;already created&lt;/span&gt;&lt;/font&gt;&lt;/div&gt;" style="text;html=1;strokeColor=none;fillColor=none;align=center;verticalAlign=middle;whiteSpace=wrap;rounded=0;shadow=0;fontSize=8;" vertex="1" parent="1">
          <mxGeometry x="-205" y="3600" width="285" height="50" as="geometry" />
        </mxCell>
        <mxCell id="kll7W4Ml-uQDBgVJ0LRq-339" value="&lt;font style=&quot;font-size: 12px&quot; face=&quot;Times New Roman&quot;&gt;&lt;font style=&quot;font-size: 12px&quot;&gt;Add conversionService(&lt;span style=&quot;text-align: left ; background-color: rgb(255 , 255 , 255)&quot;&gt;&amp;nbsp;for type conversion&lt;/span&gt;&lt;br&gt;&lt;/font&gt;) and delegates to configurePropertySources and&amp;nbsp;&lt;br&gt;configureProfiles&lt;/font&gt;" style="text;html=1;strokeColor=none;fillColor=none;align=center;verticalAlign=middle;whiteSpace=wrap;rounded=0;shadow=0;fontSize=8;" vertex="1" parent="1">
          <mxGeometry x="-213.5" y="3710" width="302" height="50" as="geometry" />
        </mxCell>
        <mxCell id="kll7W4Ml-uQDBgVJ0LRq-340" value="configureProfiles" style="shape=umlLifeline;perimeter=lifelinePerimeter;container=1;collapsible=0;recursiveResize=0;rounded=0;shadow=0;strokeWidth=1;fontSize=10;size=20;" vertex="1" parent="1">
          <mxGeometry x="60" y="3850" width="140" height="100" as="geometry" />
        </mxCell>
        <mxCell id="kll7W4Ml-uQDBgVJ0LRq-341" value="configurePropertySources" style="shape=umlLifeline;perimeter=lifelinePerimeter;container=1;collapsible=0;recursiveResize=0;rounded=0;shadow=0;strokeWidth=1;fontSize=10;size=20;" vertex="1" parent="1">
          <mxGeometry x="60" y="3780" width="140" height="70" as="geometry" />
        </mxCell>
        <mxCell id="kll7W4Ml-uQDBgVJ0LRq-342" value="&lt;div style=&quot;text-align: center ; font-size: 12px&quot;&gt;&lt;span style=&quot;text-align: left&quot;&gt;&lt;font style=&quot;font-size: 12px&quot;&gt;Add defaultProperties and SimpleCommandLinePropertySource&amp;nbsp;&lt;/font&gt;&lt;/span&gt;&lt;/div&gt;&lt;span style=&quot;color: rgb(45 , 45 , 45) ; font-size: 12px&quot;&gt;.&lt;/span&gt;&lt;span style=&quot;text-align: left&quot;&gt;&lt;br&gt;&lt;/span&gt;" style="text;html=1;strokeColor=none;fillColor=none;align=center;verticalAlign=middle;whiteSpace=wrap;rounded=0;shadow=0;fontFamily=Times New Roman;fontSize=11;fontColor=#000000;" vertex="1" parent="1">
          <mxGeometry x="-162" y="3790" width="225" height="20" as="geometry" />
        </mxCell>
        <mxCell id="kll7W4Ml-uQDBgVJ0LRq-343" value="&lt;font style=&quot;font-size: 12px&quot;&gt;&lt;span style=&quot;font-family: &amp;#34;helvetica neue&amp;#34;&quot;&gt;set&lt;/span&gt;&amp;nbsp;active profiles to current Environment&lt;/font&gt;&lt;font style=&quot;font-size: 12px&quot;&gt;&amp;nbsp;&lt;/font&gt;" style="text;html=1;strokeColor=none;fillColor=none;align=center;verticalAlign=middle;whiteSpace=wrap;rounded=0;shadow=0;fontFamily=Times New Roman;fontSize=11;fontColor=#000000;" vertex="1" parent="1">
          <mxGeometry x="-205" y="3850" width="251" height="20" as="geometry" />
        </mxCell>
        <mxCell id="kll7W4Ml-uQDBgVJ0LRq-344" value="&lt;font face=&quot;Times New Roman&quot;&gt;PrepareEnvironment&amp;nbsp;&lt;/font&gt;" style="text;html=1;strokeColor=none;fillColor=none;align=center;verticalAlign=middle;whiteSpace=wrap;rounded=0;dashed=1;dashPattern=1 2;" vertex="1" parent="1">
          <mxGeometry x="-96" y="3495" width="150" height="20" as="geometry" />
        </mxCell>
        <mxCell id="kll7W4Ml-uQDBgVJ0LRq-345" value="&lt;font face=&quot;Times New Roman&quot;&gt;Mutlicast&amp;nbsp;to listeners&lt;/font&gt;" style="text;html=1;strokeColor=none;fillColor=none;align=center;verticalAlign=middle;whiteSpace=wrap;rounded=0;dashed=1;dashPattern=1 2;" vertex="1" parent="1">
          <mxGeometry x="259" y="2890" width="166" height="20" as="geometry" />
        </mxCell>
        <mxCell id="kll7W4Ml-uQDBgVJ0LRq-346" value="&lt;font style=&quot;font-size: 12px&quot; face=&quot;Times New Roman&quot;&gt;delegates&lt;br&gt;to InvokeListener&lt;/font&gt;" style="text;html=1;strokeColor=none;fillColor=none;align=center;verticalAlign=middle;whiteSpace=wrap;rounded=0;dashed=1;dashPattern=1 2;fontSize=10;" vertex="1" parent="1">
          <mxGeometry x="300" y="3005" width="108" height="20" as="geometry" />
        </mxCell>
        <mxCell id="kll7W4Ml-uQDBgVJ0LRq-352" value="ConfigurationPropertySources.&#xa;attach(environment)" style="shape=umlLifeline;perimeter=lifelinePerimeter;container=1;collapsible=0;recursiveResize=0;rounded=0;shadow=0;strokeWidth=1;fontSize=9;" vertex="1" parent="1">
          <mxGeometry x="70" y="3940" width="140" height="30" as="geometry" />
        </mxCell>
        <mxCell id="kll7W4Ml-uQDBgVJ0LRq-353" value="&lt;span style=&quot;font-style: normal ; font-weight: normal ; letter-spacing: normal ; text-indent: 0px ; text-transform: none ; word-spacing: 0px ; text-decoration: none ; font-size: 12px ; text-align: left ; float: none ; display: inline&quot;&gt;&lt;font face=&quot;Times New Roman&quot;&gt;&lt;font style=&quot;font-size: 12px&quot;&gt;&lt;span class=&quot;Apple-converted-space&quot;&gt;&amp;nbsp;A&lt;/span&gt;ttach a&amp;nbsp;&lt;/font&gt;&lt;span style=&quot;text-align: center&quot;&gt;configurePropertySources (&lt;/span&gt;configurationProperties&lt;span style=&quot;text-align: center&quot;&gt;&lt;br&gt;) and add to&amp;nbsp;&lt;/span&gt;&lt;font style=&quot;font-size: 12px&quot;&gt;environment object&lt;/font&gt;&lt;/font&gt;&lt;/span&gt;" style="text;whiteSpace=wrap;html=1;fontSize=9;fontColor=#000000;" vertex="1" parent="1">
          <mxGeometry x="-240" y="3940" width="480" height="30" as="geometry" />
        </mxCell>
        <mxCell id="kll7W4Ml-uQDBgVJ0LRq-362" value="getEnvironmentPostProcessors" style="shape=umlLifeline;perimeter=lifelinePerimeter;container=1;collapsible=0;recursiveResize=0;rounded=0;shadow=0;strokeWidth=1;fontSize=9;" vertex="1" parent="1">
          <mxGeometry x="280" y="3380" width="140" height="30" as="geometry" />
        </mxCell>
        <mxCell id="kll7W4Ml-uQDBgVJ0LRq-364" value="" style="endArrow=classic;html=1;dashed=1;dashPattern=1 2;fontSize=9;fontColor=#000000;entryX=-0.014;entryY=0.933;entryDx=0;entryDy=0;entryPerimeter=0;" edge="1" parent="1" target="kll7W4Ml-uQDBgVJ0LRq-223">
          <mxGeometry width="50" height="50" relative="1" as="geometry">
            <mxPoint x="420" y="3390" as="sourcePoint" />
            <mxPoint x="470" y="3340" as="targetPoint" />
            <Array as="points">
              <mxPoint x="440" y="3390" />
            </Array>
          </mxGeometry>
        </mxCell>
        <mxCell id="kll7W4Ml-uQDBgVJ0LRq-365" value="" style="endArrow=classic;html=1;dashed=1;dashPattern=1 2;fontSize=9;fontColor=#000000;exitX=1;exitY=0.267;exitDx=0;exitDy=0;exitPerimeter=0;" edge="1" parent="1" source="kll7W4Ml-uQDBgVJ0LRq-227">
          <mxGeometry width="50" height="50" relative="1" as="geometry">
            <mxPoint x="720" y="2900" as="sourcePoint" />
            <mxPoint x="770" y="2850" as="targetPoint" />
            <Array as="points">
              <mxPoint x="740" y="2850" />
            </Array>
          </mxGeometry>
        </mxCell>
        <mxCell id="kll7W4Ml-uQDBgVJ0LRq-371" value="" style="edgeStyle=orthogonalEdgeStyle;rounded=0;orthogonalLoop=1;jettySize=auto;html=1;dashed=1;dashPattern=1 2;fontSize=9;fontColor=#000000;" edge="1" parent="1" target="kll7W4Ml-uQDBgVJ0LRq-370">
          <mxGeometry relative="1" as="geometry">
            <mxPoint x="130" y="4305" as="sourcePoint" />
          </mxGeometry>
        </mxCell>
        <mxCell id="kll7W4Ml-uQDBgVJ0LRq-370" value="" style="shape=process;whiteSpace=wrap;html=1;backgroundOutline=1;rounded=0;shadow=0;fontSize=10;strokeWidth=1;" vertex="1" parent="1">
          <mxGeometry x="70" y="4385" width="120" height="60" as="geometry" />
        </mxCell>
        <mxCell id="kll7W4Ml-uQDBgVJ0LRq-372" value="&lt;pre style=&quot;font-style: normal ; font-weight: normal ; letter-spacing: normal ; text-indent: 0px ; text-transform: none ; word-spacing: 0px ; text-decoration: none ; background-color: rgb(43 , 43 , 43) ; color: rgb(169 , 183 , 198) ; font-family: &amp;#34;jetbrains mono&amp;#34; , monospace ; font-size: 22px&quot;&gt;&lt;span style=&quot;color: rgb(204 , 120 , 50)&quot;&gt;private &lt;/span&gt;ConfigDataEnvironmentContributor &lt;span style=&quot;color: rgb(255 , 198 , 109)&quot;&gt;fetchIfNecessary&lt;/span&gt;() {&lt;br&gt; &lt;span style=&quot;color: rgb(204 , 120 , 50)&quot;&gt;if &lt;/span&gt;(&lt;span style=&quot;color: rgb(204 , 120 , 50)&quot;&gt;this&lt;/span&gt;.&lt;span style=&quot;color: rgb(152 , 118 , 170)&quot;&gt;next &lt;/span&gt;!= &lt;span style=&quot;color: rgb(204 , 120 , 50)&quot;&gt;null&lt;/span&gt;) {&lt;br&gt;  &lt;span style=&quot;color: rgb(204 , 120 , 50)&quot;&gt;return this&lt;/span&gt;.&lt;span style=&quot;color: rgb(152 , 118 , 170)&quot;&gt;next&lt;/span&gt;&lt;span style=&quot;color: rgb(204 , 120 , 50)&quot;&gt;;&lt;br&gt;&lt;/span&gt;&lt;span style=&quot;color: rgb(204 , 120 , 50)&quot;&gt; &lt;/span&gt;}&lt;br&gt; &lt;span style=&quot;color: rgb(204 , 120 , 50)&quot;&gt;if &lt;/span&gt;(&lt;span style=&quot;color: rgb(204 , 120 , 50)&quot;&gt;this&lt;/span&gt;.&lt;span style=&quot;color: rgb(152 , 118 , 170)&quot;&gt;current&lt;/span&gt;.hasNext()) {&lt;br&gt;  &lt;span style=&quot;color: rgb(204 , 120 , 50)&quot;&gt;this&lt;/span&gt;.&lt;span style=&quot;color: rgb(152 , 118 , 170)&quot;&gt;next &lt;/span&gt;= &lt;span style=&quot;color: rgb(204 , 120 , 50)&quot;&gt;this&lt;/span&gt;.&lt;span style=&quot;color: rgb(152 , 118 , 170)&quot;&gt;current&lt;/span&gt;.next()&lt;span style=&quot;color: rgb(204 , 120 , 50)&quot;&gt;;&lt;br&gt;&lt;/span&gt;&lt;span style=&quot;color: rgb(204 , 120 , 50)&quot;&gt;  return this&lt;/span&gt;.&lt;span style=&quot;color: rgb(152 , 118 , 170)&quot;&gt;next&lt;/span&gt;&lt;span style=&quot;color: rgb(204 , 120 , 50)&quot;&gt;;&lt;br&gt;&lt;/span&gt;&lt;span style=&quot;color: rgb(204 , 120 , 50)&quot;&gt; &lt;/span&gt;}&lt;br&gt; &lt;span style=&quot;color: rgb(204 , 120 , 50)&quot;&gt;if &lt;/span&gt;(&lt;span style=&quot;color: rgb(204 , 120 , 50)&quot;&gt;this&lt;/span&gt;.&lt;span style=&quot;color: rgb(152 , 118 , 170)&quot;&gt;children&lt;/span&gt;.hasNext()) {&lt;br&gt;  &lt;span style=&quot;color: rgb(204 , 120 , 50)&quot;&gt;this&lt;/span&gt;.&lt;span style=&quot;color: rgb(152 , 118 , 170)&quot;&gt;current &lt;/span&gt;= &lt;span style=&quot;color: rgb(204 , 120 , 50)&quot;&gt;this&lt;/span&gt;.&lt;span style=&quot;color: rgb(152 , 118 , 170)&quot;&gt;children&lt;/span&gt;.next().iterator()&lt;span style=&quot;color: rgb(204 , 120 , 50)&quot;&gt;;&lt;br&gt;&lt;/span&gt;&lt;span style=&quot;color: rgb(204 , 120 , 50)&quot;&gt;  return &lt;/span&gt;fetchIfNecessary()&lt;span style=&quot;color: rgb(204 , 120 , 50)&quot;&gt;;&lt;br&gt;&lt;/span&gt;&lt;span style=&quot;color: rgb(204 , 120 , 50)&quot;&gt; &lt;/span&gt;}&lt;br&gt; &lt;span style=&quot;color: rgb(204 , 120 , 50)&quot;&gt;if &lt;/span&gt;(&lt;span style=&quot;color: rgb(204 , 120 , 50)&quot;&gt;this&lt;/span&gt;.&lt;span style=&quot;color: rgb(152 , 118 , 170)&quot;&gt;phase &lt;/span&gt;== ImportPhase.&lt;span style=&quot;color: rgb(152 , 118 , 170) ; font-style: italic&quot;&gt;AFTER_PROFILE_ACTIVATION&lt;/span&gt;) {&lt;br&gt;  &lt;span style=&quot;color: rgb(204 , 120 , 50)&quot;&gt;this&lt;/span&gt;.&lt;span style=&quot;color: rgb(152 , 118 , 170)&quot;&gt;phase &lt;/span&gt;= ImportPhase.&lt;span style=&quot;color: rgb(152 , 118 , 170) ; font-style: italic&quot;&gt;BEFORE_PROFILE_ACTIVATION&lt;/span&gt;&lt;span style=&quot;color: rgb(204 , 120 , 50)&quot;&gt;;&lt;br&gt;&lt;/span&gt;&lt;span style=&quot;color: rgb(204 , 120 , 50)&quot;&gt;  this&lt;/span&gt;.&lt;span style=&quot;color: rgb(152 , 118 , 170)&quot;&gt;children &lt;/span&gt;= getChildren(&lt;span style=&quot;color: rgb(204 , 120 , 50)&quot;&gt;this&lt;/span&gt;.&lt;span style=&quot;color: rgb(152 , 118 , 170)&quot;&gt;phase&lt;/span&gt;).iterator()&lt;span style=&quot;color: rgb(204 , 120 , 50)&quot;&gt;;&lt;br&gt;&lt;/span&gt;&lt;span style=&quot;color: rgb(204 , 120 , 50)&quot;&gt;  return &lt;/span&gt;fetchIfNecessary()&lt;span style=&quot;color: rgb(204 , 120 , 50)&quot;&gt;;&lt;br&gt;&lt;/span&gt;&lt;span style=&quot;color: rgb(204 , 120 , 50)&quot;&gt; &lt;/span&gt;}&lt;br&gt; &lt;span style=&quot;color: rgb(204 , 120 , 50)&quot;&gt;if &lt;/span&gt;(&lt;span style=&quot;color: rgb(204 , 120 , 50)&quot;&gt;this&lt;/span&gt;.&lt;span style=&quot;color: rgb(152 , 118 , 170)&quot;&gt;phase &lt;/span&gt;== ImportPhase.&lt;span style=&quot;color: rgb(152 , 118 , 170) ; font-style: italic&quot;&gt;BEFORE_PROFILE_ACTIVATION&lt;/span&gt;) {&lt;br&gt;  &lt;span style=&quot;color: rgb(204 , 120 , 50)&quot;&gt;this&lt;/span&gt;.&lt;span style=&quot;color: rgb(152 , 118 , 170)&quot;&gt;phase &lt;/span&gt;= &lt;span style=&quot;color: rgb(204 , 120 , 50)&quot;&gt;null;&lt;br&gt;&lt;/span&gt;&lt;span style=&quot;color: rgb(204 , 120 , 50)&quot;&gt;  this&lt;/span&gt;.&lt;span style=&quot;color: rgb(152 , 118 , 170)&quot;&gt;next &lt;/span&gt;= ConfigDataEnvironmentContributor.&lt;span style=&quot;color: rgb(204 , 120 , 50)&quot;&gt;this;&lt;br&gt;&lt;/span&gt;&lt;span style=&quot;color: rgb(204 , 120 , 50)&quot;&gt;  return this&lt;/span&gt;.&lt;span style=&quot;color: rgb(152 , 118 , 170)&quot;&gt;next&lt;/span&gt;&lt;span style=&quot;color: rgb(204 , 120 , 50)&quot;&gt;;&lt;br&gt;&lt;/span&gt;&lt;span style=&quot;color: rgb(204 , 120 , 50)&quot;&gt; &lt;/span&gt;}&lt;br&gt; &lt;span style=&quot;color: rgb(204 , 120 , 50)&quot;&gt;return null;&lt;br&gt;&lt;/span&gt;}&lt;/pre&gt;" style="text;whiteSpace=wrap;html=1;fontSize=9;fontColor=#000000;" vertex="1" parent="1">
          <mxGeometry x="-840" y="4500" width="530" height="490" as="geometry" />
        </mxCell>
        <mxCell id="kll7W4Ml-uQDBgVJ0LRq-377" value="" style="rounded=1;whiteSpace=wrap;html=1;strokeWidth=1;fillColor=#ffffff;gradientColor=none;fontSize=9;fontColor=#000000;" vertex="1" parent="1">
          <mxGeometry x="300" y="4548" width="420" height="60" as="geometry" />
        </mxCell>
        <mxCell id="kll7W4Ml-uQDBgVJ0LRq-378" value="" style="rounded=1;whiteSpace=wrap;html=1;strokeWidth=1;fillColor=#ffffff;gradientColor=none;fontSize=9;fontColor=#000000;" vertex="1" parent="1">
          <mxGeometry x="180" y="4688" width="636" height="60" as="geometry" />
        </mxCell>
        <mxCell id="kll7W4Ml-uQDBgVJ0LRq-380" value="" style="rounded=1;whiteSpace=wrap;html=1;strokeWidth=1;fillColor=#ffffff;gradientColor=none;fontSize=9;fontColor=#000000;" vertex="1" parent="1">
          <mxGeometry x="168" y="4848" width="660" height="72" as="geometry" />
        </mxCell>
        <mxCell id="kll7W4Ml-uQDBgVJ0LRq-382" value="" style="rounded=1;whiteSpace=wrap;html=1;strokeWidth=1;fillColor=#ffffff;gradientColor=none;fontSize=9;fontColor=#000000;" vertex="1" parent="1">
          <mxGeometry x="228" y="4968" width="540" height="60" as="geometry" />
        </mxCell>
        <mxCell id="kll7W4Ml-uQDBgVJ0LRq-384" value="&lt;pre class=&quot;graf graf--pre&quot;&gt;&lt;font style=&quot;font-size: 10px&quot;&gt;First check if next element has been set if yes return it&lt;/font&gt;&lt;/pre&gt;" style="text;html=1;strokeColor=none;fillColor=none;align=center;verticalAlign=middle;whiteSpace=wrap;rounded=0;dashed=1;dashPattern=1 2;fontSize=13;fontColor=#000000;" vertex="1" parent="1">
          <mxGeometry x="459" y="4568" width="106" height="20" as="geometry" />
        </mxCell>
        <mxCell id="kll7W4Ml-uQDBgVJ0LRq-385" value="&lt;pre class=&quot;graf graf--pre&quot; style=&quot;font-style: normal ; font-weight: normal ; letter-spacing: normal ; text-indent: 0px ; text-transform: none ; word-spacing: 0px ; text-decoration: none ; color: rgb(0 , 0 , 0)&quot;&gt;&lt;font style=&quot;font-size: 10px&quot;&gt;if not, check if current contributor iterator has been set, if yes fetch and return next element&lt;/font&gt;&lt;/pre&gt;" style="text;whiteSpace=wrap;html=1;fontSize=13;fontColor=#000000;" vertex="1" parent="1">
          <mxGeometry x="205.5" y="4688" width="609" height="60" as="geometry" />
        </mxCell>
        <mxCell id="kll7W4Ml-uQDBgVJ0LRq-386" value="&lt;pre class=&quot;graf graf--pre&quot; style=&quot;font-style: normal ; font-weight: normal ; letter-spacing: normal ; text-indent: 0px ; text-transform: none ; word-spacing: 0px ; text-decoration: none ; color: rgb(0 , 0 , 0) ; font-size: 10px&quot;&gt;&lt;font style=&quot;font-size: 10px&quot;&gt;if no current contributor has been set or all have been exhausted ask children iterator&amp;nbsp;&lt;/font&gt;&lt;/pre&gt;&lt;pre class=&quot;graf graf--pre&quot; style=&quot;font-style: normal ; font-weight: normal ; letter-spacing: normal ; text-indent: 0px ; text-transform: none ; word-spacing: 0px ; text-decoration: none ; color: rgb(0 , 0 , 0) ; font-size: 10px&quot;&gt;&lt;font style=&quot;font-size: 10px&quot;&gt;if there is any/more contributor to process if yes set current contributor iterator and fetch&lt;/font&gt;&lt;/pre&gt;" style="text;whiteSpace=wrap;html=1;fontSize=11;fontColor=#000000;" vertex="1" parent="1">
          <mxGeometry x="198" y="4848" width="552" height="60" as="geometry" />
        </mxCell>
        <mxCell id="kll7W4Ml-uQDBgVJ0LRq-387" value="&lt;pre class=&quot;graf graf--pre&quot; style=&quot;font-style: normal ; font-weight: normal ; letter-spacing: normal ; text-indent: 0px ; text-transform: none ; word-spacing: 0px ; text-decoration: none ; color: rgb(0 , 0 , 0)&quot;&gt;&lt;font style=&quot;font-size: 10px&quot;&gt;if there is no more contributor for the active phase switch to before phase&lt;/font&gt;&lt;/pre&gt;" style="text;whiteSpace=wrap;html=1;fontSize=11;fontColor=#000000;" vertex="1" parent="1">
          <mxGeometry x="242" y="4974" width="478" height="48" as="geometry" />
        </mxCell>
        <mxCell id="kll7W4Ml-uQDBgVJ0LRq-390" value="&lt;pre class=&quot;graf graf--pre&quot; style=&quot;font-style: normal ; font-weight: normal ; letter-spacing: normal ; text-indent: 0px ; text-transform: none ; word-spacing: 0px ; text-decoration: none ; color: rgb(0 , 0 , 0)&quot;&gt;if still no contributors is available for either phases it means we have a leaf contributor&amp;nbsp;&lt;/pre&gt;&lt;pre class=&quot;graf graf--pre&quot; style=&quot;font-style: normal ; font-weight: normal ; letter-spacing: normal ; text-indent: 0px ; text-transform: none ; word-spacing: 0px ; text-decoration: none ; color: rgb(0 , 0 , 0)&quot;&gt;                          so return it as next element&lt;/pre&gt;" style="text;whiteSpace=wrap;html=1;fontSize=11;fontColor=#000000;textOpacity=0;" vertex="1" parent="1">
          <mxGeometry x="216" y="5118" width="504" height="48" as="geometry" />
        </mxCell>
        <mxCell id="kll7W4Ml-uQDBgVJ0LRq-397" value="" style="rounded=1;whiteSpace=wrap;html=1;strokeWidth=1;fillColor=#ffffff;gradientColor=none;fontSize=9;fontColor=#000000;" vertex="1" parent="1">
          <mxGeometry x="216" y="5112" width="540" height="60" as="geometry" />
        </mxCell>
        <mxCell id="kll7W4Ml-uQDBgVJ0LRq-398" value="&lt;pre class=&quot;graf graf--pre&quot; style=&quot;font-style: normal ; font-weight: normal ; letter-spacing: normal ; text-indent: 0px ; text-transform: none ; word-spacing: 0px ; text-decoration: none ; color: rgb(0 , 0 , 0) ; font-size: 10px&quot;&gt;&lt;pre class=&quot;graf graf--pre&quot;&gt;if still no contributor is available for either phases, it means we have a&amp;nbsp;&lt;/pre&gt;&lt;pre class=&quot;graf graf--pre&quot;&gt;              leaf contributor so return it as next element&lt;/pre&gt;&lt;/pre&gt;" style="text;whiteSpace=wrap;html=1;fontSize=11;fontColor=#000000;" vertex="1" parent="1">
          <mxGeometry x="248" y="5112" width="528" height="48" as="geometry" />
        </mxCell>
        <mxCell id="kll7W4Ml-uQDBgVJ0LRq-399" value="" style="edgeStyle=orthogonalEdgeStyle;rounded=0;orthogonalLoop=1;jettySize=auto;html=1;dashed=1;dashPattern=1 2;fontSize=11;fontColor=#000000;" edge="1" parent="1">
          <mxGeometry relative="1" as="geometry">
            <mxPoint x="500" y="4608" as="sourcePoint" />
            <mxPoint x="500" y="4688" as="targetPoint" />
          </mxGeometry>
        </mxCell>
        <mxCell id="kll7W4Ml-uQDBgVJ0LRq-400" value="" style="edgeStyle=orthogonalEdgeStyle;rounded=0;orthogonalLoop=1;jettySize=auto;html=1;dashed=1;dashPattern=1 2;fontSize=11;fontColor=#000000;entryX=0.551;entryY=0;entryDx=0;entryDy=0;entryPerimeter=0;" edge="1" parent="1" target="kll7W4Ml-uQDBgVJ0LRq-386">
          <mxGeometry relative="1" as="geometry">
            <mxPoint x="502.5" y="4748" as="sourcePoint" />
            <mxPoint x="502.5" y="4828" as="targetPoint" />
          </mxGeometry>
        </mxCell>
        <mxCell id="kll7W4Ml-uQDBgVJ0LRq-401" value="" style="edgeStyle=orthogonalEdgeStyle;rounded=0;orthogonalLoop=1;jettySize=auto;html=1;dashed=1;dashPattern=1 2;fontSize=11;fontColor=#000000;" edge="1" parent="1">
          <mxGeometry relative="1" as="geometry">
            <mxPoint x="500" y="4910" as="sourcePoint" />
            <mxPoint x="500" y="4968" as="targetPoint" />
          </mxGeometry>
        </mxCell>
        <mxCell id="kll7W4Ml-uQDBgVJ0LRq-404" value="" style="edgeStyle=orthogonalEdgeStyle;rounded=0;orthogonalLoop=1;jettySize=auto;html=1;dashed=1;dashPattern=1 2;fontSize=11;fontColor=#000000;entryX=0.472;entryY=-0.018;entryDx=0;entryDy=0;entryPerimeter=0;" edge="1" parent="1" target="kll7W4Ml-uQDBgVJ0LRq-398">
          <mxGeometry relative="1" as="geometry">
            <mxPoint x="497.29" y="5028" as="sourcePoint" />
            <mxPoint x="497.29" y="5085.999999999999" as="targetPoint" />
          </mxGeometry>
        </mxCell>
        <mxCell id="kll7W4Ml-uQDBgVJ0LRq-406" value="" style="endArrow=classic;html=1;dashed=1;dashPattern=1 2;fontSize=11;fontColor=#000000;entryX=-0.009;entryY=0.667;entryDx=0;entryDy=0;entryPerimeter=0;" edge="1" parent="1" target="kll7W4Ml-uQDBgVJ0LRq-152">
          <mxGeometry width="50" height="50" relative="1" as="geometry">
            <mxPoint x="1560" y="3280" as="sourcePoint" />
            <mxPoint x="1610" y="3230" as="targetPoint" />
          </mxGeometry>
        </mxCell>
        <mxCell id="kll7W4Ml-uQDBgVJ0LRq-408" value="&lt;p style=&quot;margin-top: 0pt ; margin-bottom: 0pt ; margin-left: 0in ; text-align: left ; direction: ltr ; unicode-bidi: embed ; word-break: normal ; font-size: 12px&quot;&gt;&lt;font face=&quot;Times New Roman&quot; style=&quot;font-size: 12px&quot;&gt;f&lt;font style=&quot;font-size: 12px&quot;&gt;rom spring.factories load all the classes that implements ApplicationContextInitializer&lt;/font&gt;&lt;/font&gt;&lt;/p&gt;&lt;p style=&quot;margin-top: 0pt ; margin-bottom: 0pt ; margin-left: 0in ; text-align: left ; direction: ltr ; unicode-bidi: embed ; word-break: normal ; font-size: 12px&quot;&gt;&lt;font style=&quot;font-size: 12px&quot; face=&quot;Times New Roman&quot;&gt;&lt;span style=&quot;text-align: center&quot;&gt;ApplicationContextInitializer&amp;nbsp;&lt;/span&gt;&lt;span style=&quot;text-align: center&quot;&gt;provides initialization customization for ApplicationContext&lt;/span&gt;&lt;/font&gt;&lt;/p&gt;" style="text;html=1;strokeColor=none;fillColor=none;align=center;verticalAlign=middle;whiteSpace=wrap;rounded=0;shadow=0;fontSize=8;" vertex="1" parent="1">
          <mxGeometry x="-684" y="3120" width="570" height="20" as="geometry" />
        </mxCell>
        <mxCell id="kll7W4Ml-uQDBgVJ0LRq-410" value="&lt;font face=&quot;Times New Roman&quot;&gt;For illustration :&amp;nbsp;&lt;span style=&quot;font-size: 12px&quot;&gt;ConfigDataEnvironmentPostProcessor&lt;/span&gt;&lt;/font&gt;" style="text;html=1;strokeColor=none;fillColor=none;align=center;verticalAlign=middle;whiteSpace=wrap;rounded=0;labelBackgroundColor=none;fontSize=11;fontColor=#000000;" vertex="1" parent="1">
          <mxGeometry x="320" y="3330" width="256" height="20" as="geometry" />
        </mxCell>
        <mxCell id="kll7W4Ml-uQDBgVJ0LRq-411" value="&lt;p class=&quot;graf graf--p&quot;&gt;&lt;font color=&quot;#ff0000&quot;&gt;legacy property has been set&lt;/font&gt;&lt;/p&gt;" style="text;html=1;strokeColor=none;fillColor=none;align=center;verticalAlign=middle;whiteSpace=wrap;rounded=0;labelBackgroundColor=none;fontSize=11;fontColor=#000000;" vertex="1" parent="1">
          <mxGeometry x="658" y="3140" width="142" height="20" as="geometry" />
        </mxCell>
        <mxCell id="kll7W4Ml-uQDBgVJ0LRq-415" value="" style="endArrow=classic;html=1;dashed=1;dashPattern=1 2;fontSize=11;fontColor=#000000;entryX=0;entryY=0.067;entryDx=0;entryDy=0;entryPerimeter=0;" edge="1" parent="1" target="kll7W4Ml-uQDBgVJ0LRq-255">
          <mxGeometry width="50" height="50" relative="1" as="geometry">
            <mxPoint x="1002.5" y="3610" as="sourcePoint" />
            <mxPoint x="1070.5" y="2834" as="targetPoint" />
            <Array as="points">
              <mxPoint x="1010.5" y="3578" />
              <mxPoint x="1010.5" y="2834" />
            </Array>
          </mxGeometry>
        </mxCell>
        <mxCell id="kll7W4Ml-uQDBgVJ0LRq-416" value="" style="endArrow=classic;html=1;dashed=1;dashPattern=1 2;fontSize=11;fontColor=#000000;exitX=1.001;exitY=0.333;exitDx=0;exitDy=0;exitPerimeter=0;" edge="1" parent="1" source="kll7W4Ml-uQDBgVJ0LRq-248">
          <mxGeometry width="50" height="50" relative="1" as="geometry">
            <mxPoint x="1008" y="3728" as="sourcePoint" />
            <mxPoint x="1079" y="2845" as="targetPoint" />
            <Array as="points">
              <mxPoint x="1018" y="3696" />
              <mxPoint x="1018" y="2845" />
            </Array>
          </mxGeometry>
        </mxCell>
        <mxCell id="kll7W4Ml-uQDBgVJ0LRq-417" value="" style="endArrow=classic;html=1;dashed=1;dashPattern=1 2;fontSize=11;fontColor=#000000;exitX=0.895;exitY=0;exitDx=0;exitDy=0;exitPerimeter=0;entryX=0.009;entryY=0.833;entryDx=0;entryDy=0;entryPerimeter=0;" edge="1" parent="1" source="kll7W4Ml-uQDBgVJ0LRq-252" target="kll7W4Ml-uQDBgVJ0LRq-255">
          <mxGeometry width="50" height="50" relative="1" as="geometry">
            <mxPoint x="996" y="3941" as="sourcePoint" />
            <mxPoint x="1090" y="3164" as="targetPoint" />
            <Array as="points">
              <mxPoint x="1030" y="3908" />
              <mxPoint x="1030" y="3164" />
              <mxPoint x="1030" y="2856" />
            </Array>
          </mxGeometry>
        </mxCell>
        <mxCell id="kll7W4Ml-uQDBgVJ0LRq-427" value="" style="endArrow=none;html=1;fontSize=11;fontColor=#000000;entryX=0.478;entryY=1.033;entryDx=0;entryDy=0;entryPerimeter=0;" edge="1" parent="1">
          <mxGeometry width="50" height="50" relative="1" as="geometry">
            <mxPoint x="1194.56" y="3050" as="sourcePoint" />
            <mxPoint x="1194.5" y="2970.99" as="targetPoint" />
          </mxGeometry>
        </mxCell>
        <mxCell id="kll7W4Ml-uQDBgVJ0LRq-428" value="" style="endArrow=none;html=1;fontSize=11;fontColor=#000000;entryX=0.478;entryY=1.033;entryDx=0;entryDy=0;entryPerimeter=0;" edge="1" parent="1">
          <mxGeometry width="50" height="50" relative="1" as="geometry">
            <mxPoint x="1194.56" y="2940" as="sourcePoint" />
            <mxPoint x="1194.5" y="2860.99" as="targetPoint" />
          </mxGeometry>
        </mxCell>
        <mxCell id="kll7W4Ml-uQDBgVJ0LRq-429" value="get config Data location" style="shape=umlLifeline;perimeter=lifelinePerimeter;container=1;collapsible=0;recursiveResize=0;rounded=0;shadow=0;strokeWidth=1;" vertex="1" parent="1">
          <mxGeometry x="1080" y="3270" width="230" height="30" as="geometry" />
        </mxCell>
        <mxCell id="kll7W4Ml-uQDBgVJ0LRq-431" value="&lt;span style=&quot;color: rgb(0 , 0 , 0) ; font-family: &amp;#34;helvetica&amp;#34; ; font-size: 11px ; font-style: normal ; font-weight: normal ; letter-spacing: normal ; text-align: center ; text-indent: 0px ; text-transform: none ; word-spacing: 0px ; background-color: rgb(248 , 249 , 250) ; text-decoration: none ; display: inline ; float: none&quot;&gt;For illustration: PropertiesPropertySource&lt;/span&gt;&lt;br style=&quot;padding: 0px ; margin: 0px ; color: rgb(0 , 0 , 0) ; font-family: &amp;#34;helvetica&amp;#34; ; font-size: 11px ; font-style: normal ; font-weight: normal ; letter-spacing: normal ; text-align: center ; text-indent: 0px ; text-transform: none ; word-spacing: 0px ; text-decoration: none&quot;&gt;&lt;span style=&quot;color: rgb(0 , 0 , 0) ; font-family: &amp;#34;helvetica&amp;#34; ; font-size: 11px ; font-style: normal ; font-weight: normal ; letter-spacing: normal ; text-align: center ; text-indent: 0px ; text-transform: none ; word-spacing: 0px ; background-color: rgb(248 , 249 , 250) ; text-decoration: none ; display: inline ; float: none&quot;&gt;Loader&lt;/span&gt;" style="text;whiteSpace=wrap;html=1;fontSize=11;fontColor=#000000;" vertex="1" parent="1">
          <mxGeometry x="1274" y="3960" width="156" height="48" as="geometry" />
        </mxCell>
        <mxCell id="kll7W4Ml-uQDBgVJ0LRq-432" value="&lt;pre style=&quot;font-style: normal ; font-weight: normal ; letter-spacing: normal ; text-indent: 0px ; text-transform: none ; word-spacing: 0px ; text-decoration: none ; background-color: rgb(43 , 43 , 43) ; color: rgb(169 , 183 , 198) ; font-family: &amp;quot;jetbrains mono&amp;quot; , monospace&quot;&gt;List&amp;lt;PropertySource&amp;lt;?&amp;gt;&amp;gt; propertySources = reference.getPropertySourceLoader().load(name&lt;span style=&quot;color: rgb(204 , 120 , 50)&quot;&gt;, &lt;/span&gt;originTrackedResource)&lt;span style=&quot;color: rgb(204 , 120 , 50)&quot;&gt;;&lt;br&gt;&lt;/span&gt;&lt;span style=&quot;color: rgb(204 , 120 , 50)&quot;&gt;return new &lt;/span&gt;ConfigData(propertySources)&lt;span style=&quot;color: rgb(204 , 120 , 50)&quot;&gt;;&lt;/span&gt;&lt;/pre&gt;" style="text;whiteSpace=wrap;html=1;fontSize=11;fontColor=#000000;" vertex="1" parent="1">
          <mxGeometry x="1360" y="4020" width="552" height="72" as="geometry" />
        </mxCell>
        <mxCell id="kll7W4Ml-uQDBgVJ0LRq-433" value="&lt;div style=&quot;text-align: center&quot;&gt;&lt;br&gt;&lt;/div&gt;" style="text;whiteSpace=wrap;html=1;fontSize=11;fontColor=#000000;" vertex="1" parent="1">
          <mxGeometry x="1400" y="3982" width="156" height="48" as="geometry" />
        </mxCell>
        <mxCell id="kll7W4Ml-uQDBgVJ0LRq-436" value="" style="endArrow=none;html=1;fontSize=11;fontColor=#000000;entryX=0.771;entryY=1.086;entryDx=0;entryDy=0;entryPerimeter=0;exitX=0.515;exitY=-0.01;exitDx=0;exitDy=0;exitPerimeter=0;" edge="1" parent="1" source="kll7W4Ml-uQDBgVJ0LRq-333" target="kll7W4Ml-uQDBgVJ0LRq-353">
          <mxGeometry width="50" height="50" relative="1" as="geometry">
            <mxPoint x="125" y="4030" as="sourcePoint" />
            <mxPoint x="175" y="3980" as="targetPoint" />
          </mxGeometry>
        </mxCell>
        <mxCell id="kll7W4Ml-uQDBgVJ0LRq-440" value="" style="endArrow=none;html=1;fontSize=11;fontColor=#000000;entryX=0.515;entryY=1.133;entryDx=0;entryDy=0;entryPerimeter=0;" edge="1" parent="1" target="kll7W4Ml-uQDBgVJ0LRq-333">
          <mxGeometry width="50" height="50" relative="1" as="geometry">
            <mxPoint x="130" y="4116" as="sourcePoint" />
            <mxPoint x="180" y="4066" as="targetPoint" />
          </mxGeometry>
        </mxCell>
        <mxCell id="kll7W4Ml-uQDBgVJ0LRq-443" value="" style="endArrow=none;html=1;fontSize=9;fontColor=#000000;" edge="1" parent="1">
          <mxGeometry width="50" height="50" relative="1" as="geometry">
            <mxPoint x="1194" y="3798" as="sourcePoint" />
            <mxPoint x="1194" y="3720" as="targetPoint" />
          </mxGeometry>
        </mxCell>
        <mxCell id="kll7W4Ml-uQDBgVJ0LRq-444" value="" style="endArrow=none;html=1;fontSize=9;fontColor=#000000;" edge="1" parent="1">
          <mxGeometry width="50" height="50" relative="1" as="geometry">
            <mxPoint x="1192.29" y="3690" as="sourcePoint" />
            <mxPoint x="1193" y="3612" as="targetPoint" />
          </mxGeometry>
        </mxCell>
        <mxCell id="kll7W4Ml-uQDBgVJ0LRq-445" value="" style="endArrow=none;html=1;fontSize=9;fontColor=#000000;entryX=0.507;entryY=1.044;entryDx=0;entryDy=0;entryPerimeter=0;" edge="1" parent="1">
          <mxGeometry width="50" height="50" relative="1" as="geometry">
            <mxPoint x="1195" y="3907" as="sourcePoint" />
            <mxPoint x="1194.63" y="3830" as="targetPoint" />
          </mxGeometry>
        </mxCell>
        <mxCell id="kll7W4Ml-uQDBgVJ0LRq-446" value="" style="endArrow=none;html=1;fontSize=9;fontColor=#000000;entryX=0.507;entryY=1.044;entryDx=0;entryDy=0;entryPerimeter=0;" edge="1" parent="1">
          <mxGeometry width="50" height="50" relative="1" as="geometry">
            <mxPoint x="1194.29" y="4042" as="sourcePoint" />
            <mxPoint x="1194.5800000000002" y="3940" as="targetPoint" />
          </mxGeometry>
        </mxCell>
        <mxCell id="kll7W4Ml-uQDBgVJ0LRq-447" value="wrap existing propertySources" style="text;html=1;strokeColor=none;fillColor=none;align=center;verticalAlign=middle;whiteSpace=wrap;rounded=0;labelBackgroundColor=none;fontSize=11;fontColor=#000000;" vertex="1" parent="1">
          <mxGeometry x="798" y="3020" width="172" height="20" as="geometry" />
        </mxCell>
        <mxCell id="kll7W4Ml-uQDBgVJ0LRq-451" value="" style="edgeStyle=orthogonalEdgeStyle;rounded=0;orthogonalLoop=1;jettySize=auto;html=1;fontSize=9;fontColor=#000000;" edge="1" parent="1" source="kll7W4Ml-uQDBgVJ0LRq-231" target="kll7W4Ml-uQDBgVJ0LRq-447">
          <mxGeometry relative="1" as="geometry">
            <mxPoint x="884.5" y="2970" as="sourcePoint" />
            <mxPoint x="884.0714285714284" y="3080" as="targetPoint" />
          </mxGeometry>
        </mxCell>
        <mxCell id="kll7W4Ml-uQDBgVJ0LRq-452" value="Define initial contributors that should be processed later" style="text;html=1;strokeColor=none;fillColor=none;align=center;verticalAlign=middle;whiteSpace=wrap;rounded=0;labelBackgroundColor=none;fontSize=11;fontColor=#000000;" vertex="1" parent="1">
          <mxGeometry x="814.5" y="3330" width="172" height="20" as="geometry" />
        </mxCell>
        <mxCell id="kll7W4Ml-uQDBgVJ0LRq-453" value="get next active contributor&amp;nbsp;" style="text;html=1;strokeColor=none;fillColor=none;align=center;verticalAlign=middle;whiteSpace=wrap;rounded=0;labelBackgroundColor=none;fontSize=11;fontColor=#000000;" vertex="1" parent="1">
          <mxGeometry x="1117.25" y="3010" width="148" height="20" as="geometry" />
        </mxCell>
        <mxCell id="kll7W4Ml-uQDBgVJ0LRq-454" value="bound properties if contributor is not bound" style="text;html=1;strokeColor=none;fillColor=none;align=center;verticalAlign=middle;whiteSpace=wrap;rounded=0;labelBackgroundColor=none;fontSize=11;fontColor=#000000;" vertex="1" parent="1">
          <mxGeometry x="1127" y="3120" width="148" height="20" as="geometry" />
        </mxCell>
      </root>
    </mxGraphModel>
  </diagram>
  <diagram id="mjF1wiKqpHaEil_ficX-" name="Page-2">
    <mxGraphModel dx="705" dy="620" grid="1" gridSize="10" guides="1" tooltips="1" connect="1" arrows="1" fold="1" page="1" pageScale="1" pageWidth="850" pageHeight="1100" math="0" shadow="0">
      <root>
        <mxCell id="mSIkdXi-huNY552-q5mL-0" />
        <mxCell id="mSIkdXi-huNY552-q5mL-1" parent="mSIkdXi-huNY552-q5mL-0" />
      </root>
    </mxGraphModel>
  </diagram>
</mxfile>
